/* XPM */
static char *result[] = {
/* columns rows colors chars-per-pixel */
"60 60 217 2 ",
"   c #1E1D1D",
".  c #201E1E",
"X  c #22201F",
"o  c #1F1D20",
"O  c #211F20",
"+  c #252323",
"@  c #292626",
"#  c #2B2926",
"$  c #292728",
"%  c #2D2A2A",
"&  c #272528",
"*  c #312E2D",
"=  c #302C26",
"-  c #33302D",
";  c #322F31",
":  c #353232",
">  c #393635",
",  c #3C3936",
"<  c #3E3A3A",
"1  c #383539",
"2  c #423E3C",
"3  c #423C34",
"4  c #44403F",
"5  c #4C423B",
"6  c #433F41",
"7  c #464143",
"8  c #494544",
"9  c #4D4946",
"0  c #4B4649",
"q  c #4E494B",
"w  c #524C4D",
"e  c #514A45",
"r  c #56514E",
"t  c #5A534E",
"y  c #544E51",
"u  c #565153",
"i  c #5A5453",
"p  c #5E5956",
"a  c #5C565A",
"s  c #5E595B",
"d  c #575358",
"f  c #625B56",
"g  c #635C5C",
"h  c #60575B",
"j  c #66615D",
"k  c #6A625E",
"l  c #655E62",
"z  c #685F62",
"x  c #695F6C",
"c  c #655B7D",
"v  c #676064",
"b  c #6B6365",
"n  c #6D656A",
"m  c #6F686F",
"M  c #6E6865",
"N  c #716665",
"B  c #726965",
"V  c #70676A",
"C  c #736A6D",
"Z  c #7A6E6B",
"A  c #7A716F",
"S  c #6C6577",
"D  c #756D72",
"F  c #796E72",
"G  c #756D7A",
"H  c #706572",
"J  c #777076",
"K  c #7C7275",
"L  c #75727C",
"P  c #7C747A",
"I  c #6C757E",
"U  c #80726A",
"Y  c #827475",
"T  c #81767A",
"R  c #83797D",
"E  c #8A7C7C",
"W  c #887A75",
"Q  c #5E598A",
"!  c #645B82",
"~  c #645E8A",
"^  c #6A6283",
"/  c #65638C",
"(  c #6C658A",
")  c #676081",
"_  c #726786",
"`  c #746B83",
"'  c #766B8B",
"]  c #786D88",
"[  c #747485",
"{  c #7B7582",
"}  c #7B728C",
"|  c #757C8B",
" . c #7C7C8A",
".. c #7A7784",
"X. c #6B6A93",
"o. c #6A6F9C",
"O. c #656698",
"+. c #736C94",
"@. c #766B90",
"#. c #6B729C",
"$. c #6E7699",
"%. c #727295",
"&. c #7E7393",
"*. c #7B7D93",
"=. c #74749B",
"-. c #7B759B",
";. c #757C9C",
":. c #7B7A9B",
">. c #757F96",
",. c #5E70AA",
"<. c #696FA7",
"1. c #6C73A3",
"2. c #6C7AA2",
"3. c #6E7DAD",
"4. c #6874AA",
"5. c #7274A3",
"6. c #747CA6",
"7. c #7C7CA2",
"8. c #727CAA",
"9. c #7577A8",
"0. c #667DB5",
"q. c #6B7CB2",
"w. c #667ABA",
"e. c #757EB4",
"r. c #5D7BC7",
"t. c #847B83",
"y. c #8A7E82",
"u. c #847C8B",
"i. c #837A9C",
"p. c #847A9A",
"a. c #798998",
"s. c #7E8088",
"d. c #6C85A8",
"f. c #7584AC",
"g. c #7984AB",
"h. c #7D8DAB",
"j. c #7589A5",
"k. c #7393AD",
"l. c #7B93AC",
"z. c #6D84B3",
"x. c #6F8AB5",
"c. c #6584BD",
"v. c #6C86BC",
"b. c #6C8ABC",
"n. c #7383B3",
"m. c #7289B3",
"M. c #738BBD",
"N. c #798BBB",
"B. c #7687B5",
"V. c #6E93B8",
"C. c #7392B4",
"Z. c #7992B3",
"A. c #7494BA",
"S. c #7499BE",
"D. c #7C9CBE",
"F. c #7795B9",
"G. c #5E84CC",
"H. c #6A85C2",
"J. c #6C8CC4",
"K. c #668CCB",
"L. c #6B8DCC",
"P. c #6687C8",
"I. c #728EC4",
"U. c #708DC9",
"Y. c #6D95C5",
"T. c #6C93CC",
"R. c #6D9BCB",
"E. c #6A94C6",
"W. c #7394C2",
"Q. c #7B95C2",
"!. c #759CC4",
"~. c #799BC2",
"^. c #7294CA",
"/. c #739CCB",
"(. c #7A9DCC",
"). c #648CD3",
"_. c #658DDC",
"`. c #6C94D3",
"'. c #6B9CD2",
"]. c #6D9BDB",
"[. c #6695D6",
"{. c #729CD3",
"}. c #719ED9",
"|. c #74A2CD",
" X c #7CA7CD",
".X c #6CA1D9",
"XX c #6EAADA",
"oX c #6FA3D5",
"OX c #74A3D3",
"+X c #74A7D9",
"@X c #73ABDA",
"#X c #79ACDC",
"$X c #77AAD4",
"%X c #79B1DA",
"&X c #6FA2CB",
"*X c #6797E3",
"=X c #658EE1",
"-X c #6CA9E5",
";X c #72ACE3",
":X c #6EB1E7",
">X c #74B5E4",
",X c #71B3ED",
"<X c #77BBE7",
"1X c #72BEF0",
"2X c #7AC3EA",
"3X c #73C5F4",
"4X c #8B8186",
"5X c #84818B",
"6X c #8C838B",
"7X c #91858A",
"8X c #858493",
"9X c #928A94",
"0X c #8585A7",
"qX c #8192AF",
"wX c #828FB0",
"eX c #8192B1",
"rX c None",
/* pixels */
"rXrXrXrXrXrXrXrXrXrXrXrXrXrXrXrXrXrXrXrXrXrXrXrXrXrXrXrXrXrXrXrXrXrXrXrXrXrXrXrXrXrXrXrXrXrXrXrXrXrXrXrXrXrXrXrXrXrXrXrX",
"rXrXrXrXrXrXrXrXrXrXrXrXrXrXrXrXrXrXrXrXrXrXrXrXrXrXrXrXrXrXrXrXrXrXrXrXrXrXrXrXrXrXrXrXrXrXrXrXrXrXrXrXrXrXrXrXrXrXrXrX",
"rXrXrXrXrXrXrXrXrXrXrXrXrXrXrXrXrXrXrXrXrXrXrXrXrXrXrXrXrXrXrXrXrXrXrXrXrXrXrXrXrXrXrXrXrXrXrXrXrXrXrXrXrXrXrXrXrXrXrXrX",
"rXrXrXrXrXrXrXrXrXrXrXrXrXrXrXrXrXrXrXrXrXrXrXrXrXrXrXrXrXrXrXrXrXrXrXrXrXrXrXrXrXrXrXrXrXrXrXrXrXrXrXrXrXrXrXrXrXrXrXrX",
"rXrXrXrXrXrXrXrXrXrXrXrXrXrXrXrXrXrXrXrXrXrXrXrXrXrXrXrXrXrXrXrXrXrXrXrXrXrXrXrXrXrXrXrXrXrXrXrXrXrXrXrXrXrXrXrXrXrXrXrX",
"rXrXrXrXrXrXrXrXrXrXrXrXrXrXrXrXrXrXrXrXrXrXrXrXrXrXrXrXrXrXrXrXrXrXrXrXrXrXrXrXrXrXrXrXrXrXrXrXrXrXrXrXrXrXrXrXrXrXrXrX",
"rXrXrXrXrXrXrXrXrXrXrXrXrXrXrXrXrXrXrXrXrXrXrXrXrXrXrXrXrXrXrXrXrXrXrXrXrXrXrXrXrXrXrXrXrXrXrXrXrXrXrXrXrXrXrXrXrXrXrXrX",
"rXrXrXrXrXrXrXrXrXrXrXrXrXrXrXrXrXrXrXrXrXrXrXrXrXrXrXrXrXrXrXrXrXrXrXrXrXrXrXrXrXrXrXrXrXrXrXrXrXrXrXrXrXrXrXrXrXrXrXrX",
"rXrXrXrXrXrXrXrXrXrXrXrXrXrXrXrXrXrXrXrXrXrXrXrXrXrXrXrXrXrXrXp f j rXrXrXrXrXrXrXrXrXrXrXrXrXrXrXrXrXrXrXrXrXrXrXrXrXrX",
"rXrXrXrXrXrXrXrXrXrXrXrXrXrXrXrXrXrXrXrXrXrXt t t i u p k b g K n h w i i p j rXrXrXrXrXrXrXrXrXrXrXrXrXrXrXrXrXrXrXrXrX",
"rXrXrXrXrXrXrXrXrXrXrXrXrXrXrXrXrXrXj 8 8 i v b s C C J D M s P C C B b h n j f p 8 u rXrXrXrXrXrXrXrXrXrXrXrXrXrXrXrXrX",
"rXrXrXrXrXrXrXrXrXrXrXrXrXrXrXrXp j j t t n n n s i V C C C a m D Z K v p Z J N s u p b p rXrXrXrXrXrXrXrXrXrXrXrXrXrXrX",
"rXrXrXrXrXrXrXrXrXrXrXf rXrXp t p v M y s l l n l q n n n v y n V C J h b F D n C r h A v t r rXrXf rXrXrXrXrXrXrXrXrXrX",
"rXrXrXrXrXrXrXrXrXrXf k f 4 r b n D D n q l l l a 7 9 q q 8 0 y y y h u l V F D s w a b J n r < p j j rXrXrXrXrXrXrXrXrX",
"rXrXrXrXrXrXrXrXrXp p j j s u D D G P ..n a y 0 8 h l v v b x V V T D v s 6 y a 0 v v u b R h w s p g t rXrXrXrXrXrXrXrX",
"rXrXrXrXrXrXrXv f t t f g C s d D J t.D l d n C m [ ;.k.V.k.V.A.k.d.$.| G V l u 8 s m v w y s m b j p p u r rXrXrXrXrXrX",
"rXrXrXrXrXrXrXr i t i g C D J C v n l d C P 8Xm.!.d.XX:XXX) d.XXb.o.@X:Xb.d.s.L v d l n 0 y J R J b g g p u rXrXrXrXrXrX",
"rXrXrXrXrXrXrX5 4 q g C R R R 6XR d P t.J j.R.3X2X%.2.K.[.4.w.).`.v.'.;.z.R.x.k.s.L n a v D K T E R b w 9 r rXrXrXrXrXrX",
"rXrXrXrXrXrXrXk p q y v C J y.t.n y.y.5Xk.Y.$.x.T.v.c.r.G.).[..X@X+X+Xb.c.$.a.Y.k.| D D s C R R E K i q j j f rXrXrXrXrX",
"rXrXrXrXrXrXB k n V D b i g D a D E a.C.j.x.J.v.M.q.w.H.,./ ! / _ ' @.#.q.b.].oXo.!.a.P n i j M n B Y K b b b rXrXrXrXrX",
"rXrXrXrXrXk k k n R R K P D i C t.a.eX~.<XE.P.#.9.^.3.( ^ Q #.f.6.7.-.' S / P.H.V.A.M.d.C J i b R R R K D D N f rXrXrXrX",
"rXrXrXrX5 k B B A R 4XR 4Xn l P  .OXN.:.J.J./ X.T.4.-.B.J.oX.X_.=X`.L.b.q.o./ 0.J.o.@X3Xa.K J v K P E R J D B V j rXrXrX",
"rXrXrXrXe e w g D C J R t.l D P F.b.W.g.J.( S c.4.3.^.m.#./ X.X.o.8.J.w.4.c.I.<.0.v.@X|.b.[ Y h b T Z n n z i w i rXrXrX",
"rXrXrXf N N f p D n p j g n t.8X<XOX9.$X1._ 1.K.q.J.=.] G F K T Y F ( z.v.+.n.T.<.K.2.;.R.j.K C y g b n P b p v j f rXrX",
"rXrXrXj k B B b F Z C A g F R qXQ.Q.}.>X-.] M.P.J.( S D D C F E E U H c B.M.+.1.K.H.v.{.,X!.P R z Y u.4XE C b V g r rXrX",
"rXrXrXk B B N g V V C V h Y E D.eXQ.#X#Xi.p.U.].3.G n v D D D Y y.F x x / .X1.( 8.P.K.T.|.|. .E b K y.t.T V h l g g p rX",
"rXrXr f N V g g z v n v i K t.~.+X}.;X}.p.@.I.-X-.] J G n l D T E Y V n c R.Y.( +.K.].5.} !.8Xy.g n K C G V y l K A j rX",
"rXrX2 4 w d 6 w h i y w y C P |.>.@.`.*Xi.p.N.>X-.u.t.P G l l Y T G D H ! K.[.( ( H.,XI.@XR...Y V h g l g s 0 l m i 9 rX",
"rXrXr i h d 2 w C D n g r V K |.~.!.L.L.n.&.7.;X0Xu.u.t.{ J V b G P P G X.).).~ ! v.<XU.F.!.u.E z Y t.K D z 6 l C V k rX",
"rXrXf b V n q 8 h N C n w n U C.,X>Xv.L.U.8.&.n. Xp.u.6Xu.4Xt.D V P P ] z.K.P.Q ! E.-Xv.wXD.t.E V t.y.t.V d 0 V N j j rX",
"rXrXg k n n r q y h n b u g A *.+Xf.=.^.e.^.8.+.M.Q.:.u.9X7X6Xu.m H } n.J.H.0.S / '.4.P.2XeXy.7XV R T t.m 0 8 g v n g rX",
"rXrXi g g g i 8 8 6 0 i l y n J A.Z.$XU.I.9.U.I.<.e.I.e.0X0Xi.i.>.#.v.0.5.L.X._ 3.W.f.B.{.u.y.F a l d l s < 6 z n V j rX",
"rXrXw t y y 8 > w s l n P l i C | <X3Xf.I.M.-.f.v.H.^.`.=X_.{.#X{.M.1.Q c.q.' 8.{.0XeX+Xl.y.P d J P C B g $ , u h g f rX",
"rXrX9 9 w y 0 , 7 F C l B M 0 n M d.E.j.(.J.^.7.p.-.9.8.z.M.n.9.-.&.=.H.0.Q M./.;X XeXD.9X6Xl l P T R Y w @ 6 u u w w rX",
"rXrXw g n b g 7 @ i P D n s q w A K a.Y.g.A.;X^.B.7.-.' _ ] &.' -.I.^.q.4.v.J.V.6.x.k.4X4Xn w l D K y.C ; ; g n b j g rX",
"rXrX< f v n n i % : h i d z V q u K C s.l.|.D.>.B.J. XOX(././.`.L.L.J.H.T.N.6.Y.d.a.J K l q J D x l D 0 @ , a z b j 4 rX",
"rXrX> t f b V a 2 * > g D K F D t i J P ..k.Z.~.W.7.^.'.`.*Xr.r.).^.v.%.%X3X].F.L x V y 8 n P K T F l % * w w u j f * rX",
"rXrX- w f g s 8 3 * + w n D Y E W p u n P L >.S.Y.+X<X3.3.:Xv.S /.:X>XZ.!.|.h.u.D a 6 0 a C F D P F < + : q w 9 w e + rX",
"rXrXrX7 w 4 q a i 3 . @ 8 C W Y K 7XB 7 q m P J  .j.m.m.V.R.R.A.!./.z.j.*.t.T P y < d F i y F T H < $ * h g g q 3 * + rX",
"rXrXrX: 8 p v M l y * + @ w k Z E Y K C a 0 q a V P R t.L ..[ [ [ { J t.J C s < 0 D K T V g y d : $ % t N Y U Z i + rXrX",
"rXrXrX> : w s M n y 0 % + * 5 U W Y T T a n n d 0 y y i l n m v x d y q 0 0 y s s G t.P J V 6 + & % 8 V T D k f > + rXrX",
"rXrXrXrX= > p k l d q : & # * 3 t U W b l t.t.t.J g D l 0 q 0 0 0 y y d m V D T D a D D a 1 & O $ * w Z Y C f 2 + X rXrX",
"rXrXrXrX% * 4 j i 7 7 y w > # - = > t j u.5Xu.6XJ n 7X4XL P v S G D S l l P T F J y 7 1 O + O & 0 g w w f N 5 @ + rXrXrX",
"rXrXrXrXrX* = , 1 7 l n v w , - = = X , s m K 4Xv m u.P P u.n m G L { D l t.P b l < O o O O ; y l V D p 2 2 = @ $ rXrXrX",
"rXrXrXrXrX= % 4 u p p v n b s 8 % - @ @ % 1 7 w q n J K R 6Xn l D m m n y 0 6 > $ + o O O 1 s n n n j j h e % @ rXrXrXrX",
"rXrXrXrXrXrX+ 8 M b p p v C l < 8 8 > # # # - * + * : < < 2 < ; % % ; : & ; $ % % & $ < w 6 l D n f p f f 8 % rXrXrXrXrX",
"rXrXrXrXrXrXrX+ 2 f k g f g 6 y l b g w , & & @   @ + + .     & & + & # O * $ O > 3 y d s s 6 y i f t q > & $ rXrXrXrXrX",
"rXrXrXrXrXrXrX  @ : w j f , r n v b n M f , 2 * & @ @ .   & + # ; % % % * , 2 ; 8 l a s n b a < 9 t 8 # . + rXrXrXrXrXrX",
"rXrXrXrXrXrXrX  # # % 4 - # 9 p k j b b w i b g p r w : 7 9 0 8 8 : 8 y i a l a 8 h i z N j i , $ 7 + O & @ rXrXrXrXrXrX",
"rXrXrXrXrXrXrXrX+ % # %     # : 4 p b p 7 B T K D C n w D D C n l 0 i b n n n b w 7 t p w 6 ; +   +   & @ rXrXrXrXrXrXrX",
"rXrXrXrXrXrXrXrXrXrX# @     + @ + # < < g B C A A A g i J K C n l s i g f n n f r 3 , * & @ &   . & X # rXrXrXrXrXrXrXrX",
"rXrXrXrXrXrXrXrXrXrXrX+ O + + + + + + & 8 9 w t g M u p B B b p h b i p r e 8 , * @ + + + & +   + X X rXrXrXrXrXrXrXrXrX",
"rXrXrXrXrXrXrXrXrXrXrXrXrXrXrX@ X # @ X % - * - * : > , < < 4 2 8 u > * * % $ + + + X + + + rXrXrXrXrXrXrXrXrXrXrXrXrXrX",
"rXrXrXrXrXrXrXrXrXrXrXrXrXrXrXrXrX+ @ X @ # # @ & # + + X   & & # - o + % % % $ + O O + rXrXrXrXrXrXrXrXrXrXrXrXrXrXrXrX",
"rXrXrXrXrXrXrXrXrXrXrXrXrXrXrXrXrXrXrXrX+ @ & & % % X @ + . X + & &   + & + + % # rXrXrXrXrXrXrXrXrXrXrXrXrXrXrXrXrXrXrX",
"rXrXrXrXrXrXrXrXrXrXrXrXrXrXrXrXrXrXrXrXrXrXrXrX* % + + @ X + & + & + + + rXrXrXrXrXrXrXrXrXrXrXrXrXrXrXrXrXrXrXrXrXrXrX",
"rXrXrXrXrXrXrXrXrXrXrXrXrXrXrXrXrXrXrXrXrXrXrXrXrXrXrXrXrXrXrXrXrXrXrXrXrXrXrXrXrXrXrXrXrXrXrXrXrXrXrXrXrXrXrXrXrXrXrXrX",
"rXrXrXrXrXrXrXrXrXrXrXrXrXrXrXrXrXrXrXrXrXrXrXrXrXrXrXrXrXrXrXrXrXrXrXrXrXrXrXrXrXrXrXrXrXrXrXrXrXrXrXrXrXrXrXrXrXrXrXrX",
"rXrXrXrXrXrXrXrXrXrXrXrXrXrXrXrXrXrXrXrXrXrXrXrXrXrXrXrXrXrXrXrXrXrXrXrXrXrXrXrXrXrXrXrXrXrXrXrXrXrXrXrXrXrXrXrXrXrXrXrX",
"rXrXrXrXrXrXrXrXrXrXrXrXrXrXrXrXrXrXrXrXrXrXrXrXrXrXrXrXrXrXrXrXrXrXrXrXrXrXrXrXrXrXrXrXrXrXrXrXrXrXrXrXrXrXrXrXrXrXrXrX"
};
