/* XPM */
static char *result[] = {
/* columns rows colors chars-per-pixel */
"60 60 59 1 ",
"  c #1E1C1D",
". c #211F1E",
"X c #22201F",
"o c #211F20",
"O c #252323",
"+ c #292626",
"@ c #2C2926",
"# c #292728",
"$ c #2D2B2A",
"% c #302B26",
"& c #312E2D",
"* c #33302E",
"= c #3A342D",
"- c #312F30",
"; c #363332",
": c #3A3634",
"> c #3C3936",
", c #3E3B39",
"< c #423D36",
"1 c #423E3B",
"2 c #45413E",
"3 c #49433E",
"4 c #574C3F",
"5 c #464341",
"6 c #4A4642",
"7 c #4D4945",
"8 c #4E4B49",
"9 c #514C46",
"0 c #524E4A",
"q c #56514D",
"w c #59544E",
"e c #575351",
"r c #5B5651",
"t c #5E5954",
"y c #5E5B59",
"u c #60574E",
"i c #625B55",
"p c #685F56",
"a c #635E59",
"s c #685F58",
"d c #66615C",
"f c #6A635D",
"g c #70675F",
"h c #74695D",
"j c #666260",
"k c #6B6561",
"l c #6E6863",
"z c #6C6969",
"x c #706760",
"c c #726B64",
"v c #786E62",
"b c #746E69",
"n c #7A7166",
"m c #76706C",
"M c #7A736D",
"N c #7B7571",
"B c #7E7873",
"V c #827A75",
"C c None",
/* pixels */
"CCCCCCCCCCCCCCCCCCCCCCCCCCCCCCCCCCCCCCCCCCCCCCCCCCCCCCCCCCCC",
"CCCCCCCCCCCCCCCCCCCCCCCCCCCCCCCCCCCCCCCCCCCCCCCCCCCCCCCCCCCC",
"CCCCCCCCCCCCCCCCCCCCCCCCCCCCCCCCCCCCCCCCCCCCCCCCCCCCCCCCCCCC",
"CCCCCCCCCCCCCCCCCCCCCCCCCCCCCCCCCCCCCCCCCCCCCCCCCCCCCCCCCCCC",
"CCCCCCCCCCCCCCCCCCCCCCCCCCCCCCCCCCCCCCCCCCCCCCCCCCCCCCCCCCCC",
"CCCCCCCCCCCCCCCCCCCCCCCCCCCCCCCCCCCCCCCCCCCCCCCCCCCCCCCCCCCC",
"CCCCCCCCCCCCCCCCCCCCCCCCCCCCCCCCCCCCCCCCCCCCCCCCCCCCCCCCCCCC",
"CCCCCCCCCCCCCCCCCCCCCrrqw8waralaw7tttdCCCCCCCCCCCCCCCCCCCCCC",
"CCCCCCCCCCCCCCCCCC37wdtwfiddwrfdwuwwdpdq7CCCCCCCCCCCCCCCCCCC",
"CCCCCCCCCCCCCCCadd77itt7wtidw9iddd9wfdi38tjeCCCCCCCCCCCCCCCC",
"CCCCCCCCCCaCCrqrit3qqwt73irrq6ridd6tdiid6tktq0CCCCCCCCCCCCCC",
"CCCCCCCCCadr1taydd03qqw6>321>263707tpdi367ddt81tddCCCCCCCCCC",
"CCCCCCCarida00jajlke76,2qwwwrwidhtr6,865rq6dl60yateCCCCCCCCC",
"CCCCCCdiwrtta6qdjla08ttrrwq70799wwtte011rd036qyyytreCCCCCCCC",
"CCCCCCqrwwwaafrry88ygft99323t94qw339wdd06te,9lhdtttt0CCCCCCC",
"CCCCC;550wdcxcMd0czaw729d977wq3q9wr77wtjje8ydfhclq888CCCCCCC",
"CCCCCdd917tdlmltMcjr7rq0r977333949qtdw9wajt0fhcva67saCCCCCCC",
"CCCCCliiadq7wd0fcyrd90riy97qridhgdwqw3qrrajq7tdwaxaasjCCCCCC",
"CCCChdticlflt7kliiq707dgrwyirdddhhdiw7tqrqrdt3dcxvjakkaCCCCC",
"CCCwffifnnlm0tldqga7qir9fbd92344wrwwtyqqr67alttfxcxjsfzaCCCC",
"CCCq34wfylndqdkqwydwdt9tdyrwqduuuwiiqyyet37wff7dkfii09qrCCCC",
"CCdht4wde9r0dnl6tkqdftqrrfgddgghdrquka0rqiiqdlw7ruix00tsCCCC",
"CCdfpwtdpdd9fcadtqtlbtqqdddipfhhpiiqjzerqr66dffqcMbcttar0CCC",
"CCfdpwuititqvcwdl9dMbtwfiqrdudlharwq0jjyqw37whcwcbckr0eraCCC",
"Ctddrqwwtt0qclw4i9iMlqtmfdytedllfirq3rkj0iksqvx9sfskr6ibcyCC",
"C2366,9966<0fdwpdwiNBwwmbzdy0rggditt6ejdwri0wfx0q00066ia08CC",
"Cqwq6=qfaw03dfwuwrtknlwMmmkzywrdffdt60ya9wrrugcwcxja81rafaCC",
"Cddtw33waiq6dfw39titfctlNNbbbltdfljq80rr28asacximMli68iiaaCC",
"Cddtw666ryw3tft0rdpfrfdtlbNNMmlrdkirqrar6060xMxabxcr>60tdyCC",
"Cttqq75>>30q3pdwtwdkftddttfNVBmdr0wdwafwiiiwbbtq00r7-6wajaCC",
"C0q66,:64eac3wdt33kikbfyttqwrrrrtr08alaimdqfma9ksas1+17wyrCC",
"C85622;8dtwdw3ytqetttdmmldirwrdbca90ryw9aadVb6alxgs:+16798CC",
"Craar0:%rfir819sftqdwqtgbblgbbllfitwq7twqtmn08tdxbq#:riisrCC",
"C6aitr2+1w88rw>rkdtyqygrtrwrrewrtrwtdt30tdf86ftres:#<0rsi:CC",
"C1itit8:$>rafdi3ezztqdttke078888qtk73eqqyt12ifllk6o;61qs0#CC",
"C:rtr81;@%0tdhhp6qdldrqr07je5ej66qd00dly7:1qdddls&+:161w1oCC",
"C>861676*X%7fhhcv9,qdzddrwee70e80eykzba2:wa19fkt:o:wr02<$CCC",
"CC:0riyq3@X&quhngfr316qdzzfdjyjjjkzjy8:6affy988$#&wsxxx6OCCC",
"CC;,ryaq31@X%4hhlld0yq6277qeyyee8851120qllkky$O#-6sxksu-OCCC",
"CC*$2aaq81&X%=2uhlwtzlcywy71611555eyyfzqqja6-oO#&0kxxu;.CCCC",
"CCC&*8d7,165$$*@<4imlmmtaBbjjqajay0tkkks11$oOo-7819ss<++CCCC",
"CCCC$&>:6tte5;*%%@3ydlc8kbkkbqyjkjtibsiw& ooO;8raa811##CCCCC",
"CCCC@$6errttwq>@&X#&>576kjzbN0ejyar551-#oooo,ettiaar1#+CCCCC",
"CCCCC$eldttdd8;32&@#$;$+-:,11------$-o$#O$121taiiiai1#CCCCCC",
"CCCCCC$8ddydq:8wt06-O+O #o+.  #Oo##o-o#;158q72eetr6-+CCCCCCC",
"CCCCCCX@,tdq>tarrii7::$O#ooo#o$-$$--::$908qiy8,0r1ooOCCCCCCC",
"CCCCCC $$-2#;qyytir10wq971;15111&6608q510qjkae--,oO++CCCCCCC",
"CCCCCCC+@$+ O&>7af76xxfssq0saai0>reriii17wr8,-oooo+#CCCCCCCC",
"CCCCCCCC@@O X+++&61kcccck9rkkdtr6rrajsi7::&+#O + O$CCCCCCCCC",
"CCCCCCCCC@O OOOOO *980idk7akxaraaqr085<&+O+O#oo+.CCCCCCCCCCC",
"CCCCCCCCCCCCCCOO+OO&;$;$,:1155500----ooo.OOOOCCCCCCCCCCCCCCC",
"CCCCCCCCCCCCCCCC+O.+##+++.O o#O-$ #$#&#o OOCCCCCCCCCCCCCCCCC",
"CCCCCCCCCCCCCCCCCCC+++#$$ @O oO+OoOOo$$CCCCCCCCCCCCCCCCCCCCC",
"CCCCCCCCCCCCCCCCCCCCCCC$$OOOOOOO+o++CCCCCCCCCCCCCCCCCCCCCCCC",
"CCCCCCCCCCCCCCCCCCCCCCCCCCCCCCCCCCCCCCCCCCCCCCCCCCCCCCCCCCCC",
"CCCCCCCCCCCCCCCCCCCCCCCCCCCCCCCCCCCCCCCCCCCCCCCCCCCCCCCCCCCC",
"CCCCCCCCCCCCCCCCCCCCCCCCCCCCCCCCCCCCCCCCCCCCCCCCCCCCCCCCCCCC",
"CCCCCCCCCCCCCCCCCCCCCCCCCCCCCCCCCCCCCCCCCCCCCCCCCCCCCCCCCCCC",
"CCCCCCCCCCCCCCCCCCCCCCCCCCCCCCCCCCCCCCCCCCCCCCCCCCCCCCCCCCCC",
"CCCCCCCCCCCCCCCCCCCCCCCCCCCCCCCCCCCCCCCCCCCCCCCCCCCCCCCCCCCC"
};
