/* XPM */
static char *result[] = {
/* columns rows colors chars-per-pixel */
"60 60 199 2 ",
"   c #1F1117",
".  c #1F1318",
"X  c #1D0F16",
"o  c #23151B",
"O  c #28161D",
"+  c #26191E",
"@  c #2E181D",
"#  c #31171E",
"$  c #33191E",
"%  c #261720",
"&  c #2D1721",
"*  c #271821",
"=  c #2B1B24",
"-  c #2E1D2A",
";  c #341A24",
":  c #3C1C22",
">  c #341D2B",
",  c #3A1C2A",
"<  c #2E2126",
"1  c #31242B",
"2  c #3C242B",
"3  c #342A2D",
"4  c #392B2F",
"5  c #302227",
"6  c #352334",
"7  c #3B2336",
"8  c #3C2D32",
"9  c #372539",
"0  c #39263A",
"q  c #3C2A3B",
"w  c #372B30",
"e  c #4B1C26",
"r  c #401E28",
"t  c #431F31",
"y  c #551E2A",
"u  c #442124",
"i  c #4D2326",
"p  c #4A282C",
"a  c #5A262A",
"s  c #562629",
"d  c #462033",
"f  c #4A2237",
"g  c #45263B",
"h  c #4D243B",
"j  c #44293E",
"k  c #4D2B3C",
"l  c #562633",
"z  c #52243B",
"x  c #5A263E",
"c  c #512D3D",
"v  c #45333D",
"b  c #49363D",
"n  c #45393E",
"m  c #4C393F",
"M  c #413236",
"N  c #6C2D2E",
"B  c #642A30",
"V  c #632D3D",
"C  c #722F30",
"Z  c #6F3233",
"A  c #613739",
"S  c #7D383F",
"D  c #743131",
"F  c #3F2E40",
"G  c #4C2942",
"H  c #5A2740",
"J  c #542A45",
"K  c #5D2944",
"L  c #5E2C49",
"P  c #572740",
"I  c #483744",
"U  c #4D3C40",
"Y  c #4A3D49",
"T  c #443745",
"R  c #523D41",
"E  c #5C3E41",
"W  c #523241",
"Q  c #612945",
"!  c #642C4B",
"~  c #6C2D4D",
"^  c #692A46",
"/  c #732D4B",
"(  c #7B2B46",
")  c #6F3640",
"_  c #643F42",
"`  c #6E3848",
"'  c #7A3841",
"]  c #743F43",
"[  c #722F51",
"{  c #753053",
"}  c #7B3253",
"|  c #7E3B53",
" . c #4E4243",
".. c #4F4B4C",
"X. c #4F474F",
"o. c #524345",
"O. c #554A49",
"+. c #544C52",
"@. c #574751",
"#. c #565254",
"$. c #5C5A5A",
"%. c #5A5455",
"&. c #6C4042",
"*. c #734144",
"=. c #794344",
"-. c #64575B",
";. c #6B615E",
":. c #666464",
">. c #6B6464",
",. c #6C6967",
"<. c #736965",
"1. c #79716D",
"2. c #7E7977",
"3. c #757471",
"4. c #9B2B3F",
"5. c #8A3837",
"6. c #873738",
"7. c #8A3C3D",
"8. c #883838",
"9. c #953B3A",
"0. c #993D3B",
"q. c #882739",
"w. c #A9423F",
"e. c #A7423F",
"r. c #8A2E4B",
"t. c #992F49",
"y. c #972E47",
"u. c #883948",
"i. c #8A3A47",
"p. c #92304F",
"a. c #9C324E",
"s. c #843252",
"d. c #8C3151",
"f. c #823B53",
"g. c #943950",
"h. c #973850",
"j. c #A72E46",
"k. c #AA2D43",
"l. c #A82F48",
"z. c #A2314D",
"x. c #AB314C",
"c. c #AC3D4D",
"v. c #A93044",
"b. c #B5334A",
"n. c #BD3149",
"m. c #B2394B",
"M. c #BA3E48",
"N. c #A03E50",
"B. c #C03349",
"V. c #844444",
"C. c #8A4545",
"Z. c #8A454C",
"A. c #944444",
"S. c #9B4846",
"D. c #984347",
"F. c #854453",
"G. c #8B4B53",
"H. c #8D4252",
"J. c #934D52",
"K. c #974651",
"L. c #925053",
"P. c #A34242",
"I. c #A94545",
"U. c #A34947",
"Y. c #AA4B48",
"T. c #AB464C",
"R. c #B14642",
"E. c #BB4A45",
"W. c #B3464E",
"Q. c #B44C49",
"!. c #BC4D49",
"~. c #B64844",
"^. c #A04650",
"/. c #857E79",
"(. c #847B74",
"). c #C24B46",
"_. c #C44D49",
"`. c #CA4E4A",
"'. c #C7434B",
"]. c #CD504B",
"[. c #D4514B",
"{. c #D8524B",
"}. c #89837D",
"|. c #8F8D86",
" X c #948B83",
".X c #9C988F",
"XX c #9E958C",
"oX c #A39A90",
"OX c #AEA59A",
"+X c #B2AB9F",
"@X c #BBB3A6",
"#X c #B3ACA0",
"$X c #C3BAAD",
"%X c #C7C1B3",
"&X c #CAC3B6",
"*X c #D1CABA",
"=X c #DDD7C6",
"-X c #EAE4D1",
";X c None",
/* pixels */
";X;X;X;X;X;X;X;X;X;X;X;X;X;X;X;X;X;X;X;X;X;X;X;X;X;X;X;X;X;X;X;X;X;X;X;X;X;X;X;X;X;X;X;X;X;X;X;X;X;X;X;X;X;X;X;X;X;X;X;X",
";X;X;X;X;X;X;X;X;X;X;X;X;X;X;X;X;X;X;X;X;X;X;X;X;X;X;X;X;X;X;X;X;X;X;X;X;X;X;X;X;X;X;X;X;X;X;X;X;X;X;X;X;X;X;X;X;X;X;X;X",
";X;X;X;X;X;X;X;X;X;X;X;X;X;X;X;X;X;X;Xo o ;X;X;X;X;X;X;X;X;X;X;X;X;X;X;X;X;X;X  . ;X;X;X;X;X;X;X;X;X;X;X;X;X;X;X;X;X;X;X",
";X;X;X;X;X;X;X;X;X;X;X;X;X;X;X;X;X;X;Xo. .;X;X;X;X;X;X;X;X;X;X;X;X;X;X;X;X;X3 O. .;X;X;X;X;X;X;X;X;X;X;X;X;X;X;X;X;X;X;X",
";X;X;X;X;X;X;X;X;X;X;X;X;X;X;X;X;Xo 8 *XOX+ . ;Xo o ;X;X;X;X;X;X;X;X  ;X;X. 8 *XOX@ o ;X;X;X;X;X;X;X;X;X;X;X;X;X;X;X;X;X",
";X;X;X;X;X;X;X;X;X;X;X;X;X;X;X;X;X. 1 .X}.+ + + -.1.O.;X;X;X;X;X;XO.1.O.+ . 1 .X}.+ o ;X;X;X;X;X;X;X;X;X;X;X;X;X;X;X;X;X",
";X;X;X;X;X;X;X;X;X;X;X;X;X;X;X;X;Xo < $...+ o o XX-X<.. ;X;X;X;X  <.-X>.. o = #...o + ;X;X;X;X;X;X;X;X;X;X;X;X;X;X;X;X;X",
";X;X;X;X;X;X;X;X;X;X;X;Xo ;X;X;X= }. Xn 5 . + 1 >.|.+.1 * o o * > +.|.+.- + + 3 ..oX}.= ;X;X;Xo ;X;X;X;X;X;X;X;X;X;X;X;X",
";X;X;X;X;X;X;X;X;X;X;X;X5 5 ;Xo = +X%X1 . o - 0 X.$. .0 = o + = 9 Y $.Y 9 * o   O.=X+X< o ;X1 5 ;X;X;X;X;X;X;X;X;X;X;X;X",
";X;X;X;X;X;X;X;X;X;Xo  .$X/.o - 0 :.,.< % 6 9 0 I o.U n I n b n n  . .v 9 9 6 o 3 3.:.9 - o }.$X .o ;X;X;X;X;X;X;X;X;X;X",
";X;X;X;X;X;X;X;X;X;X   .%X/.O 6 M +.+.5 - 0 q q b m &.&.m M M m &.&.U G 0 0 0 = 3 #.+.q 6 o (.%X .o ;X;X;X;X;X;X;X;X;X;X",
";X;X;X;X;X;X;X;X;X;X  < :.+.0 v U q q b v 0 v U m m A.].i o o i ].A.I U U q q b v q j m v 0 @.:.<   ;X;X;X;X;X;X;X;X;X;X",
";X;X;X;X;X;X;X;X;X3 >.>.%. .0 v U j q b b q q U *.V.i.8.a t t l 5.7.V._ U q q U I 0 q m I 0 Y %.;.;.3 ;X;X;X;X;X;X;X;X;X",
";X;X;X;X;X;X;X;Xo 4 *X@Xo.v 0 v U q q m b q v U U.{.N . Q } [ Q o N {.V.b q q m b q q m v 0 v o.@X*Xw . ;X;X;X;X;X;X;X;X",
";X;X;X;X;X;Xo o o < }.2.v j v m m C.C.m m v &.U.C.V.p o g J J g o p V.A.S.E v U A S.C.m b v j T /.|.= . o ;X;X;X;X;X;X;X",
";X;X;X;X;X;X< = o = #.#.0 v o.R m Q.].&.R m C.{.V.U 2 o > 9 6 6 o 3 R U.{.&.R o.=.{.!.m R R v 0 #.#.= + < < ;X;X;X;X;X;X",
";X;X;X;X;X= XXOXj 9  .U F Z !.*.E Q.[.!.S.m C.{._.Q.i.Q , % % , ! i.!.`.`.&.E Q._.[.!.m =.Q.Z 9 U R 6 @.@X1.o ;X;X;X;X;X",
";X;X;X;Xo = @X&XI 0 U b 9 ' {.V.m Q.].{.Q. .V.{.{.{.^.} , o o , [ N.{.[.[.&.o.`.[.`.Q.m V.{.' F I m 0 -.=X X. ;X;X;X;X;X",
";X;X;X;Xo + >.3.F 0 U b 9 ' {.Z = : a `.Q.m C.[.[.[.E.x./ ! Q / x.M.[.{.[.&.E ].R.i r @ Z [.' 9 b b 0 Y 2.#.o ;X;X;X;X;X",
";X;X;X;Xo + ..%.q q m m G ' E.B & @ r w.P.&.C.!.].[.B.B.p.s.s.h.B.'.[._.Q.=.&.R.9.& = @ B E.' c m U 9 T $.n o ;X;X;X;X;X",
";X;X;X;Xo + b U 0 q I &.].8.@ z / [ ^ ; a `.S.o.I.{.{.[.[.].[.].[.[.[.C.A Q.~.: , ~ [ [ z @ 8.`.&.n q j R 8 o ;X;X;X;X;X",
";X;X;X;X;X+ 3 8 0 j *.V.Y.D . f L ! J % u U.A.=.D.W.P.0.0.0.0.0.0.P.W.A.=.U.A.; ; Q L ! d o Z Y.C.*.q 0 8 3 o ;X;X;X;X;X",
";X;X;X;X;X;X. + 6 k _.Q.m 4 o 6 0 0 9 o - m C.{.h.} t o o o o o . d { W.[.&.v o * 0 0 9 > o 2 U Q.).k 6 o + ;X;X;X;X;X;X",
";X;X;X;X;X;Xo + 9 k _._.D.' z , = - > f V A.7.D l d f f z f z h z f d B D C.C.x g - - - 6 z ' S._.).k 1 o + ;X;X;X;X;X;X",
";X;X;X;X;X;Xo + 7 c !.[.{.W.} t o o & ~ g.[.q.o o o z } { { { { } z o o O v.`.s.Q % o o t } T.{.[.!.c 6 o o ;X;X;X;X;X;X",
";X;X;X;X;X;Xo ; P.I.*.C.[.'.l.( K Q ^ l.r.i l ! Q Q ~ } { { { { { ~ K Q K l a l.t.Q Q Q ( x.'.[.C.*.Y.5.O o ;X;X;X;X;X;X",
";X;X;X;X;X;Xo $ R.Q.A ] ~.M.k.r.{ } s.k.q.@ t } [ { { [ { { { { { { { { [ , , 4.t.s.s.[ r.k.M.~.*.&.Q.0.@ ;X;X;X;X;X;X;X",
";X;X;X;X;X;X;X;X$ u !.P.; $ @ x } x.j.: r ~ [ { } [ { { { { { { { { { { [ ~ ^ ; y b.l.{ K # ; : P.E.r $ ;X;X;X;X;X;X;X;X",
";X;X;X;X;X;X;X;Xs a 0.6., , , t Q k.k.# , [ [ { { { { { { { { { { { { { { { ~ % e n.j.K h , , , 5.0.a s ;X;X;X;X;X;X;X;X",
";X;X;X;X;X;Xo r ).).: , { { } t O y.k.# , [ [ [ { { { { { { { { { { { { { } ^ % e n.4.O t [ [ [ , $ !.w.O o ;X;X;X;X;X;X",
";X;X;X;X;X;Xo $ ).).; & K J K > O 4.k.& , [ { { { { { { { { { { { { { { { { ^ % e n.4.o 2 J L J ; $ ).w.O o ;X;X;X;X;X;X",
";X;X;X;X;X;XO $ ).E.; % 9 F 0 & O 4.k.# , [ { { { { { { { { { { { { { { { { ^ O e n.4.O = 9 9 6 = $ ).w.o o ;X;X;X;X;X;X",
";X;X;X;X;X;Xo = *.*.Q h = = = d Q l.k.# & G L [ { { { { { { { { { { { { [ J g % e n.l.Q t & & - h Q *.A o o ;X;X;X;X;X;X",
";X;X;X;X;X;Xo @ b m { Q o o o z } l.k.; % 9 J [ { { { { { { [ { { { { { [ g 9 % e n.x.} H   X % Q { R M o o ;X;X;X;X;X;X",
";X;X;X;X;X;X;X;X< 2 t.y.H H H r.l.n.b.^ t - 6 G G G G G G G G G G G G G G - ; z ^ n.b.l.r.K K K t.t.2 < ;X;X;X;X;X;X;X;X",
";X;X;X;X;X;X;X;Xo $ k.x.s.} { z.n.n.b.s.^ & ; 9 9 9 9 0 9 0 0 9 9 9 9 9 9 & ; [ p.n.n.B.z.{ { } x.v.# . ;X;X;X;X;X;X;X;X",
";X;X;X;X;X;X;X;X. ; Z.^.b.t.[ z.n.n.n.b.z.~ f o o o 6 0 0 0 F 9 0 > o % % P / l.b.n.n.B.z.[ a.x.^.Z.; o ;X;X;X;X;X;X;X;X",
";X;X;X;X;X;X;X;Xo = ] Z.m.h.[ z.n.n.n.B.l.[ H , , , > 6 6 6 > 9 9 > ; , , ! } n.B.n.n.n.z.[ a.b.Z.&.@ . ;X;X;X;X;X;X;X;X",
";X;X;X;X;X;X;X;Xo o 9 I J.F.{ z.n.n.n.n.x.{ [ [ ~ [ t     o o o X t { [ ~ { } b.n.n.n.B.z.{ f.J.W 0 % o ;X;X;X;X;X;X;X;X",
";X;X;X;X;X;X;X;Xo o 9 G F.| { g.c.n.n.B.x.{ s.p.s.[ H t t t t t t H { s.p.} s.b.n.n.b.c.g.{ f.f.G 9 o o ;X;X;X;X;X;X;X;X",
";X;X;X;X;X;X;X;Xo o 9 G [ [ [ F.L.m.n.n.x.[ a.n.d.{ { { { { { { { { { z.n.s.} b.n.B.m.L.F.[ { [ G 6 % . ;X;X;X;X;X;X;X;X",
";X;X;X;X;X;X;X;Xo % 6 q G Q { } f.K.T.n.x.{ p.B.p.{ p.z.x.z.z.z.z.d.{ z.n.s.s.b.b.N.K.| | [ L G j 6 o o ;X;X;X;X;X;X;X;X",
";X;X;X;X;X;X;X;Xo o 6 9 9 J } [ [ F.J.m.x.{ p.B.d.[ z.n.n.B.B.B.B.z.[ z.n.s.} b.m.L.F.[ [ { J 9 9 6 o o ;X;X;X;X;X;X;X;X",
";X;X;X;X;X;X;X;Xo o % - 9 J } J j { f.K.H.{ f.J.s.[ z.B.n.n.B.B.B.a.[ H.K.} { K.H.| [ G J { J 0 - o o o ;X;X;X;X;X;X;X;X",
";X;X;X;X;X;X;X;Xo o o % 9 G ! J g K ~ F.F.{ | G.f.{ h.b.m.b.m.m.b.a.{ F.G.} { G.F.! L G J ~ G 6 % o o o ;X;X;X;X;X;X;X;X",
";X;X;X;X;X;X;X;X;X;Xo o o - q L [ , = ~ } { [ } { { F.J.L.J.L.J.J.F.[ { } [ { } K % ; ~ L F - o o o ;X;X;X;X;X;X;X;X;X;X",
";X;X;X;X;X;X;X;X;X;Xo o . - > G L & & ~ ~ J J L [ { f.F.F.F.F.F.F.| { ~ L P H [ K o ; L G > * o o o ;X;X;X;X;X;X;X;X;X;X",
";X;X;X;X;X;X;X;X;X;X;X;X;X;X. > 0 * & ~ Q o - 9 L } { { { [ } [ { { { J 0 % & ~ Q o * 9 - o ;X;X;X;X;X;X;X;X;X;X;X;X;X;X",
";X;X;X;X;X;X;X;X;X;X;X;X;X;Xo 1 9 * & / K o - 0 7 t Q { z t t z { Q t 7 0 * & ~ Q o % 0 > o ;X;X;X;X;X;X;X;X;X;X;X;X;X;X",
";X;X;X;X;X;X;X;X;X;X;X;X;X;Xo - 0 % & ~ K o - 0 = . z [ ; o . ; { z . 1 0 % & [ Q o * 0 - o ;X;X;X;X;X;X;X;X;X;X;X;X;X;X",
";X;X;X;X;X;X;X;X;X;X;X;X;X;X;X= - o & ~ Q o % - o o h { , o . , { z o * - o & ~ Q o o = = ;X;X;X;X;X;X;X;X;X;X;X;X;X;X;X",
";X;X;X;X;X;X;X;X;X;X;X;X;X;X;Xo o o & ~ K o o o o o z { , . o ; { h . o o o & ~ K o o o o ;X;X;X;X;X;X;X;X;X;X;X;X;X;X;X",
";X;X;X;X;X;X;X;X;X;X;X;X;X;X;X;X;Xo % j 7 o o ;Xo . z { ; o . , [ z o o ;Xo o j 7 o o ;X;X;X;X;X;X;X;X;X;X;X;X;X;X;X;X;X",
";X;X;X;X;X;X;X;X;X;X;X;X;X;X;X;X;Xo o 6 > o o ;Xo o h ~ ; . o ; ~ h o ;X;Xo o 0 6 o o ;X;X;X;X;X;X;X;X;X;X;X;X;X;X;X;X;X",
";X;X;X;X;X;X;X;X;X;X;X;X;X;X;X;X;Xo % 9 6 o o ;Xo o > q = o o = q > o ;X;Xo o 0 6 o o ;X;X;X;X;X;X;X;X;X;X;X;X;X;X;X;X;X",
";X;X;X;X;X;X;X;X;X;X;X;X;X;X;X;X;X;X* > - o ;X;X;Xo - > * o o * 6 - o ;X;Xo * > - o ;X;X;X;X;X;X;X;X;X;X;X;X;X;X;X;X;X;X",
";X;X;X;X;X;X;X;X;X;X;X;X;X;X;X;X;X;X;Xo o ;X;X;X;X;Xo o ;X;X;X;Xo o ;X;X;X;X;Xo o ;X;X;X;X;X;X;X;X;X;X;X;X;X;X;X;X;X;X;X",
";X;X;X;X;X;X;X;X;X;X;X;X;X;X;X;X;X;X;X;X;X;X;X;X;X;X;X;X;X;X;X;Xo ;X;X;X;X;X;X;X;X;X;X;X;X;X;X;X;X;X;X;X;X;X;X;X;X;X;X;X",
";X;X;X;X;X;X;X;X;X;X;X;X;X;X;X;X;X;X;X;X;X;X;X;X;X;X;X;X;X;X;X;X;X;X;X;X;X;X;X;X;X;X;X;X;X;X;X;X;X;X;X;X;X;X;X;X;X;X;X;X",
";X;X;X;X;X;X;X;X;X;X;X;X;X;X;X;X;X;X;X;X;X;X;X;X;X;X;X;X;X;X;X;X;X;X;X;X;X;X;X;X;X;X;X;X;X;X;X;X;X;X;X;X;X;X;X;X;X;X;X;X"
};
