/* XPM */
static char *result[] = {
/* columns rows colors chars-per-pixel */
"60 60 223 2 ",
"   c #1F1117",
".  c #1E1218",
"X  c #22141A",
"o  c #2A151C",
"O  c #26191D",
"+  c #2A1D1F",
"@  c #34191E",
"#  c #2C231D",
"$  c #261720",
"%  c #2C1521",
"&  c #271921",
"*  c #2A1B24",
"=  c #2E1D2A",
"-  c #331A25",
";  c #3C1D23",
":  c #331D2B",
">  c #3D1C2C",
",  c #301724",
"<  c #3F1F30",
"1  c #2D2323",
"2  c #33242B",
"3  c #352B2D",
"4  c #362A27",
"5  c #3A3625",
"6  c #352334",
"7  c #3B2D31",
"8  c #362539",
"9  c #39263A",
"0  c #3D2A3B",
"q  c #3B2233",
"w  c #3C3333",
"e  c #431E29",
"r  c #441F32",
"t  c #581E2A",
"y  c #462328",
"u  c #58242A",
"i  c #433B2A",
"p  c #452133",
"a  c #4B2236",
"s  c #422C3C",
"d  c #492B39",
"f  c #55253D",
"g  c #572A3B",
"h  c #423336",
"j  c #45333D",
"k  c #49363E",
"l  c #453A3B",
"z  c #4B3A3F",
"x  c #4E3034",
"c  c #59353A",
"v  c #66262E",
"b  c #6D2733",
"n  c #712F30",
"m  c #752537",
"M  c #65353B",
"N  c #7C3333",
"B  c #783737",
"V  c #6C2F2F",
"C  c #44442B",
"Z  c #4A482A",
"A  c #55542C",
"S  c #44443B",
"D  c #484838",
"F  c #555C34",
"G  c #535635",
"H  c #524533",
"J  c #684733",
"K  c #764034",
"L  c #636B39",
"P  c #69763B",
"I  c #4B2A41",
"U  c #522A44",
"Y  c #5C2A44",
"T  c #5C2A46",
"R  c #4D3C40",
"E  c #473944",
"W  c #533D40",
"Q  c #5C3E41",
"!  c #533342",
"~  c #632946",
"^  c #6A2D4D",
"/  c #682C49",
"(  c #752D4C",
")  c #643D44",
"_  c #6E3541",
"`  c #763946",
"'  c #6E2F50",
"]  c #722F52",
"[  c #753053",
"{  c #7A3253",
"}  c #7D3A53",
"|  c #743850",
" . c #4D4142",
".. c #4D444C",
"X. c #544B4C",
"o. c #54474A",
"O. c #4F5446",
"+. c #524B51",
"@. c #5B5353",
"#. c #5C5A5B",
"$. c #585557",
"%. c #545A4B",
"&. c #664042",
"*. c #6B4143",
"=. c #744143",
"-. c #7D4344",
";. c #615555",
":. c #5C6553",
">. c #5A6245",
",. c #636F56",
"<. c #6D635F",
"1. c #6D7757",
"2. c #687556",
"3. c #636F4B",
"4. c #696665",
"5. c #736A65",
"6. c #7B726D",
"7. c #797572",
"8. c #90293B",
"9. c #8A3A39",
"0. c #943C3A",
"q. c #9D3D3C",
"w. c #99373C",
"e. c #8F283A",
"r. c #A23F3D",
"t. c #98403E",
"y. c #88403F",
"u. c #A6413E",
"i. c #8A2D48",
"p. c #8E304F",
"a. c #8D3A44",
"s. c #94304F",
"d. c #9A344E",
"f. c #843152",
"g. c #8B3250",
"h. c #813D53",
"j. c #883F52",
"k. c #943750",
"l. c #972E47",
"z. c #A12C41",
"x. c #A3324D",
"c. c #AC324B",
"v. c #AC3D4D",
"b. c #A23E4B",
"n. c #B2334B",
"m. c #BD3149",
"M. c #B23B4C",
"N. c #A63A4D",
"B. c #C1324A",
"V. c #C63C4A",
"C. c #844444",
"Z. c #8C4645",
"A. c #954646",
"S. c #9C4947",
"D. c #9C4347",
"F. c #854353",
"G. c #8C4C52",
"H. c #8A4553",
"J. c #984A51",
"K. c #915053",
"L. c #8F5053",
"P. c #A44A47",
"I. c #A94648",
"U. c #B54C48",
"Y. c #BB4C49",
"T. c #B84748",
"R. c #A04650",
"E. c #857B76",
"W. c #CC4D4A",
"Q. c #C74A49",
"!. c #CD504A",
"~. c #D4514B",
"^. c #DA534C",
"/. c #7B8137",
"(. c #748747",
"). c #758856",
"_. c #7C924E",
"`. c #8C9437",
"'. c #8E9738",
"]. c #8B953B",
"[. c #95A13A",
"{. c #A0AF3F",
"}. c #829A49",
"|. c #849A56",
" X c #86A14E",
".X c #8AA44F",
"XX c #8CA84F",
"oX c #99A142",
"OX c #98AE49",
"+X c #8DA754",
"@X c #93AB54",
"#X c #9AB754",
"$X c #A4AC4B",
"%X c #A8B546",
"&X c #A6AE5D",
"*X c #ADB553",
"=X c #A9BC58",
"-X c #B8BE5B",
";X c #89847D",
":X c #B4BB60",
">X c #B3C748",
",X c #A4C556",
"<X c #ABC45A",
"1X c #ACC951",
"2X c #BCC35F",
"3X c #B2C659",
"4X c #B6D150",
"5X c #BEC461",
"6X c #CBE852",
"7X c #D6F454",
"8X c #CCE851",
"9X c #9B928A",
"0X c #908984",
"qX c #A59E95",
"wX c #AAA399",
"eX c #B3A99F",
"rX c #B7B3A6",
"tX c #C3BBAE",
"yX c #CBC5B6",
"uX c #D5D0BF",
"iX c #DCD6C5",
"pX c #E7E2CF",
"aX c None",
/* pixels */
"aXaXaXaXaXaXaXaXaXaXaXaXaXaXaXaXaXaXaXaXaXaXaXaXaXaXaXaXaXaXaXaXaXaXaXaXaXaXaXaXaXaXaXaXaXaXaXaXaXaXaXaXaXaXaXaXaXaXaXaX",
"aXaXaXaXaXaXaXaXaXaXaXaXaXaXaXaXaXaXaXaXaXaXaXaXaXaXaXaXaXaXaXaXaXaXaXaXaXaXaXaXaXaXaXaXaXaXaXaXaXaXaXaXaXaXaXaXaXaXaXaX",
"aXaXaXaXaXaXaXaXaXaXaXaXaXaXaXaXaXaXaXaXaXaXaXaXaXaXaXaXaXaXaXaXaXaXaXaXaXaXaXaXaXaXaXaXaXaXaXaXaXaXaXaXaXaXaXaXaXaXaXaX",
"aXaXaXaXaXaXaXaXaXaXaXaXaXaXaXaXaXaXaX  . aXaXaXaXaXaXaXaXaXaXaXaXaXaXaXaXaXaXaXaX  aXaXaXaXaXaXaXaXaXaXaXaXaXaXaXaXaXaX",
"aXaXaXaXaXaXaXaXaXaXaXaXaXaXaXaXaXaXw 6.5.* aXaXaXO aXaXaXaXaXaXaXaXaXO aXaXaXX X.6.@.  aXaXaXaXaXaXaXaXaXaXaXaXaXaXaXaX",
"aXaXaXaXaXaXaXaXaXaXaXaXaXaXaXaXaXX l iXrX* O aXaXO O aXaXaXaXaXaXaXO X & aXaX  6.pXE.. aXaXaXaXaXaXaXaXaXaXaXaXaXaXaXaX",
"aXaXaXaXaXaXaXaXaXaXaXaXaXaXaXaXaX  3 ;X6.O . . o.qX7.O aXaXaXaXaXX 5.qX7.O X X o.0X@.. aXaXaXaXaXaXaXaXaXaXaXaXaXaXaXaX",
"aXaXaXaXaXaXaXaXaXaXaXaXaXaXaXaXaX2 7 $...O . X @.iX9XO O aXaXaXO X E.pX9XO X X w #. .1 2 aXaXaXaXaXaXaXaXaXaXaXaXaXaXaX",
"aXaXaXaXaXaXaXaXaXaXaX    aXaX  ;.yXwX7 * X O 6 E 7.#.6 = X X X = 6 @.7.#.8 =   & * 7.tX5.  aXaXX X aXaXaXaXaXaXaXaXaXaX",
"aXaXaXaXaXaXaXaXaXaXaX .R aXaXO ;.yXwX* X O = 8 E $.X.0 6 * * * 6 s ..$...9 : + O   4.iX4.O & aXl  .w aXaXaXaXaXaXaXaXaX",
"aXaXaXaXaXaXaXaXaX   .iXwXO * 8 E 4.$.O $ 6 9 9 0  .W R z z z z z S R  .E 9 9 9 =    .4.R 9 * X 9XiX@.X aXaXaXaXaXaXaXaX",
"aXaXaXaXaXaXaXaXaXX w wX0X= : h E +...2 2 9 9 j j z &.C.M 7 h 7 M C.*.z k s 0 9 6 2 w +.E I 6 = E.eX .  aXaXaXaXaXaXaXaX",
"aXaXaXaXaXaXaXaXaXX 2 #.$.9 s R j 8 0 R z 9 s R z z K ^.0.. X . B ^.Z.z R W k 8 j z j 9 s R s 9 +.:.3   aXaXaXaXaXaXaXaX",
"aXaXaXaXaXaXaXX h 0X;XX...9 s z j 9 0 z k 9 0 z &.P.A.v J L L L J u y.P.C.R j 8 0  .j 9 E H s 9 E +.E.9XR X aXaXaXaXaXaX",
"aXaXaXaXaXaXaX  l uXrXR j 9 h R k s s W k 0 j  .-.!.9.  F XXXXXXF . 9.^.P.W k 9 j R k s k z j 9 E W eXiXo.  O aXaXaXaXaX",
"aXaXaXaXaXX X X 2 7.5.E s k E z ` U.I.z z z ) U.P.*.x   L 6X1XXXF . y ) C.Y.Z.k z z C.T.-.z z E s s 4.7.7 .     aXaXaXaX",
"aXaXaXaXaXl 7 $ 2 $.+.0 I ) J z -.~.Q.*.Q R =.~.U.) x , L 4XOX(.G , x ) Z.^.S.R Q &.S.^.Z.z c &.d 8 X.#.6 $ 7 E w aXaXaX",
"aXaXaX. 7 tXtXE 9 R E 9 ! W.P.z C.~.~.!.U.W =.!.~.!.v.] f + # O a ] b.W.!.~.P.z C.!.~.^.Z.z S.!._ 8 E R 0 6 0XiX<.  aXaX",
"aXaXaXX 2 wXqXE 0 z l 8 M ~.I.7 c 0.u.!.Y.H =.!.~.~.Y.s./ < e e ~ s.T.^.~.^.S.E Z.^.T.9.M 7 A.~._ 8 k R s 8 7.rX@.X aXaX",
"aXaXaX. * $.#.0 0 z z 8 ~ ~.q.X X X ; !.Y.z *.~.~.~.Q.B.x.] ] ] s.m.V.~.~.^.P.l Z.^.N   X   0.^._ 8 k z 0 9 +.#.7 X aXaX",
"aXaXaXX * X.X.0 0 z W M B w.B Z C C Z 0.0.K Z.P.U.~.W.V.n.k.k.k.v.V.Q.~.Q.P.A.-.9.0.J C C C K 0.B _ Q R 0 9 ..@.3 X aXaX",
"aXaXaXX O k E 0 0 z *.^.r.o C  X X.X(.O y ~.U.z =.~.~.~.^.~.^.^.~.~.^.^.P.z C.^.9.  F  X.X.XH   q.~.=.E 0 8 E R 2 X aXaX",
"aXaXaXX O z E 9 d A.S.Z.M O A >X1X.X(.+ 4 y.A.A.D.R.a.V n V n n n n a.J.S.S.A.Z.x . P 4X#X.XZ   M Z.A.S.g 8 k z 2 X aXaX",
"aXaXaXX O k z 9 c !.Y.W d X F 7X4X}.(.+ - z =.W.T.] g . O O . O X X a ' k.~.S. .y X /.7X1X}.G X h  .I.~.M 6 j z 2 X aXaX",
"aXaXaXaXaX1 1 8 c W.!.U.D./ c A C 5 i Y _ U.t.u e : h O.O.O.O.O.O.%.h - ; y n U.a.Y c Z i 5 g T a.Y.!.!.M 8 6 * * aXaXaX",
"aXaXaXaXaXX % d ~ U.Q.~.Y.f./ o o o > { p.U.0.1 * 4 D 1.1.1.1.1.1.1.D 4 4 + V Q.b.f.g % % % Y f.T.^.!.Q._ d 2   aXaXaXaX",
"aXaXaXaXaXX ; T.U.J K !.!.m.x.^ ^ ^ ( m.z.- 7 %.2.@X#X-X-X-X:X:X:X:X#X#X_.:.D o b m.l.^ ^ ^ s.m.W.~.C. .I.Q.V   aXaXaXaX",
"aXaXaXaXaXX ; 0.t.=.-.u.l.8.i.[ f.g.s.8.m 3 S ).|.1X=X*X*X*X*X*X*X*X<X3X@X).>.3 g e.i.g.{ [ i.8.w.r.9.=.t.b.n . aXaXaXaX",
"aXaXaXaXaXaXaXX ; W.u.@ X X > | p.m.z.% 1 :.).#X<X5X*X`.`.'.'.'.'.`.$X5X:X,X|.:.S X b B.d.{ p X X X q.W.u . aXaXaXaXaXaX",
"aXaXaXaXaXaXaXN n 9.B F F F H a m m.z.% 4 _. X<X*X$X%X>X>X%X{.`.`.`.oX$X*X3X#X|.F X b B.m p H F F F B N N N u aXaXaXaXaX",
"aXaXaXaXaXX ; Q.T.o 5  X.XXX3.X t m.z.o 5 ,X<X2X*X`.%X7X7X7X>X`.'.`.].`.oX5X-X,XL   b B.v   L XXXX XC X u.^.B X aXaXaXaX",
"aXaXaXaXaXX ; Q.u.o C 4X4XXXP X t m.z.o C #X<X2X*X`.%X7X7X7X>X`.`.`.`.].oX5X3X,XP   m B.v . /.8X#X XC O u.^.n . aXaXaXaX",
"aXaXaXaXaXX ; Y.I.@ i 4X4X}.P o t B.z.o 5 @X=X5X*X'.%X6X8X8X>X`.`.`.'.'.OX:X-X#X3.. b B.b $ ].4XOX_.i o t.!.V   aXaXaXaX",
"aXaXaXaXaXX + c ) / M 4 4 # y / i.B.z.% 4 ,.).,X,X-X*X[.[.[.'.`.`.`.$X-X3X,X+X1.D . b B.l./ x 5 4 # g / ) &.7 X aXaXaXaX",
"aXaXaXaXaXX * w k i.( : - - a g.s.B.z.e 7 O.3.@X#X3X*XoXoXoXoX[.oX[.*X2X=X@X).O.l - m B.x.g.f - - > / f.x d 2 X aXaXaXaX",
"aXaXaXaXaXaXaXX e n.c.( ] ' g.m.m.B.c.] ~ X 2 :.).,X<X2X2X2X5X2X5X2X<X,X@X,.D O p [ d.m.m.m.p.( ] ] c.m.e O aXaXaXaXaXaX",
"aXaXaXaXaXaXaXX e c.N.g.f.] g.m.m.m.n.p.( - 7 O.3.}..X&X&X&X&X&X&X&X@X}.(.O.l - f f.x.m.m.m.p.] f.f.x.n.e   aXaXaXaXaXaX",
"aXaXaXaXaXaXaXX ; G.J.n.c.] g.m.m.m.m.m.c.{ Y $ X O w ,.,.,.,.,.,.,.w O O X r ] s.m.m.m.m.m.s.] x.m.R.K.y X aXaXaXaXaXaX",
"aXaXaXaXaXaXaXX * ) -.v.d.] g.m.m.m.m.B.c.{ ^ r r r d S S S S S S S d p p r f [ s.B.m.m.m.m.s.] k.I.h.) 2 X aXaXaXaXaXaX",
"aXaXaXaXaXaXaXX & 6 I G.G.] g.m.m.m.m.m.n.( ] ] ] { Y X X X X   X X f [ | ] { ] s.B.m.m.m.m.s.] F.G.c 8 O X aXaXaXaXaXaX",
"aXaXaXaXaXaXaXX & 8 I | } [ f.J.v.m.m.m.c.{ f.x.s.[ ^ f f U f f Y U / [ f.x.p.[ s.B.m.m.v.R.g.[ { } I 9 * X aXaXaXaXaXaX",
"aXaXaXaXaXaXaXX & 6 I ^ ' ] } G.J.m.m.m.c.] g.B.c.[ [ { { f.{ { { { [ [ s.m.x.] s.m.m.m.J.L.} ] ] ' I 9 & X aXaXaXaXaXaX",
"aXaXaXaXaXaXaXO $ 6 0 I I [ { { h.J.J.m.n.[ g.m.c.] p.c.n.n.n.n.n.n.s.] p.m.x.] l.B.v.J.F.{ { [ U I 9 9 * X aXaXaXaXaXaX",
"aXaXaXaXaXaXaXX $ 6 6 8 I [ [ ^ | H.J.M.x.{ f.n.x.] p.B.m.B.m.m.m.m.d.[ g.n.d.[ s.n.R.H.} ^ ' [ I 9 8 6 & X aXaXaXaXaXaX",
"aXaXaXaXaXaXaXX X X * 9 I [ / 9 U { { J.G.[ } L.j.[ s.m.m.m.m.B.m.B.s.] h.J.F.] F.K.F.[ U 9 T { I 9 * X X X aXaXaXaXaXaX",
"aXaXaXaXaXaXaXX X X X = 8 T T I U f g F.h.[ { F.h.] g.v.v.v.v.v.c.v.p.] } F.} [ } H.^ f U U T T q 6 $ X X X aXaXaXaXaXaX",
"aXaXaXaXaXaXaXaXaXX X X % 8 I [ U X - ] [ [ [ [ [ [ } L.K.L.K.K.K.K.h.{ ] ] [ [ [ [ a   f { U 9 * X X X aXaXaXaXaXaXaXaX",
"aXaXaXaXaXaXaXaXaXaXaXaX$ = 8 U p X * ' ^ p a U T [ { h.h.h.h.h.h.h.{ [ ^ U d r Y [ a   q U 6 = * aXaXaXaXaXaXaXaXaXaXaX",
"aXaXaXaXaXaXaXaXaXaXaXaXaXX & 8 = X - ' ~ X & 8 I ' [ ] ] ] ' ' [ [ ] ] T 9 = X p [ f . = 8 * X aXaXaXaXaXaXaXaXaXaXaXaX",
"aXaXaXaXaXaXaXaXaXaXaXaXaXX * 9 6 X , ] ~ O & 9 6 : a [ Y - - - f [ f - 2 9 =   p { a . 6 9 * X aXaXaXaXaXaXaXaXaXaXaXaX",
"aXaXaXaXaXaXaXaXaXaXaXaXaXX * 6 = X * / T , , 8 : . r [ f   X   a [ a . & 6 6 % a ' p X * 8 * X aXaXaXaXaXaXaXaXaXaXaXaX",
"aXaXaXaXaXaXaXaXaXaXaXaXaXaXaXO X X % 9 I ' Y $ X X > [ f X X X a [ p X X X r ] T 9 : X X $ aXaXaXaXaXaXaXaXaXaXaXaXaXaX",
"aXaXaXaXaXaXaXaXaXaXaXaXaXaXaXX X X $ 6 s ' Y X X X < [ f X X X a { r X X X q ' U 8 : X X $ aXaXaXaXaXaXaXaXaXaXaXaXaXaX",
"aXaXaXaXaXaXaXaXaXaXaXaXaXaXaXaXaXaXaXO % 9 q X X . < [ f X X X a { r X X X = s = O X aXaXaXaXaXaXaXaXaXaXaXaXaXaXaXaXaX",
"aXaXaXaXaXaXaXaXaXaXaXaXaXaXaXaXaXaXaXX % 8 = X X X : / p X X X r ^ r X X X * 8 = X aXaXaXaXaXaXaXaXaXaXaXaXaXaXaXaXaXaX",
"aXaXaXaXaXaXaXaXaXaXaXaXaXaXaXaXaXaXaXX $ 8 6 $ X X * 9 2 X X X = 9 * X X X = 9 = X aXaXaXaXaXaXaXaXaXaXaXaXaXaXaXaXaXaX",
"aXaXaXaXaXaXaXaXaXaXaXaXaXaXaXaXaXaXaXaX& = = aXaXaX* = * aXaXaX* = * aXaXaX* = * aXaXaXaXaXaXaXaXaXaXaXaXaXaXaXaXaXaXaX",
"aXaXaXaXaXaXaXaXaXaXaXaXaXaXaXaXaXaXaXaXaXX X aXaXaXaXX X aXaXaXaXX aXaXaXaXaXX aXaXaXaXaXaXaXaXaXaXaXaXaXaXaXaXaXaXaXaX",
"aXaXaXaXaXaXaXaXaXaXaXaXaXaXaXaXaXaXaXaXaXaXaXaXaXaXaXaXaXaXaXaXaXaXaXaXaXaXaXaXaXaXaXaXaXaXaXaXaXaXaXaXaXaXaXaXaXaXaXaX",
"aXaXaXaXaXaXaXaXaXaXaXaXaXaXaXaXaXaXaXaXaXaXaXaXaXaXaXaXaXaXaXaXaXaXaXaXaXaXaXaXaXaXaXaXaXaXaXaXaXaXaXaXaXaXaXaXaXaXaXaX"
};
