/* XPM */
static char *result[] = {
/* columns rows colors chars-per-pixel */
"60 60 17 1 ",
"  c #768166",
". c #7C856C",
"X c #7F896E",
"o c #7F8A70",
"O c #80876F",
"+ c #808A6F",
"@ c #838D73",
"# c #888F77",
"$ c #869176",
"% c #889277",
"& c #879278",
"* c #8A947A",
"= c #8E997E",
"- c #90977F",
"; c #909A7F",
": c #929C81",
"> c #96A186",
/* pixels */
".%@@@o@@o$o@o$$$@@%$$**@X$@$XX$ $;%-++$*$ o@**&#&@@&&oo@@X%@",
".@#X@@&#o$$%$$%=$o$$oo*X@*@@X@$@+**@+*.$$$@$%:@&#:#@@*X@%@O@",
"%&XXo@.@$o$o==*;*oo$***o@*$X%@@$++$#$$+*%X%$@*:$$#&&#@.#*@%%",
"%*:@@#.#%o$=%$%=*@$$X*$*@$@*%@*%+O+%+$$%$%$$=*@#@@&#&@@@@O@@",
":#*#&:%:&$X$$$*=%%==o=o$@$$$%%$@$$+%=*o$*%$*@$%%%%*:%@.@#**@",
":*@*%&=&&ooo.X$%@%=X;**=$$$*%$=%+@@ $o$$&=.$@@%&%@@%#@@OO@;*",
"*;**%%#=$$ooXoo=%%$==**=$@*=$=@o$$$*$$o=*:*$$*o$#@$%@O$%**%X",
":;*::###o=$oo$$=%%==**$$$**;Xo%$@$@=o$*$*>=:*=*=*%O@%%X%@%*#",
"%%$:**=XX**@Xo==;$%$%=%$o%=;;&&*@@@$%%%*$*$*=$=;*-$O$#*$OX@@",
"@@X@$@**X$*X$=%=$$oo@%Xo$*=;===*%$$****=Xo$*$*%X;*;*@%**@$@@",
"$$*%=$$%$==+=$%%$X$*$*$$%%$$***$$%@%$@@@XXX*=$$$*@@@$=%=@*$*",
"+@+$$@$%%=+;%==%@$%%*%$$$=oX$&%$%@%@$+@XXooXX$$*$=**@*#@$$$$",
":*.@%%*%$$===$=$%%=*=$@$@*@@o*$@%@%@@@@@o@*$%$*=$*;*%%::=%:=",
"@+*%*%;%$==*%$%$$$;;*$$$@$$%&&=$@@@%%*+@$$$%@o@%**;@;*%%*%$*",
"X@#.@;*;$$@$=%$**$=$$$%=%%$$;=*$%@@%**+$@$@$%$@X$;-;@%@##*#.",
".X%@-*-#$@@@%XX$$o%**=;*%;$$=**$@%$%%%@*@$$@%@%@;%-+@@@%*$*@",
"+@@%$$*@X@*$*%%%$$=*****$o%%%%%o$$%**$o$$%$o$o%%@%%@X@$*$*$+",
"$*$*$**@$%***+%%%*%%*=**%*%o%==**%o=$o$$%*$$$***$%%@$$$$%=X%",
"@==**$$****;%@%+$$o$o*oo$*%**=%%=$$*$o$**$$$$**==@$$%$$@X*@$",
"+%;;=*=o*;=%$%+.$oo=$*$o%*%%%%o**$;*==$o@$*$@$=;==%****$%Xo$",
" @%%$o=$$*@$%$%@o$%**=**$*$$o=o=*;**%%$$****%$$*@$%=;;;%%$X=",
"%=%@*$$$@*=*=;=;***=;oo%o*$o==%%;=**$$$=*******@%@@=;*;$$$$=",
"=$$=**$$$***%;;=o*;;=*%$o=$**==o%o$=$$$&*=%$@@$$%$@%@*;$$$*X",
"*%$+o*=$=**====%*@**%oo=$$***=o%o$o$Xo&%=$o@@**$@@+@.$%$$%o$",
"%$*%*;;*$***=*%=*X$$$*=*****$*@X$=$=$*$&$$Xo*$$*%%*@++@%$$o$",
";=$@*==*+X+= $$@*$*==**$$$**=$$$$%*$o$@=$$$*$$$$%%%@+@@@$$*$",
"*%%@*;=$@X@++$=%$****$$$$**$*$**===$$$o%@$**==**%%%@$@%%%*$%",
"*=*@@$**=X$+$*++$$$$$$*$$*=$$$@*;=$$$%$$$$$=**;;=%%+$%@@$%%$",
"*@@@+@$$$X@X@$X$$$$X$******$$*$$$$$%=****%$$$o=*$=@X$*$@$$*=",
"=%@$*%**$$@$X@$$$$$$$$**$$X@$$@@===**$$*$$$@$X@$@$=X$*@@o%**",
"XXX%*****$X@X@$$$******$X@$$$$$**&=***$@@@@o$*$=%$$$**@=***.",
"==X@*$$=*@$*$$$X$$*$$$$$X$***$$*$*****$@@XX@$Xo@@$$**@=%*%*$",
"%@@X@$**$$$$o**o$$%$$o$$$*$*%$o%==**%&$%oo$$$o@%***$%;=&%%&$",
"%*$@XXo$$$$o*$$***==%o$*$=**$%=$*$**%oo=%$o$$$$$%=*%==*%$$=+",
"$@@%X$@**o$$o$$**$*=%o$o$**$$*$$ooo*$$X$*o@*%%X@;*;%$@$%@X%$",
"@@$$X@@%$$*$o$$**$*=$$;&$*$o$*@o$*$*$%@==X=$$$%**=*+@@+%$$*@",
"X$=X@@@@o==%$X$oXo*$%*%$=&**$%$$$*&=$$*=X=**%$$$$*$X%*$$o$$$",
"$@**X@$@%%%$o$oXX.$*$%%==*=*$$&*&*=$$$$$===%=$%$@*$X$*+@*&**",
"**@%@*====*%%XXo$$*=$&==&&&$$*o*;;&$*%$=;*%%%%$=$@*$*=.=%$%$",
"@$@%@@%$$$%o=$o=$%*=*%*$*=$$o=$*=&$%&;$*$$=%$%$*$$$%=@***:*o",
"%@$$@@$$**o$$*$o****#@X@$$X$$%$$$$**=$$@o$$Xooo@%%%%$*==&=**",
"*@$ X@@$o*oo$*$*$$$*O@$*$%o%%$$%===%$@oo*$*$$$%=%;%$*:**$$$*",
"$$*@XXXX$o==*=*$$*$$@@%*%*$%%%**$%$$$$o$$**$@%XX*-;%*$$=*%$*",
"$%$@*@X@o*=$$=*X$$$$%****@o$$o@$$%$$$$$$$$$o@%%*:**@@@@$$.#*",
"*==*=*X$X$*$$*$oo$$*$**=*$$$@@@@$$$%$@o$$$**@o*$$*$Oo*%*$$$X",
"**$***@$*XX$$*$$$$$**%*$$%$%.@$@$$%$o$%o$**$%$*$$*@@%***$%*$",
"X+XX@$@*$@X$X$$$%$***$@@$*$$+$@@$$$$%=$$X$$$**$*%$****=&o$X%",
"XXXX$$X$@XX@$$**%%%%$%$$*==o.+$$$$$%**%o@XXX$=;;*%$%:;*%%$ $",
"%$$@$@+$*%%$%%@*+%$+=%=$+*%$+@+@@$$***$@oXXXo*=%$=$o=*$o@#.#",
"==$+$$%+**%$$%@**+%%++%+$$%@@%@%*o%$$%@=@X$$**o%o$*$$**=:::%",
"*==****%%*@*@%=*=;*%%==%+++%@@@%$$*$=oX**$X$%$*=*&$o*=*=*::#",
";**=*@$*%;*%%=%%%%;=%;=%%%+%%%@%%*%$**X$*X$**%$X**$=*%=*::%@",
"=;==*$@++;%+@;+@%$%@%+==@@$.$$@$$;X*@$$==+=$%*$%;;$$$====#=:",
"$*%=$*$+++++@@++X%;%*$%%@$@+$$@**=$@$$$=+;*=;%@*;=*@oo=X#@@-",
"*=****$X++++++++XX+%$%%%%$$*$$$$*;;=$$$$=**%*%#*;;$oXXoX@=#@",
"**=@$@@@@@*@@%++$$%%%=%$%%@$$$***=$==*$==&*%$#%@*;*=o$o$&#@@",
"$$@+@*;**$==+@%%@%@@@*%%%*@@%*%;@@$$$*$$@$$$%$%%*%$*.@XX&.O#",
"*;$*=*;===;*+$%@@$$%@@*%+*++@%%*@Xo$*$*@@X@$+*$**$%$#@$XO#&#",
"*=$$$+**%@%=+*%+$+%@$@=%@%@%+$$+@$@%@X$*+%@$X+=;=o$$*@X.X##*",
"==;$$$@@+@+$+@%$%@$X@@@@@+$@$.%$@$$$@$@@*+.$*@=*$=%o$ +X..X@"
};
