/* XPM */
static char *result[] = {
/* columns rows colors chars-per-pixel */
"60 60 213 2 ",
"   c #3E0D1F",
".  c #0F0222",
"X  c #130623",
"o  c #190723",
"O  c #160923",
"+  c #1B0B24",
"@  c #1C1127",
"#  c #1E1428",
"$  c #230A23",
"%  c #3A0E21",
"&  c #221225",
"*  c #2B1B26",
"=  c #231C2B",
"-  c #2A1F2A",
";  c #2A1724",
":  c #321522",
">  c #311D25",
",  c #3A1722",
"<  c #27212E",
"1  c #29232D",
"2  c #2C292F",
"3  c #352026",
"4  c #322329",
"5  c #3C2C29",
"6  c #372729",
"7  c #2A2630",
"8  c #2C2A31",
"9  c #333333",
"0  c #5D151D",
"q  c #57161E",
"w  c #4C121E",
"e  c #63161D",
"r  c #661A1D",
"t  c #7D1B1B",
"y  c #78251C",
"u  c #6E311F",
"i  c #73331F",
"p  c #7E391F",
"a  c #461821",
"s  c #6C1A22",
"d  c #4E2421",
"f  c #422A26",
"g  c #462D27",
"h  c #44322A",
"j  c #48372C",
"k  c #563928",
"l  c #502C23",
"z  c #622C21",
"x  c #6C3522",
"c  c #733520",
"v  c #712422",
"b  c #5E4229",
"n  c #504630",
"m  c #4C4430",
"M  c #6E4B2B",
"N  c #6A4826",
"B  c #734D29",
"V  c #67552F",
"C  c #7D562D",
"Z  c #76572B",
"A  c #715D32",
"S  c #6E5931",
"D  c #786432",
"F  c #77753B",
"G  c #8D1D19",
"H  c #881B19",
"J  c #921F1A",
"K  c #8D2419",
"L  c #88261A",
"P  c #94221C",
"I  c #9D211D",
"U  c #902C1B",
"Y  c #9F291E",
"T  c #8A391E",
"R  c #92341D",
"E  c #9B361F",
"W  c #923C1E",
"Q  c #A3231E",
"!  c #AA231E",
"~  c #A42E1F",
"^  c #881D21",
"/  c #942020",
"(  c #9B2321",
")  c #9E2B20",
"_  c #8D3022",
"`  c #993B20",
"'  c #A42523",
"]  c #AD2521",
"[  c #AA2827",
"{  c #B12721",
"}  c #B92A27",
"|  c #BC2C2A",
" . c #B42A27",
".. c #A43523",
"X. c #AA3B24",
"o. c #A93B26",
"O. c #B3392A",
"+. c #C42E2C",
"@. c #C5382F",
"#. c #CD2F31",
"$. c #CD3331",
"%. c #C73C30",
"&. c #CB3C33",
"*. c #C03C39",
"=. c #D03433",
"-. c #D43A36",
";. c #8F411E",
":. c #92421E",
">. c #884622",
",. c #944520",
"<. c #954B21",
"1. c #9A4825",
"2. c #875D2A",
"3. c #965323",
"4. c #975923",
"5. c #A3472A",
"6. c #A9592A",
"7. c #B64C2F",
"8. c #8C6428",
"9. c #946326",
"0. c #996B27",
"q. c #9C6B29",
"w. c #986729",
"e. c #9C7028",
"r. c #816B35",
"t. c #9F6F30",
"y. c #877436",
"u. c #927A37",
"i. c #AC642B",
"p. c #A5692C",
"a. c #B5682E",
"s. c #A2732B",
"d. c #A1792C",
"f. c #AB7C2E",
"g. c #A9752E",
"h. c #AC7B30",
"j. c #AB7631",
"k. c #B57831",
"l. c #BB633D",
"z. c #C1412F",
"x. c #CC4339",
"c. c #DA433B",
"v. c #DD4A3D",
"b. c #D44638",
"n. c #CA5936",
"m. c #E04A3E",
"M. c #C87834",
"N. c #D36C3A",
"B. c #BB514C",
"V. c #BF4C48",
"C. c #AF7440",
"Z. c #C94847",
"A. c #DB4B43",
"S. c #DE5C43",
"D. c #DB4F50",
"F. c #C65452",
"G. c #E24D40",
"H. c #E55544",
"J. c #E95645",
"K. c #EC5A47",
"L. c #EA5A4C",
"P. c #E55D45",
"I. c #E85A53",
"U. c #C46948",
"Y. c #CC695C",
"T. c #D46355",
"R. c #C97C5A",
"E. c #E67D48",
"W. c #E65E63",
"Q. c #CF7C63",
"!. c #EB6263",
"~. c #EA6766",
"^. c #F06F73",
"/. c #EA7975",
"(. c #ED746D",
"). c #AB8C34",
"_. c #B28332",
"`. c #BC8532",
"'. c #B78A35",
"]. c #BB9D39",
"[. c #B89737",
"{. c #A69138",
"}. c #BCA53B",
"|. c #C48B33",
" X c #C58735",
".X c #CA9335",
"XX c #C59938",
"oX c #D49839",
"OX c #C5AA3F",
"+X c #CAA63C",
"@X c #D2B13F",
"#X c #A2A142",
"$X c #ADB147",
"%X c #CCB341",
"&X c #D2B541",
"*X c #D6BD43",
"=X c #D9B942",
"-X c #DCA944",
";X c #F0817E",
":X c #E28378",
">X c #DCC244",
",X c #D6CF4A",
"<X c #DEDA4C",
"1X c #E1D84C",
"2X c #E9C950",
"3X c #E0E44F",
"4X c #E5EB52",
"5X c #E8EF55",
"6X c #ECF656",
"7X c #F3FF59",
"8X c #F28889",
"9X c #EE8886",
"0X c None",
/* pixels */
"0X0X0X0X0X0X0X0X0X0X0X0X0X0X0X0X0X0X0X0X0X0X0X0X0X0X0X0X0X0X0X0X0X0X0X0X0X0X0X0X0X0X0X0X0X0X0X0X0X0X0X0X0X0X0X0X0X0X0X0X",
"0X0X0X0X0X0X0X0X0X0X0X0X0X0X0X0X0X0X0X0X0X0X0X0X0X0X0X0X0X0X0X0X0X0X0X0X0X0X0X0X0X0X0X0X0X0X0X0X0X0X0X0X0X0X0X0X0X0X0X0X",
"0X0X0X0X0X0X0X0X0X0X0X0X0X0X0X0X0X0X0X0X0X0X0X0X0X0X0X0X0X0X0X0X0X0X0X0X0X0X0X0X0X0X0X0X0X0X0X0X0X0X0X0X0X0X0X0X0X0X0X0X",
"0X0X0X0X0X0X0X0X0X0X0X0X0X0X0X0X0X0X0X0X0X0X0X0X0X0X0X0X0X0X0X0X0X0X0X0X0X0X0X0X0X0X0X0X0X0X0X0X0X0X0X0X0X0X0X0X0X0X0X0X",
"0X0X0X0X0X0X0X0X0X0X0X0X0X0X0X0X0X0X0X0X0X0X0X0X0X0X0X0X0X0X0X0X0X0X0X0X0X0X0X0X0X0X0X0X0X0X0X0X0X0X0X0X0X0X0X0X0X0X0X0X",
"0X0X0X0X0X0X0X0X0X0X0X0X0X0X0X0X0X0X0X0X0X0X0X0X0X0X0X0X0X0X0X0X0X0X0X0X0X0X0X0X0X0X0X0X0X0X0X0X0X0X0X0X0X0X0X0X0X0X0X0X",
"0X0X0X0X0X0X0X0X0X0X0X0X0X0X0X0X0X0X0X0X0X0X0X0X0X0X0X0X0X0X0X0X0X0X0X0X0X0X0X0X0X0X0X0X0X0X0X0X0X0X0X0X0X0X0X0X0X0X0X0X",
"0X0X0X0X0X0X0X0X0X0X0X0X0X0X0X0X0X0X0X0X0X0X0X0X0X0X0X0X0X0X0X0X0X0X0X0X0X0X0X0X0X0X0X0X0X0X0X0X0X0X0X0X0X0X0X0X0X0X0X0X",
"0X0X0X0X0X0X0X0X0X0X0X0X0X0X0X0X0X0X0X0X0X0X0X0X0X0X0X0X0X0X0X0X0X0X0X0X0X0X0X0X0X0X0X0X0X0X0X0X0X0X0X0X0X0X0X0X0X0X0X0X",
"0X0X0X0X0X0X0X0X0X0X0X0X0X0X0X0X0X0X0X0X0X0X0X0X0X0X0X0X0X0X0X0X0X0X0X0X0X0X0X0X0X0X0X0X0X0X0X0X0X0X0X0X0X0X0X0X0X0X0X0X",
"0X0X0X0X0X0X0X0X0X0X0X0X0X0X0X0X0X0X0X0X0X0X0X0X0X0X0X0X0X0X0X0X0X0X0X0X0X0X0X0X0X0X0X0X0X0X0X0X0X0X0X0X0X0X0X0X0X0X0X0X",
"0X0X0X0X0X0X0X0X0X0X0X0X0X0X0X0X0X0X0X0X0X0X0X0X0X0X0X0X0X0X0X0X0X0X0X0X0X0X0X0X0X0X0X0X0X0X0X0X0X0X0X0X0X0X0X0X0X0X0X0X",
"0X0X0X0X0X0X0X0X0X0X0X0X0X0X0X0X0X0X0X0X0X0X0X0X0X0X0X0X0X0X0X0X0X0X0X0X0X0X0X0X0X0X0X0X0X0X0X0X0X0X0X0X0X0X0X0X0X0X0X0X",
"0X0X0X0X0X0X0X0X0X0X0X0X0X0X0X0X0X0X0X0X0X0X0X0X0X0X0X0X0X0X0X0X0X0X0X0X0X0X0X0X0X0X0X0X0X0X0X0X0X0X0X0X0X0X0X0X0X0X0X0X",
"0X0X0X0X0X0X0X0X0X0X0X0X0X0X0X0X0X0X0X0X0X0X0X0X0X0X0X0X0X0X0X0X0X0X0X0X0X0X0X0X0X0X0X0X0X0X0X0X0X0X0X0X0X0X0X0X0X0X0X0X",
"0X0X0X0X0X0X0X0X0X0X0X0X0X0X0X0X0X0X0X0X0X0X0X0X0X0X0X0X0X0X0X0X0X0X0X0X0X0X0X0X0X0X0X0X0X0X0X0X0X0X0X0X0X0X0X0X0X0X0X0X",
"0X0X0X0X0X0X0X0X0X0X0X0X0X0X0X0X0X0X0X0X0X0X0X0X0X0X0X0X0X0X0X0X0X0X0X0X0X0X0X0X0X0X0X0X0X0X0X0X0X0X0X0X0X0X0X0X0X0X0X0X",
"0X0X0X0X0X0X0X0X0X0X0X0X0X0X0X0X0X0X0X0X0X0X0X0X0X0X0X0X0X0X0X0X0X0X0X0X0X0X0X0X0X0X0X0X0X0X0X0X0X0X0X0X0X0X0X0X0X0X0X0X",
"0X0X0X0X0X0X0X0X0X0X0X0X0X0X0X0X0X0X0X0X0X0X0X0X0X0X0X0X0X0X0X0X0X0X0X0X0X0X0X0X0X0X0X0X0X0X0X0X0X0X0X0X0X0X0X0X0X0X0X0X",
"0X0X0X0X0X0X0X0X0X0X0X0X0X0X0X0X0X0X0X0X0X0X0X0X0X0X0X0X0X0X0X0X0X0X0X0X0X0X0X0X0X0X0X0X0X0X0X0X0X0X0X0X0X0X0X0X0X0X0X0X",
"0X0X0X0X0X0X0X0X0X0X0X0X0X0X0X0X0X0X0X0X0X0X0X0X0X0X0X0X0X0X0X0X0X0X0X0X0X0X0X0X0X0X0X0X0X0X0X0X0X0X0X0X0X0X0X0X0X0X0X0X",
"0X0X0X0X0X0X0X0X0X0X0X0X0X0X0X0X0X0X0X0X0X+ 0X0X0X0X0X+ O 0X0X0X0X0X0X0X0X0X0X0X0X0X0X0X0X0X0X0X0X0X0X0X0X0X0X0X0X0X0X0X",
"0X0X0X0X0X0X0X0X0X0X0X0X0X0X0X0X0X0X0X0XO X 0X0X0X0X0XO O 0X0X0X0X0X0X0X0X0X0X0X0X0X0X0X0X0X0X0X0X0X0X0X0X0X0X0X0X0X0X0X",
"0X0X0X0X0X0X0X0X0X0X0X0X0X0X0X0X0X0X0XO k C k X O O 3 k k & O 0X0X0X0X0X0X0X0X0X0X0X0X0X0X0X0X0X0X0X0X0X0X0X0X0X0X0X0X0X",
"0X0X0X0X0X0X0X0X0X0X0X0X0X0X0X0X0X0XX X 2.oXM O O X > 0.2.+ O 0X0X0X0X0X0X0X0X0X0X0X0X0X0X0X0X0X0X0X0X0X0X0X0X0X0X0X0X0X",
"0X0X0X0X0X0X0X0X0X0X0X0X0X0X0X0X0X0Xf l N r.k # @ X 6 g.w.& O 0X0X0X0X0X0X0X0X0X0X0X0X0X0X0X0X0X0X0X0X0X0X0X0X0X0X0X0X0X",
"0X0X0X0X0X0X0X0X0X0X0X0X0X0X0X0XO + C 0.f X # 9 < X f  Xj.& X 0X0X0X0X0X0XO X X 0X0X0X0X0X0X0X0X0X0X0X0X0X0X0X0X0X0X0X0X",
"0X0X0X0X0X0X0X0X0X0X0X0X0X0X0X0XX + B w.b 6 6 2 = X f XX_.f > 0X0X0X0X0X0X6 5 6 0X0X0X0X0X0X0X0X0X0X0X0X0X0X0X0X0X0X0X0X",
"0X0X0X0X0X0X0X0X0X0X0X0X0X0X0X0XO + i :.f.}.V X O X 5 @XOXe.8.; X < 8 @ . V }.D X O 0X0X0X0X0X0X0X0X0X0X0X0X0X0X0X0X0X0X",
"0X0X0X0X0X0X0X0X0X0X0X0X0X0X0X0XX + i :.f.}.S * # X j >X&Xd.9.> $ - 2 - * A OXD + X 0X0X0X0X0X0X0X0X0X0X0X0X0X0X0X0X0X0X",
"0X0X0X0X0X0X0X0X0X0X0X0X0X0X0X0XX + i :.:.3.f.OXD O m 5X<X).w.;.p : + r.OXf.<.x X X 0X0X0X0X0X0X0X0X0X0X0X0X0X0X0X0X0X0X",
"0X0X0X0X0X0X0X0X0X0X0X0X0X0X0X0XO + u ;.;.W `.>Xu.O m 5X<Xe.e.:.:., o u.>Xf.W z O + 0X0X0X0X0X0X0X0X0X0X0X0X0X0X0X0X0X0X",
"0X0X0X0X0X0X0X0X0X0X0X0X0X0XX + 1 2 * : u ;.[.5X}.i <.E.E. X_.0.4.R H a.+XC : * < < 0X0X0X0X0X0X0X0X0X0X0X0X0X0X0X0X0X0X",
"0X0X0X0X0X0X0X0X0X0X0X0X0X0XO O 2 9 @ X z :.].7X&X:.5.J.H. X|.s.0.X.{ a.|.M X + 8 8 0X0X0X0X0X0X0X0X0X0X0X0X0X0X0X0X0X0X",
"0X0X0X0X0X0X0X0X0X0X0X0XO > C C 4 # O O r U p.}.].'.k.O.O.n.n.n.n.&.+.6.f.>.e a @ # 0X0X0X0X0X0X0X0X0X0X0X0X0X0X0X0X0X0X",
"0X0X0X0X0X0X0X0X0X0X0X0XO > `.`.3 . O O 0 K :.0.'.>X.XG J #.=.H.K.-.#.6.e.:.J 0 X O 0X0X0X0X0X0X0X0X0X0X0X0X0X0X0X0X0X0X",
"0X0X0X0X0X0X0X0X0X0X0X0XO - M B k k d d y G W 4.s.[.'.B.V.c.c.v.m.N.N.6.<.E I t w a + 0X0X0X0X0X0X0X0X0X0X0X0X0X0X0X0X0X",
"0X0X0X0X0X0X0X0X0X0X0X0X0X0XO $ 8.e.:.:.U G R :.3.w.k.9X;XI.H.-.#.oX*X6.H I ! Q J r O O 0X0X0X0X0X0X0X0X0X0X0X0X0X0X0X0X",
"0X0X0X0X0X0X0X0X0X0X0X0X0X0XO @ N B ;.:.y e y R 1.6.l./.^.I.I.c.-.-X1Xk.E E ~ ~ J H % % 0X0X0X0X0X0X0X0X0X0X0X0X0X0X0X0X",
"0X0X0X0X0X0X0X0X0X0X0X0X0X0X0X0XO + i :.a X w K Q $.-.J.L.!.!.L.L.2X7X&X|.i.:.E ] Q G t + O 0X0X0X0X0X0X0X0X0X0X0X0X0X0X",
"0X0X0X0X0X0X0X0X0X0X0X0X0X0X0X0X+ @ z p a $ 0 U ..b.n.S.S.!.!.H.m.>X4X+X`.i.5.o.{ ' J t $ X 0X0X0X0X0X0X0X0X0X0X0X0X0X0X",
"0X0X0X0X0X0X0X0X0X0X0X0X0X0X0X0X7 7 # + e H ,.w._.=XXXe.i.H.J.-.-. X.Xd.q.U.W.D.#.+.] / $ X 0X0X0X0X0X0X0X0X0X0X0X0X0X0X",
"0X0X0X0X0X0X0X0X0X0X0X0X0X0X0X0X2 7 @ + r K :.q._.@X+Xt.j.S.P.&.-.M.'._.t.U.~.I.#.+.{ / $ O 0X0X0X0X0X0X0X0X0X0X0X0X0X0X",
"0X0X0X0X0X0X0X0X0X0X0X0X0X0XO O + + z T T W X.%.O.E i.<X,Xj.i.%.$.i.0.:X:X~.L.A.$.+.{ / + O 0X0X0X0X0X0X0X0X0X0X0X0X0X0X",
"0X0X0X0X0X0X0X0X0X0X0X0X0X0XO O O + i :.:.:.O.$. .H 6.5X3Xd.q.%.$.6.0.:X9X~.J.G.=.+.] / $ X 0X0X0X0X0X0X0X0X0X0X0X0X0X0X",
"0X0X0X0X0X0X0X0X0X0X0X0XO * N Z #X$X}.XXf.4.3...o.| 7.[.).4.:.' Q ..~ 5.Z.&.-.c.G.b.] / $ X 0X0X0X0X0X0X0X0X0X0X0X0X0X0X",
"0X0X0X0X0X0X0X0X0X0X0X0XX * 9.d.4X7X,X*X'.0.4.:.X.=.%.w.w.:.` ^ H Q ! ! ! | =.-.K.v.] / $ O 0X0X0X0X0X0X0X0X0X0X0X0X0X0X",
"0X0X0X0X0X0X0X0X0X0X0X0XX > ).[.y.F D S b k l d v ' ..4.1.` ..B.F.Z.b.b.&.@.| @.c.&.I H $ O 0X0X0X0X0X0X0X0X0X0X0X0X0X0X",
"0X0X0X0X0X0X0X0X0X0X0X0XX 4 %X@X> . X X X X X . , G L ;.W !  ./.8X^.~.I.K.&.!  .#.| J t o X 0X0X0X0X0X0X0X0X0X0X0X0X0X0X",
"0X0X0X0X0X0X0X0X0X0X0X0XO 4 y.y.4 X O + X X 3 k x ` W R ` *.*.Y.Y.F.Z.A.G.-.} | +.[ e q + + 0X0X0X0X0X0X0X0X0X0X0X0X0X0X",
"0X0X0X0X0X0X0X0X0X0X0X0X0X0XO X 0X0X0X0XO . M .X`.e.4.G ( W.!.1.:.U G  .$.#.$.+.{ ^ o O 0X0X0X0X0X0X0X0X0X0X0X0X0X0X0X0X",
"0X0X0X0X0X0X0X0X0X0X0X0X0X0XO O 0X0X0X0X5 h M t.8.Z >.W 5.T.T.1.W U J  .+.+.+.[ ^ s @ @ 0X0X0X0X0X0X0X0X0X0X0X0X0X0X0X0X",
"0X0X0X0X0X0X0X0X0X0X0X0X0X0X0X0X0X0XO + y.&XA + + + h }.[.s.q.U J ' ] { ] ( P e o + 8 7 0X0X0X0X0X0X0X0X0X0X0X0X0X0X0X0X",
"0X0X0X0X0X0X0X0X0X0X0X0X0X0X0X0X0X0XX X y.%XA X O X 5 {.{.8.2.L t J ( ( I G H q + @ 8 8 0X0X0X0X0X0X0X0X0X0X0X0X0X0X0X0X",
"0X0X0X0X0X0X0X0X0X0X0X0X0X0X0X0X0X0X0X0X- * - 0X0X< - * ; & & $ $ $ $ $ $ $ $ & 2 0X0X0X0X0X0X0X0X0X0X0X0X0X0X0X0X0X0X0X",
"0X0X0X0X0X0X0X0X0X0X0X0X0X0X0X0X0X0X0X0XX O 0X0X0X0X= X X X O X X X X O O X O @ 8 0X0X0X0X0X0X0X0X0X0X0X0X0X0X0X0X0X0X0X",
"0X0X0X0X0X0X0X0X0X0X0X0X0X0X0X0X0X0X0X0X0X0X0X0X0X0X0X0X0X0X0X0X0X0X0X0X0X0X0X0X0X0X0X0X0X0X0X0X0X0X0X0X0X0X0X0X0X0X0X0X",
"0X0X0X0X0X0X0X0X0X0X0X0X0X0X0X0X0X0X0X0X0X0X0X0X0X0X0X0X0X0X0X0X0X0X0X0X0X0X0X0X0X0X0X0X0X0X0X0X0X0X0X0X0X0X0X0X0X0X0X0X",
"0X0X0X0X0X0X0X0X0X0X0X0X0X0X0X0X0X0X0X0X0X0X0X0X0X0X0X0X0X0X0X0X0X0X0X0X0X0X0X0X0X0X0X0X0X0X0X0X0X0X0X0X0X0X0X0X0X0X0X0X",
"0X0X0X0X0X0X0X0X0X0X0X0X0X0X0X0X0X0X0X0X0X0X0X0X0X0X0X0X0X0X0X0X0X0X0X0X0X0X0X0X0X0X0X0X0X0X0X0X0X0X0X0X0X0X0X0X0X0X0X0X"
};
