/* XPM */
static char *result[] = {
/* columns rows colors chars-per-pixel */
"60 60 203 2 ",
"   c #040404",
".  c #0B0605",
"X  c #0B0906",
"o  c #050A0B",
"O  c #0B0B0B",
"+  c #120D04",
"@  c #120D0B",
"#  c #180805",
"$  c #13120D",
"%  c #1C150B",
"&  c #181305",
"*  c #061214",
"=  c #0C1112",
"-  c #0B1B1D",
";  c #081719",
":  c #141413",
">  c #1D1C1A",
",  c #191817",
"<  c #250A05",
"1  c #2C0905",
"2  c #230D0A",
"3  c #270906",
"4  c #390C08",
"5  c #241B0A",
"6  c #281B04",
"7  c #221C17",
"8  c #361814",
"9  c #2D220B",
"0  c #2B2109",
"q  c #3A2D0C",
"w  c #352807",
"e  c #25221B",
"r  c #3A311A",
"t  c #3E3009",
"y  c #0B1F21",
"u  c #0D262A",
"i  c #0D2629",
"p  c #142829",
"a  c #0E2E32",
"s  c #0F3339",
"d  c #123135",
"f  c #143A3E",
"g  c #13363A",
"h  c #162E30",
"j  c #292624",
"k  c #2B2926",
"l  c #2D2C2A",
"z  c #252624",
"x  c #312E2B",
"c  c #332E28",
"v  c #34312C",
"b  c #3D382B",
"n  c #343332",
"m  c #3D3C3B",
"M  c #393735",
"N  c #410C05",
"B  c #480E09",
"V  c #4D110C",
"C  c #45160C",
"Z  c #55110A",
"A  c #5C130C",
"S  c #4C130D",
"D  c #63130C",
"F  c #6C140D",
"G  c #74160D",
"H  c #7D170E",
"J  c #7D1811",
"K  c #443405",
"L  c #42340C",
"P  c #4A3908",
"I  c #523E05",
"U  c #493B11",
"Y  c #4F2407",
"T  c #483828",
"R  c #433D38",
"E  c #592922",
"W  c #554205",
"Q  c #54420D",
"!  c #5C4607",
"~  c #5D4B14",
"^  c #574511",
"/  c #5F501E",
"(  c #654D06",
")  c #6E5404",
"_  c #7A5E04",
"`  c #745903",
"'  c #614E14",
"]  c #635015",
"[  c #7E6104",
"{  c #7B620B",
"}  c #5C4F23",
"|  c #43413E",
" . c #4A4438",
".. c #52492E",
"X. c #6C5A24",
"o. c #675C3A",
"O. c #716438",
"+. c #153E43",
"@. c #213F43",
"#. c #19474D",
"$. c #16454B",
"%. c #1B4D53",
"&. c #1B5057",
"*. c #1E545B",
"=. c #1E585F",
"-. c #22585F",
";. c #1E5B63",
":. c #215C64",
">. c #23636C",
",. c #256972",
"<. c #276F78",
"1. c #29737C",
"2. c #27707A",
"3. c #3F767E",
"4. c #434342",
"5. c #4B4947",
"6. c #534E46",
"7. c #59544A",
"8. c #595754",
"9. c #635E51",
"0. c #676258",
"q. c #726A5A",
"w. c #736A57",
"e. c #666563",
"r. c #6A6967",
"t. c #716C68",
"y. c #71716F",
"u. c #757065",
"i. c #767573",
"p. c #7A7A78",
"a. c #841911",
"s. c #8D1B13",
"d. c #941C14",
"f. c #9B1E15",
"g. c #80180F",
"h. c #A21F16",
"j. c #A62017",
"k. c #AA2118",
"l. c #A72018",
"z. c #846605",
"x. c #997604",
"c. c #866C17",
"v. c #A37D04",
"b. c #826E28",
"n. c #8F7829",
"m. c #837A65",
"M. c #807F7D",
"N. c #AA8504",
"B. c #B58D04",
"V. c #BB9206",
"C. c #A48623",
"Z. c #C79B03",
"A. c #D7A803",
"S. c #D1A815",
"D. c #E4B204",
"F. c #ECB703",
"G. c #F5BE02",
"H. c #F8BF02",
"J. c #E0AF04",
"K. c #C7A63C",
"L. c #D9B439",
"P. c #FAC203",
"I. c #F8C205",
"U. c #FAC61C",
"Y. c #F9C827",
"T. c #988D74",
"R. c #90856A",
"E. c #A3977B",
"W. c #A99C7C",
"Q. c #E1BF59",
"!. c #FCD44C",
"~. c #2C7984",
"^. c #2E7E89",
"/. c #2F818C",
"(. c #30838E",
"). c #328691",
"_. c #3A8B96",
"`. c #358994",
"'. c #428E99",
"]. c #468D97",
"[. c #49939D",
"{. c #518D96",
"}. c #5C9DA7",
"|. c #549AA4",
" X c #63A2AC",
".X c #868583",
"XX c #898989",
"oX c #989797",
"OX c #908F8D",
"+X c #B6A888",
"@X c #B5A98B",
"#X c #AAABAA",
"$X c #C4B593",
"%X c #CCBB94",
"&X c #D5C49D",
"*X c #DFCCA2",
"=X c #E2CEA1",
"-X c #E5D1A5",
";X c #EED9AA",
":X c #E9D6A9",
">X c #F3DDAB",
",X c #F8E1AF",
"<X c None",
/* pixels */
"<X<X<X<X<X<X<X<X<X<X<X<X<X<X<X<X<X<X<X<X<X<X<X<X<X<X<X<X<X<X<X<X<X<X<X<X<X<X<X<X<X<X<X<X<X<X<X<X<X<X<X<X<X<X<X<X<X<X<X<X",
"<X<X<X<X<X<X<X<X<X<X<X<X<X<X<X<X<X<X<X<X<X<X<X<X<X<X<X<X<X<X= @ <X<X<X<X<X<X<X<X<X<X<X<X<X<X<X<X<X<X<X<X<X<X<X<X<X<X<X<X",
"<X<X<X<X<X<X<X<X<X<X<X<X<X<X<X<X<X<X<X<X<X<X<X<X<X<X<X<Xy #.%.; <X<X<X<X<X<X<X<X<X<X<X<X<X<X<X<X<X<X<X<X<X<X<X<X<X<X<X<X",
"<X<X<X<X<X<X<X<X<X<X<X<X<X<X<X<X<X<X<X<X<X<X<X<X<X<Xp #.1.).*.: <X<X<X<X<X<X<X<X<X<X<X<X<X<X<X<X<X<X<X<X<X<X<X<X<X<X<X<X",
"<X<X<X<X<X<X<X<X<X<X<X<X<X<X<X<X<X<X<X<X<X<X<X<Xa &.~.(.(.(.$.O <X<X<X<X<X<X<X<X<X<X<X<X<X<X<X<X<X<X<X<X<X<X<X<X<X<X<X<X",
"<X<X<X<X<X<X<X<X<X<X<X<X<XO . <X<X<X<X<X<Xy f :.~.(.(.(.(.~.+.o <X<X<X<X<X<X<X<X<X<X<X<X<X<X<X<X<X<X<X<X<X<X<X<X<X<X<X<X",
"<X<X<X<X<X<X<X<X<X<X<X<XO i O <X<Xp h #.:.1.(.(.(.(.(.(.).2.s o <X<X<X<X<X<X<X<X<X<X<X<X<X<X<X<X<X<X<X<X<X<X<X<X<X<X<X<X",
"<X<X<X<X<X<X<X<X<X<X<X; %.>.d %.>.<.^.(.`.(.(.(.(.(.(.(.(.;.s o <X<X<X<X<X<X<X<X<X<X<X<X<X<X<X<X<X<X<X<X<X<X<X<X<X<X<X<X",
"<X<X<X<X<X<X<X<X<X<Xh >.(.^.(.(.(.(.(.(.(.(.(.(.(.(.(.(.^.&.s ; <X<X<X<X<X<X<X<X<X<X<X<X<X<X<X<X<X<X<X<X<X<X<X<X<X<X<X<X",
"<X<X<X<X<X<X<X<X: +.~.).(.(.(.(.(.(.(.(.(./.(.(.(.(.(.(.1.$.i <X<X<X<X<X<X<X<X<X<X<X<X<X<X<X<X<X<X<X<X<X<X<X<X<X<X<X<X<X",
"<X<X<X<X<X<X<Xy -./././.(.(.(.(.(.(.(.(.(.(.(.(.(.(.(.(.>.+.y <X<X<X<X<X<X<X<X<X<X<X<X<X<X<X<X<X<X<X<X<X<X<X<X<X<X<X<X<X",
"<X<X<X<X<XO h 3.|.'.`.).(.(.(.(.(.).).).(.(.(.(.(.(.(.^.&.g = <X<X<X<X<X<X<X<X<X<X<X<X<X<X<X<X<X<X<X<X<X<X<X<X<X<X<X<X<X",
"<X<X<X<Xo @.{. X X X}.|.[.].'._._._.`.)./.(.(.(.(.(.(.,.$.u o <X<X<X<X<X<X<X<X<X<X<X<X<X<X<X<X<X<X<X<X<X<X<X<X<X<X<X<X<X",
"<X<X<X  +.].|.}.}.}.}.|.|.[.'.`.).).(.(.(.(.(.(.(.(.~.&.s * <X<X<X<X<X<X<X<X<X<X<X<X<Xo . <X<X<X<X<X<X<X<X<X<X<X<X<X<X<X",
"<X<X<XO -.`.).`.`.`.(.(.(.(.(.(.(.(.(.(.(.(.(./.(.^.;.$.u o <X<X<X<X<X<X<X<X<X<X<X<X2 4 A <X<X<X<X<X<X<X<X<X<X<X<X<X<X<X",
"<X<X<X<X&.).(.(.(.(.(.(.(.(.(.(.(.(.(./.(.(.(././.2.2.%.o <X<X<X<X<X<X<X<X<X<X<X<XC a.d.B # <X<X<X<X<X<X<X<X<X<X<X<X<X<X",
"<X<X<X<X#.~./././.)./.).(.(.(.(.(.(.(.(.(.(.(.(.(.(.(.+.  <X<X<X<X<X<X<X<X<X<X<XC d.h.h.A a.V <X<X<X<X<X<X<X<X<X<X<X<X<X",
"<X<X<X<Xd $./././.).^.1./.).^.(.(.(.(.(.(.(.(.(.(.(.(.:.d o <X<X<X<X<X<X<X<X<X4 s.h.h.h.k.D 4 V <X<X<X<X<X<X<X<X<X<X<X<X",
"<X<X<X<X  u %.;.).1.%.,.2.*.:.(.(.(./.(.(././.).(./.^.;.y <X<X<X<X<X<X<X<X<XC d.k.k.k.h.h.f.a.Z . <X<X<X<X<X<X<X<X<X<X<X",
"<X<X<X<X  p i g ;.- i u ; o g (.(.^.1.(./.:.^.).~.%.a @ < 3 <X<X<X<X<X<X<XV d.h.h.h.k.h.d.F 1 . <X<X<X<X<X<X<X<X<X<X<X<X",
"<X<X<X<X<X=   - ,.d o k i.> +.(./.1.$./.~.f ~.:.>.y 3 F s.s.4 <X<X<X<X1 F f.k.h.k.h.J V 3 . <X<X<X<X<X<X<X<X<X<X<X<X<X<X",
"<X<X<X<X<X    o $.y m oXi.= :.:.,.,.u 1.,.a ;.d d p 1 H s.d.1   # < 1 N D H a.H D B 3 3 # # @ <X<X<X<X<X<X<X<X<X<X<X<X<X",
"<X<X<X<X<X<X$ > e v m  .: * d u 2.=.- 2.#.u d s # 1 7 t.t.T + + < 1 7 R 8 # 1 1 4 D a.h.a.F 2 <X<X<X<X<X<X<X<X<X<X<X<X<X",
"<X<X<X<X<X<Xk T.+X-X*X=XE. .o u 2.u y 2.d a ; @ @ 2 i.#Xy.p.X.v.( 6 n XXr.z 4 a.f.h.h.h.D 1 . <X<X<X<X<X<X<X<X<X<X<X<X<X",
"<X<X<X<X<X<Xc %X,X>X>X>X>X&X5.h +.= u >.; @ < F S ! R.8.@.XXb.H.v.I 5.OXi.m C h.k.h.h.k.s.J C <X<X<X<X<X<X<X<X<X<X<X<X<X",
"<X<X<X<X<X<X<Xu.=X>X>X>X>X:Xq.: - ; g #.< N D d.Y N.X.y.i.9.Z.H.x.K r.oXy.M > C J f.k.k.G N 3 <X<X<X<X<X<X<X<X<X<X<X<X<X",
"<X<X<X<X<X<X<X<X .W.&X;X>X@X8.X *   d , B Z s.k.Z ( B.N.V.A.H.A._ 0 p.oX8.k 6.9.n 8 F f.d.a.Z <X<X<X<X<X<X<X<X<X<X<X<X<X",
"<X<X<X<X<X<X<X<X<X9.&X>X$Xu.c       O Z d.F d.k.F w W ! _ x.B.z.I v OXi.m k $X=X+Xq.M 8 1 3 2 <X<X<X<X<X<X<X<X<X<X<X<X<X",
"<X<X<X<X<X<X<X<X<X<Xu.m.R E A F A   < d.h.d.h.k.g.6 } M w ` P w . | y.4.> > w.+X=X:X$Xm.R , <X<X<X<X<X<X<X<X<X<X<X<X<X<X",
"<X<X<X<X<X<X<X<X<X<X<X<X3 Z J a.A # Z G F G h.k.g.2 5.e N.B.N.N.K q 5 @ . <X<X7  .R.%X:X&XT.6.j M 6.<X<X<X<X<X<X<X<X<X<X",
"<X<X<X<X<X<X<X<X<X<X<X<X<X<X. # # 4 d.d.s.d.k.h.D c c [ D.A.G.F.x._ ` 9 <X<X<X<X<X<Xx 0.W.:X=X+X@X&XE.8.k <X<X<X<X<X<X<X",
"<X<X<X<X<X<X<X<X<X<X<X<X<X<X<X<X4 A D d.k.k.k.G 8 v Q D.G.G.H.H.V._ _ ( 6   7 <X<X<X<X<X,  .W.,X>X>X>X*XT.R <X<X<X<X<X<X",
"<X<X<X<X<X<X<X<X<X<X<X<X<X<X<X<X4 d.h.j.l.j.G 8 4.r Z.P.G.G.G.G.N._ _ ` 5 M i.m : <X<X<X<X<Xw.;X>X>X>X,X$X7.<X<X<X<X<X<X",
"<X<X<X<X<X<X<X<X<X<X<X<X<X<X<X<X<XD l.h.s.Z 2 5.x z.D.G.G.P.P.Z.z._ ( q 5.p.e.4.7 <X<X<X<X<X .@X$X-X;X$XE.v <X<X<X<X<X<X",
"<X<X<X<X<X<X<X<X<X<X<X<X<X<X<X<X<X# S B 3 O m R > ..o.O.b.n.n.X.Q P r e..Xe.4.x , <X<X<X<X<X<X7.7.9.E.@Xo.<X<X<X<X<X<X<X",
"<X<X<X<X<X<X<X<X<X<X<X<X<X<X<X<X<X<X<X<X<X<Xm : L / ~ ..b M m m j R p.M.e.4.l , <X<X<X<X<X<X<X<X<X<X<X .<X<X<X<X<X<X<X<X",
"<X<X<X<X<X<X<X<X<X<X<X<X<X<X<X<X<X<X<X<X<X<X<X<X_ A.V.z.! w 7 m r..Xp.8.m l o <X<X<X<X<X<X<X<X<X<X<X<X<X<X<X<X<X<X<X<X<X",
"<X<X<X<X<X<X<X<X<X<X<X<X<X<X<X<X<X<X<X<X<X<X<X: > Q .. .8.u..XOXp.e.5.m z .   , <X<X<X<X<X<X<X<X<X<X<X<X<X<X<X<X<X<X<X<X",
"<X<X<X<X<X<X<X<X<X<X<X<X<X<X<X<X<X<X<X<X<X<X<Xk r.p.OXoXoX.Xy.8.5.m n , o     <X<X<X<X<X<X<X<X<X<X<X<X<X<X<X<X<X<X<X<X<X",
"<X<X<X<X<X<X<X<X<X<X<X<X<X<X<X<X<X<X<X<X<X<X<X, 8.y.r.8.6.5.m m n z @ = @     <X<X<X<X<X<X<X<X<X<X<X<X<X<X<X<X<X<X<X<X<X",
"<X<X<X<X<X<X<X<X<X<X<X<X<X<X<X<X<X<X<X<X<X<X<X<X, n n n x k z > > z > :     O <X<X<X<X<X<X<X<X<X<X<X<X<X<X<X<X<X<X<X<X<X",
"<X<X<X<X<X<X<X<X<X<X<X<X<X<X<X<X<X<X<X<X<X<X<X<X<XO O O > j l n m l : O   $ O <X<X<X<X<X<X<X<X<X<X<X<X<X<X<X<X<X<X<X<X<X",
"<X<X<X<X<X<X<X<X<X<X<X<X<X<X<X<X<X<X<X<X<X<X<X<X<X<X<Xo x m | | M > $   $ O <X<X<X<X<X<X<X<X<X<X<X<X<X<X<X<X<X<X<X<X<X<X",
"<X<X<X<X<X<X<X<X<X<X<X<X<X<X<X<X<X<X<X<X<X<X<X<X<X<X<XO x m R @.z : X $ : O <X<X<X<X<X<X<X<X<X<X<X<X<X<X<X<X<X<X<X<X<X<X",
"<X<X<X<X<X<X<X<X<X<X<X<X<X<X<X<X<X<X<X<X<X<X<X<X<X<X<X@ c R @.x = X $ : O o <X<X<X<X@ O <X<X<X<X<X<X<X<X<X<X<X<X<X<X<X<X",
"<X<X<X<X<X<X<X<X<X<X<X<X<X<X<X<X<X<X<X<X<X<X<X<X<X<X<X<Xc @.T 2 w W ( ! K t w % . % 5 @ <X<X<X<X<X<X<X<X<X<X<X<X<X<X<X<X",
"<X<X<X<X<X<X<X<X<X<X<X<X<X<X<X<X<X<X<X<X<X<X<X<X<X<X<X<Xe M 9 x.A.F.F.D.A.Z.x.) % q L % <X<X<X<X<X<X<X<X<X<X<X<X<X<X<X<X",
"<X<X<X<X<X<X<X<X<X<X<X<X<X<X<X<X<X<X<X<X<X<X<X<X<X<X<X<X: > { U.U.U.I.G.J.Z.x.W w ~ ^ 5   <X<X<X<X<X<X<X<X<X<X<X<X<X<X<X",
"<X<X<X<X<X<X<X<X<X<X<X<X<X<X<X<X<X<X<X<X<X<X<X<X<X<X<X<XO I L.Q.K.C.{ W K <X<X<Xq ' ~ q O <X<X<X<X<X<X<X<X<X<X<X<X<X<X<X",
"<X<X<X<X<X<X<X<X<X<X<X<X<X<X<X<X<X<X<X<X<X<X<X<X<X<X<X<XX ( ' ! c.c.) L X <X<X<XO U ] U $ <X<X<X<X<X<X<X<X<X<X<X<X<X<X<X",
"<X<X<X<X<X<X<X<X<X<X<X<X<X<X<X<X<X<X<X<X<X<X<X<X<X<X<X<X<X<X<XL K.!.P.F._ & <X<X<X0 ] Q + <X<X<X<X<X<X<X<X<X<X<X<X<X<X<X",
"<X<X<X<X<X<X<X<X<X<X<X<X<X<X<X<X<X<X<X<X<X<X<X<X<X<X<X<X<X<X<X<XQ K.Y.P.J.! <X<X<X& q 0 X <X<X<X<X<X<X<X<X<X<X<X<X<X<X<X",
"<X<X<X<X<X<X<X<X<X<X<X<X<X<X<X<X<X<X<X<X<X<X<X<X<X<X<X<X<X<X<X<X<XQ S.P.P.N.6 <X<X<X<X<X<X<X<X<X<X<X<X<X<X<X<X<X<X<X<X<X",
"<X<X<X<X<X<X<X<X<X<X<X<X<X<X<X<X<X<X<X<X<X<X<X<X<X<X<X<X<X<X<X<X<X<XW A.P.A.I <X<X<X<X<X<X<X<X<X<X<X<X<X<X<X<X<X<X<X<X<X",
"<X<X<X<X<X<X<X<X<X<X<X<X<X<X<X<X<X<X<X<X<X<X<X<X<X<X<X<X<X<X<X<X<X<X<XQ A.A.) % <X<X<X<X<X<X<X<X<X<X<X<X<X<X<X<X<X<X<X<X",
"<X<X<X<X<X<X<X<X<X<X<X<X<X<X<X<X<X<X<X<X<X<X<X<X<X<X<X<X<X<X<X<X<X<X<X<X! V.z.0 <X<X<X<X<X<X<X<X<X<X<X<X<X<X<X<X<X<X<X<X",
"<X<X<X<X<X<X<X<X<X<X<X<X<X<X<X<X<X<X<X<X<X<X<X<X<X<X<X<X<X<X<X<X<X<X<X<X6 K w + . <X<X<X<X<X<X<X<X<X<X<X<X<X<X<X<X<X<X<X",
"<X<X<X<X<X<X<X<X<X<X<X<X<X<X<X<X<X<X<X<X<X<X<X<X<X<X<X<X<X<X<X<XX & 5 q ~ ~ U w % <X<X<X<X<X<X<X<X<X<X<X<X<X<X<X<X<X<X<X",
"<X<X<X<X<X<X<X<X<X<X<X<X<X<X<X<X<X<X<X<X<X<X<X<X<X<X<X<X<X<X<X<X+ U ' ' ' ^ L 9 % . <X<X<X<X<X<X<X<X<X<X<X<X<X<X<X<X<X<X",
"<X<X<X<X<X<X<X<X<X<X<X<X<X<X<X<X<X<X<X<X<X<X<X<X<X<X<X<X<X<X<X<X<Xq Q L 0 & $ X X <X<X<X<X<X<X<X<X<X<X<X<X<X<X<X<X<X<X<X"
};
