/* XPM */
static char *result[] = {
/* columns rows colors chars-per-pixel */
"60 60 206 2 ",
"   c #050404",
".  c #0C0606",
"X  c #0D0906",
"o  c #060C0C",
"O  c #0C0C0B",
"+  c #020708",
"@  c #1B0604",
"#  c #130B06",
"$  c #130D0A",
"%  c #1B0C09",
"&  c #180804",
"*  c #13110D",
"=  c #1A1407",
"-  c #0B1314",
";  c #0A1A1B",
":  c #071517",
">  c #141412",
",  c #181715",
"<  c #1A1916",
"1  c #131A1B",
"2  c #1D1C1B",
"3  c #0A0F0F",
"4  c #2B0A05",
"5  c #220D0A",
"6  c #270B08",
"7  c #3B0B05",
"8  c #360C08",
"9  c #241C0B",
"0  c #281B06",
"q  c #35110D",
"w  c #231915",
"e  c #351915",
"r  c #2C2205",
"t  c #2D220E",
"y  c #31260B",
"u  c #362A09",
"i  c #382A05",
"p  c #3E3108",
"a  c #22211E",
"s  c #2C261B",
"d  c #3B3219",
"f  c #352B15",
"g  c #0B1E21",
"h  c #101F21",
"j  c #0B2226",
"k  c #0D272B",
"l  c #142527",
"z  c #0E2D31",
"x  c #0E3237",
"c  c #14353A",
"v  c #15373B",
"b  c #112E32",
"n  c #252422",
"m  c #2B2926",
"M  c #2D2C2A",
"N  c #292726",
"B  c #302E2C",
"V  c #322622",
"C  c #32312D",
"Z  c #3A352C",
"A  c #353433",
"S  c #393733",
"D  c #3C3A35",
"F  c #3D3C3B",
"G  c #373836",
"H  c #2E2E31",
"J  c #450E09",
"K  c #490F0A",
"L  c #480C05",
"P  c #540E07",
"I  c #48110C",
"U  c #5D130C",
"Y  c #57150A",
"T  c #4B1712",
"R  c #64130C",
"E  c #6C140D",
"W  c #73150E",
"Q  c #7A170F",
"!  c #7E1A12",
"~  c #771810",
"^  c #432D06",
"/  c #43340C",
"(  c #4B3A0B",
")  c #483604",
"_  c #553F08",
"`  c #473A13",
"'  c #413E37",
"]  c #483E21",
"[  c #6C250A",
"{  c #5E4B0A",
"}  c #584306",
"|  c #5A4813",
" . c #644C04",
".. c #604E0B",
"X. c #6D5405",
"o. c #7B5E04",
"O. c #755906",
"+. c #614E15",
"@. c #705A11",
"#. c #7D6107",
"$. c #42413E",
"%. c #484338",
"&. c #58513E",
"*. c #615635",
"=. c #6A603B",
"-. c #143D42",
";. c #17454C",
":. c #1A4D53",
">. c #174B52",
",. c #1D555D",
"<. c #1D5056",
"1. c #235158",
"2. c #1E5A62",
"3. c #215C64",
"4. c #23626B",
"5. c #2F666E",
"6. c #256A73",
"7. c #266A73",
"8. c #29737D",
"9. c #444342",
"0. c #4D4B4A",
"q. c #4C4943",
"w. c #57524A",
"e. c #595856",
"r. c #514F4E",
"t. c #635C4B",
"y. c #645951",
"u. c #696457",
"i. c #746C56",
"p. c #756C5A",
"a. c #696866",
"s. c #757473",
"d. c #7B7A77",
"f. c #70706F",
"g. c #831911",
"h. c #8C1B13",
"j. c #951D14",
"k. c #9B1E15",
"l. c #A21F16",
"z. c #A62017",
"x. c #AA2118",
"c. c #A82118",
"v. c #886905",
"b. c #977605",
"n. c #8A711E",
"m. c #A37D04",
"M. c #9A7F24",
"N. c #887F6B",
"B. c #AC8604",
"V. c #A78405",
"C. c #B28A05",
"Z. c #BD9404",
"A. c #AB8A17",
"S. c #AE8F26",
"D. c #C29904",
"F. c #CEA106",
"G. c #D2A404",
"H. c #DBAB04",
"J. c #C9A013",
"K. c #E7B503",
"L. c #F5BE03",
"P. c #F6BF06",
"I. c #E5B91C",
"U. c #D3AF38",
"Y. c #FAC102",
"T. c #F4C004",
"R. c #FAC818",
"E. c #FCCC2B",
"W. c #8D836B",
"Q. c #92866C",
"!. c #86827A",
"~. c #978D74",
"^. c #A69A7B",
"/. c #F9D560",
"(. c #F1CA4A",
"). c #2C7B85",
"_. c #2E7E89",
"`. c #2A7781",
"'. c #2F828D",
"]. c #30838E",
"[. c #318590",
"{. c #3B8A95",
"}. c #388A95",
"|. c #428F9A",
" X c #4B949E",
".X c #46919C",
"XX c #508B94",
"oX c #4D96A0",
"OX c #589CA6",
"+X c #63A2AC",
"@X c #8D8C8A",
"#X c #888684",
"$X c #989796",
"%X c #91908F",
"&X c #AA9D82",
"*X c #B4A788",
"=X c #BFB090",
"-X c #C6B794",
";X c #D4C39C",
":X c #DFCDA3",
">X c #E1CEA3",
",X c #E6D2A5",
"<X c #ECD8AA",
"1X c #F3DDAC",
"2X c #F8E2B0",
"3X c None",
/* pixels */
"3X3X3X3X3X3X3X3X3X3X3X3X3X3X3X3X3X3X3X3X3X3X3X3X3X3X3X3XO 3X3X3X3X3X3X3X3X3X3X3X3X3X3X3X3X3X3X3X3X3X3X3X3X3X3X3X3X3X3X3X",
"3X3X3X3X3X3X3X3X3X3X3X3X3X3X3X3X3X3X3X3X3X3X3X3X3X3XO j o 3X3X3X3X3X3X3X3X3X3X3X3X3X3X3X3X3X3X3X3X3X3X3X3X3X3X3X3X3X3X3X",
"3X3X3X3X3X3X3X3X3X3X3X3X3X3X3X3X3X3X3X3X3X3X3X3X- l 3.7.; 3X3X3X3X3X3X3X3X3X3X3X3X3X3X3X3X3X3X3X3X3X3X3X3X3X3X3X3X3X3X3X",
"3X3X3X3X3X3X3X3X3X3X3X3X3X3X3X3X3X3X3X3X3X3X2 c 3.).[.6.; 3X3X3X3X3X3X3X3X3X3X3X3X3X3X3X3X3X3X3X3X3X3X3X3X3X3X3X3X3X3X3X",
"3X3X3X3X3X3X3X3X3X3X3X2 3X3X3X3X3X3X3X3Xl ;.4._.[.'.'.2.; 3X3X3X3X3X3X3X3X3X3X3X3X3X3X3X3X3X3X3X3X3X3X3X3X3X3X3X3X3X3X3X",
"3X3X3X3X3X3X3X3X3X3XO O 3X3X3X3X3Xh b :.8.].].].'.'._.>.; 3X3X3X3X3X3X3X3X3X3X3X3X3X3X3X3X3X3X3X3X3X3X3X3X3X3X3X3X3X3X3X",
"3X3X3X3X3X3X3X3X3X- c ; > l v :.3.8._.[.].].].].[.'.`.;.g 3X3X3X3X3X3X3X3X3X3X3X3X3X3X3X3X3X3X3X3X3X3X3X3X3X3X3X3X3X3X3X",
"3X3X3X3X3X3X3X3Xj ,.).2.3.8.].].[.].].].].].].].'.[.6.v 1 3X3X3X3X3X3X3X3X3X3X3X3X3X3X3X3X3X3X3X3X3X3X3X3X3X3X3X3X3X3X3X",
"3X3X3X3X3X3X3 c 8.].].].[.].].].].].].].'.'.'.[.[.'.,.x : 3X3X3X3X3X3X3X3X3X3X3X3X3X3X3X3X3X3X3X3X3X3X3X3X3X3X3X3X3X3X3X",
"3X3X3X3X3X- :.).].].].].].].].].].].].'.'.[.'.'.'.).>.x : 3X3X3X3X3X3X3X3X3X3X3X3X3X3X3X3X3X3X3X3X3X3X3X3X3X3X3X3X3X3X3X",
"3X3X3X3Xl 5.].].].].].].].].].].].].[.'.[.'.[.'.[.6.-.k 3X3X3X3X3X3X3X3X3X3X3X3X3X3X3X3X3X3X3X3X3X3X3X3X3X3X3X3X3X3X3X3X",
"3X3XO v XX+XOX.X{.[.].].].].[.[.[.[.'.'.[.'.'.'.'.,.-.; 3X3X3X3X3X3X3X3X3X3X3X3X3X3X3X3X3X3X3X3X3X3X3X3X3X3X3X3X3X3X3X3X",
"3X- 1.XX+X+X+X+X+XOXoX X|.{.}.}.[.].].].].].'.[.`.;.z O 3X3X3X3X3X3X3X3X3X3X3X3X3X3X3X3X3X3X3X3X3X3X3X3X3X3X3X3X3X3X3X3X",
"  b {. X XOXoX X X|.{.{.[.[.].].].].].].].].[.).:.-.: 3X3X3X3X3X3X3X3X3X3X3X3X3X3XO 3X3X3X3X3X3X3X3X3X3X3X3X3X3X3X3X3X3X",
"3Xv ].].].].].].].].'.'.].].].].].].].'.'.].`.2.>.z o 3X3X3X3X3X3X3X3X3X3X3X3X3X6 U q 3X3X3X3X3X3X3X3X3X3X3X3X3X3X3X3X3X",
"3Xc ].].].].].].].].].].].].].].].].].].'.'.`.).2.: . 3X3X3X3X3X3X3X3X3X3X3Xq ! j.E @ % 3X3X3X3X3X3X3X3X3X3X3X3X3X3X3X3X",
"3Xc 7.'.].].'.[.[._._.[.[._._.[.].].].].].].].[.2.o , 3X3X3X3X3X3X3X3X3X3Xq h.x.l.E W R % 3X3X3X3X3X3X3X3X3X3X3X3X3X3X3X",
"3X; z 8.).].[.).6._.[.)._.[.[.[.].].].].].].].[.).;.; 3X3X3X3X3X3X3X3X3Xq h.x.x.x.x.g.q K 3X3X3X3X3X3X3X3X3X3X3X3X3X3X3X",
"3X  ; :.-.).4.-.,.2.-.c _.[.[._.].].)._.'.].).8.:.: 3X3X3X3X3X3X3X3X3XK j.x.l.l.l.x.k.h.E 5 3X3X3X3X3X3X3X3X3X3X3X3X3X3X",
"3X> : g ; 3.j : o 1 > g _.[._.3._.[.,.8.'.'.v ; @ 7 I q 3X3X3X3X3X6 U l.l.l.x.x.l.j.E 7 X 3X3X3X3X3X3X3X3X3X3X3X3X3X3X3X",
"3X3X3X    3.:.; F $X$.k _.8._.-.7.].-.7.,.3.c 4 Q k.l.W % 3X3X% 7 Q l.l.l.l.j.~ Y 4 $ 3X3X3X3X3X3X3X3X3X3X3X3X3X3X3X3X3X",
"3X3X3X.   b ; N f.e.- :.<.<.).k 3.8.k ;.;.; l % P Q h.7   6 8 L P P R E E P 8 @ % 5 . O 3X3X3X3X3X3X3X3X3X3X3X3X3X3X3X3X",
"3X3X3X3XC ' u.p.i.' 3 g : 4.4.: 3.3.k x k ; 7 6 e.@Xy.@   7 L L 7 7 7 4 6 8 K R g.j.W U 6 3X3X3X3X3X3X3X3X3X3X3X3X3X3X3X",
"3X3X3X3XW.>X1X1X1X>X~.M : 6.z o 4.-.j ; @ 5 0 w.@X@Xf.t.} i @ . V n 8 R h.l.x.x.l.l.R 7 @ 3X3X3X3X3X3X3X3X3X3X3X3X3X3X3X",
"3X3X3X3XQ.2X1X<X1X1X1XN.l b ; : 4.h # 8 W [ b.t.s.A s.p.G.B.} w s.s.V J l.x.c.l.c.c.~ U 4 3X3X3X3X3X3X3X3X3X3X3X3X3X3X3X",
"3X3X3X3X%.^.:X<X1X1X<XN.2 3 g j >.@ L R k.Y B.b.i.d.i.V.T.B.} $.@XN.$.I l.c.c.c.l.c.R I 6 3X3X3X3X3X3X3X3X3X3X3X3X3X3X3X",
"3X3X3X3X3Xw i.-X>X1X-Xy.- +   g < Y Y Q x.W i m.Z.Z.G.Y.H.v.i s.&Xf.G q g.j.j.l.c.c.g.U 6 3X3X3X3X3X3X3X3X3X3X3X3X3X3X3X",
"3X3X3X3X3X3XZ ^.:X*Xu.S & &   + K x.h.j.x.j.0 ) ( v.D.G.b.} S $XXX0.N m , 6 I K K Y J L 5 3X3X3X3X3X3X3X3X3X3X3X3X3X3X3X",
"3X3X3X3X3X3X3X3Xu.V Y g.j.h.@ & g.k.h.k.x.j.4 d G r  .^ i t s.@Xw.M w.&Xu.M 3X3X3X3X3X3X3X3X3X3X3X3X3X3X3X3X3X3X3X3X3X3X",
"3X3X3X3X3X3X3X3X3X3Xq I U P & R Q E E k.x.h.4 $.s V.Z.m.) n u.0.N * W.1X:XW.9., 3X3X3X3X3X3X3X3X3X3X3X3X3X3X3X3X3X3X3X3X",
"3X3X3X3X3X3X3X3X3X3X3X3XX @ 4 E k.l.l.l.z.R N N #.L.H.L.H.b.y = = w F t.-X<X=Xu.n 3X3X3X3X3X3X3X3X3X3X3X3X3X3X3X3X3X3X3X",
"3X3X3X3X3X3X3X3X3X3X3X3X3Xw E E h.x.x.l.W e A } K.T.Y.T.Y.H.#.X.O./ < N D W.,X>XQ.F 3X3X3X3X3X3X3X3X3X3X3X3X3X3X3X3X3X3X",
"3X3X3X3X3X3X3X3X3X3X3X3X3X3X~ x.x.x.l.E e 9.` D.Y.Y.T.Y.L.C.o.o.X.y $.d.r.2 %.*X<X-Xt.C G Z 3X3X3X3X3X3X3X3X3X3X3X3X3X3X",
"3X3X3X3X3X3X3X3X3X3X3X3X3X3Xq g.j.! J & q.M +.D.F.H.H.K.Z.o.o. .f w.!.a.9.m   w i.;X,X*X-X&Xq.3X3X3X3X3X3X3X3X3X3X3X3X3X",
"3X3X3X3X3X3X3X3X3X3X3X3X3X3X3X3Xq 6 * G 9., F q.w.&.w.=.*.] r C f.#Xa.F H O 3X3X3Xw.<X1X1X1X-Xu.n 3X3X3X3X3X3X3X3X3X3X3X",
"3X3X3X3X3X3X3X3X3X3X3X3X3X3X3X3X3X3X3Xm > / v.#.O.| d a N B w.#Xd.e.F M O     3X3Xy.,X1X1X1X2X-Xw.3X3X3X3X3X3X3X3X3X3X3X",
"3X3X3X3X3X3X3X3X3X3X3X3X3X3X3X3X3X3X3X3X3Xp B.B.v._ d S e.d.#Xs.r.F N , , *   3X3X' *X-X1X,X>X*X' 3X3X3X3X3X3X3X3X3X3X3X",
"3X3X3X3X3X3X3X3X3X3X3X3X3X3X3X3X3X3X3X3X* n Z q.e.s.@X%X#Xs.e.9.F n 2 G M , O   3X3Xw.%.Q.;X~.t.3X3X3X3X3X3X3X3X3X3X3X3X",
"3X3X3X3X3X3X3X3X3X3X3X3X3X3X3X3X3X3X3X3X< a.#X%X$X#Xs.e.r.9.F m , n G F F n > O O 3X3X3X3Xu.p.3X3X3X3X3X3X3X3X3X3X3X3X3X",
"3X3X3X3X3X3X3X3X3X3X3X3X3X3X3X3X3X3X3X3X> M e.r.q.9.' F A m 2 2 H F F F F G n *   3X3X3X3X3X3X3X3X3X3X3X3X3X3X3X3X3X3X3X",
"3X3X3X3X3X3X3X3X3X3X3X3X3X3X3X3X3X3X2 H A * 2 n N n a 2 * 3 m F $.F F F F F S 2 * + 3X3X3X3X3X3X3X3X3X3X3X3X3X3X3X3X3X3X",
"3X3X3X3X3X3X3X3X3X3X3X3X3X3X3X3X1 2 A F F H n n m M C S A 2 * a G F F F F F F B 2 O O 3X3X3X3X3X3X3X3X3X3X3X3X3X3X3X3X3X",
"3X3X3X3X3X3X3X3X3X3X3X3X3X9 p $ > A F ' F F G S A A B M m N ,   - M F F F F F F B , 3 . 3X3X3X3X3X3X3X3X3X3X3X3X3X3X3X3X",
"3X3X3X3X3X3X3X3X3X3X3X3X3Xu S.A.{ f N m n w < , > > , 3 * * O   3XO , M F $.F F F B 2 $ O 3X3X3X3X3X3X3X3X3X3X3X3X3X3X3X",
"3X3X3X3X3X3X3X3X3X3X3X3X3X3Xn./.P.D.i   > O $ O   O > 3X3X3X3X3X3X3X3XO 2 M G F F F M > O   3X3X3X3X3X3X3X3X3X3X3X3X3X3X",
"3X3X3X3X3X3X3X3X3X3X3X3X3X3X} U.R.Y.b.X 3X3X3X3X3X3X3X3X3X3X3X3X3X3X3X3X3X3Xn M A H N 9 p r = 3X3X3X3X3X3X3X3X3X3X3X3X3X",
"3X3X3X3X3X3X3X3X3X3X3X3X3X3X3XA.R.L.Z.i 3X3X3X3X3X3X3X3X3X3X3X3X3X3X3X3X3X3XC 3 = ..M.D.K.H.b.^ 9 3X3X3X3X3X3X3X3X3X3X3X",
"3X3X3X3X3X3X3X3X3X3X3X3X3X3X3X{ K.L.G.( 3X3X3X3X3X3X3X3X3X3X3X3X3X3X3X3X3X3X3X3Xu v.U.(.E.Y.T.F.X.9 3X3X3X> 3X3X3X3X3X3X",
"3X3X3X3X3X3X3X3X3X3X3X3X3X3X3X3XC.Y.Z.^ 3X3X3X3X3X3X3X3X3X3X3X3X3X3X3X3X3X3X3X3X3X3X3X@.S.I.Y.Y.H. .9 3X% 9 * 3X3X3X3X3X",
"3X3X3X3X3X3X3X3X3X3X3X3X3X3X3X3XX.L.m.i 3X3X3X3X3X3X3X3X3X3X3X3X3X3X3X3X3X3X3X3X3X3X3X3X3X{ b.G.L.D. .= t / t O 3X3X3X3X",
"3X3X3X3X3X3X3X3X3X3X3X3X3X3X3X3Xy b.v.r 3X3X3X3X3X3X3X3X3X3X3X3X3X3X3X3X3X3X3X3X3X3X3X3X3X3X3Xp o.V.O.r i +.| 9 O 3X3X3X",
"3X3X3X3X3X3X3X3X3X3X3X3X3X3X3X3X3Xr i X $ 3X3X3X3X3X3X3X3X3X3X3X3X3X3X3X3X3X3X3X3X3X3X3X3X3X3X3X3X3Xr X / | | | = 3X3X3X",
"3X3X3X3X3X3X3X3X3X3X3X3X3X3X3X3X3Xu / u 9 , 3X3X3X3X3X3X3X3X3X3X3X3X3X3X3X3X3X3X3X3X3X3X3X3X3X3X3X3X3X3X, y | | ` = 3X3X",
"3X3X3X3X3X3X3X3X3X3X3X3X3X3X3X3X9 | +.| t = $ 3X3X3X3X3X3X3X3X3X3X3X3X3X3X3X3X3X3X3X3X3X3X3X3X3X3X3X3X3X3X3X9 | ( = 3X3X",
"3X3X3X3X3X3X3X3X3X3X3X3X3X3X3X* / | | p = O 3X3X3X3X3X3X3X3X3X3X3X3X3X3X3X3X3X3X3X3X3X3X3X3X3X3X3X3X3X3X3X3XX r = 3X3X3X",
"3X3X3X3X3X3X3X3X3X3X3X3X3XO = ( +.+.u O 3X3X3X3X3X3X3X3X3X3X3X3X3X3X3X3X3X3X3X3X3X3X3X3X3X3X3X3X3X3X3X3X3X3X3X3X3X3X3X3X",
"3X3X3X3X3X3X3X3X3X3X3X3X3X3X* p ` r # 3X3X3X3X3X3X3X3X3X3X3X3X3X3X3X3X3X3X3X3X3X3X3X3X3X3X3X3X3X3X3X3X3X3X3X3X3X3X3X3X3X",
"3X3X3X3X3X3X3X3X3X3X3X3X3X3X3X# * 3X3X3X3X3X3X3X3X3X3X3X3X3X3X3X3X3X3X3X3X3X3X3X3X3X3X3X3X3X3X3X3X3X3X3X3X3X3X3X3X3X3X3X",
"3X3X3X3X3X3X3X3X3X3X3X3X3X3X3X3X3X3X3X3X3X3X3X3X3X3X3X3X3X3X3X3X3X3X3X3X3X3X3X3X3X3X3X3X3X3X3X3X3X3X3X3X3X3X3X3X3X3X3X3X",
"3X3X3X3X3X3X3X3X3X3X3X3X3X3X3X3X3X3X3X3X3X3X3X3X3X3X3X3X3X3X3X3X3X3X3X3X3X3X3X3X3X3X3X3X3X3X3X3X3X3X3X3X3X3X3X3X3X3X3X3X"
};
