/* XPM */
static char *result[] = {
/* columns rows colors chars-per-pixel */
"60 60 209 2 ",
"   c #040504",
".  c #0C0D0C",
"X  c #0A0807",
"o  c #130E0C",
"O  c #1A0E0C",
"+  c #14110E",
"@  c #1E150D",
"#  c #0E1213",
"$  c #0F1819",
"%  c #141413",
"&  c #1A1512",
"*  c #1B1915",
"=  c #141B1C",
"-  c #1C1C1B",
";  c #0D1010",
":  c #240E0B",
">  c #2C120D",
",  c #241C0E",
"<  c #21100D",
"1  c #38140E",
"2  c #211C14",
"3  c #261A17",
"4  c #3C1914",
"5  c #341A16",
"6  c #19201F",
"7  c #2C2513",
"8  c #22201F",
"9  c #2A2518",
"0  c #342C15",
"q  c #322A19",
"w  c #382A16",
"e  c #3D3319",
"r  c #3D3214",
"t  c #37280F",
"y  c #151F20",
"u  c #152224",
"i  c #1C2A2D",
"p  c #192425",
"a  c #1C2E31",
"s  c #1D3236",
"d  c #242422",
"f  c #2B2A25",
"g  c #2C2C2B",
"h  c #292625",
"j  c #302F2D",
"k  c #322A23",
"l  c #33312C",
"z  c #393425",
"x  c #21363A",
"c  c #21393E",
"v  c #283233",
"b  c #343332",
"n  c #383736",
"m  c #3C3A36",
"M  c #3E3C3C",
"N  c #411914",
"B  c #4B1A13",
"V  c #4A1F19",
"C  c #551D15",
"Z  c #581E16",
"A  c #571F18",
"S  c #611F18",
"D  c #42371A",
"F  c #493D1E",
"G  c #473917",
"H  c #562C1C",
"J  c #64221A",
"K  c #6C241C",
"L  c #612117",
"P  c #73261D",
"I  c #76281E",
"U  c #7C291F",
"Y  c #403F3F",
"T  c #403E37",
"R  c #492F21",
"E  c #7C2A21",
"W  c #68322B",
"Q  c #5C4A1B",
"!  c #524218",
"~  c #4E411D",
"^  c #614F1C",
"/  c #6C571E",
"(  c #705B1F",
")  c #524521",
"_  c #5C4D24",
"`  c #574A22",
"'  c #5F5027",
"]  c #43413B",
"[  c #4B453C",
"{  c #4B422A",
"}  c #635222",
"|  c #6C5421",
" . c #755E21",
".. c #725F28",
"X. c #7B6424",
"o. c #77642A",
"O. c #716132",
"+. c #243D42",
"@. c #264449",
"#. c #294449",
"$. c #2C4D53",
"%. c #2F5259",
"&. c #2D5056",
"*. c #31545B",
"=. c #3A565C",
"-. c #304F55",
";. c #345B63",
":. c #385E66",
">. c #376069",
",. c #3A646C",
"<. c #386067",
"1. c #3C6A73",
"2. c #3D6A73",
"3. c #454342",
"4. c #494742",
"5. c #4D4A45",
"6. c #4C4B4A",
"7. c #514C45",
"8. c #54524B",
"9. c #595346",
"0. c #5B5956",
"q. c #615B4C",
"w. c #605E5C",
"e. c #656158",
"r. c #746D58",
"t. c #7B735F",
"y. c #7E7045",
"u. c #41727C",
"i. c #4B6E74",
"p. c #6B6B6A",
"a. c #77746B",
"s. c #757472",
"d. c #7D7C7B",
"f. c #797876",
"g. c #746D60",
"h. c #832B21",
"j. c #8C2D23",
"k. c #963026",
"l. c #9A3127",
"z. c #9E3328",
"x. c #922F24",
"c. c #856C26",
"v. c #8A6E28",
"b. c #967A2B",
"n. c #94792A",
"m. c #846F35",
"M. c #947D37",
"N. c #89712F",
"B. c #837E72",
"V. c #9D8237",
"C. c #A5862E",
"Z. c #AB8C32",
"A. c #A68A39",
"S. c #BC9835",
"D. c #BD9C3C",
"F. c #C29E39",
"G. c #CAA439",
"H. c #D3AD3D",
"J. c #DCB33E",
"K. c #BDA24F",
"L. c #8D846E",
"P. c #85827A",
"I. c #978D75",
"U. c #9B917A",
"Y. c #91866C",
"T. c #A2977C",
"R. c #D3B65C",
"E. c #ECBE42",
"W. c #E3B840",
"Q. c #EEC043",
"!. c #E9C24E",
"~. c #F1C243",
"^. c #EDC85B",
"/. c #F1C752",
"(. c #F2D072",
"). c #447781",
"_. c #467B86",
"`. c #477D88",
"'. c #487E8A",
"]. c #49808B",
"[. c #4D8590",
"{. c #598D97",
"}. c #548994",
"|. c #5D909A",
" X c #568088",
".X c #62949E",
"XX c #6D9CA5",
"oX c #6697A1",
"OX c #719FA8",
"+X c #71A0A9",
"@X c #858484",
"#X c #8A8987",
"$X c #959594",
"%X c #90908F",
"&X c #A59A82",
"*X c #B5A98D",
"=X c #BBAE91",
"-X c #BEB191",
";X c #B6B6B6",
":X c #CBBD9C",
">X c #C3B697",
",X c #D0C29F",
"<X c #DACAA5",
"1X c #EEDAAF",
"2X c #E5D4AC",
"3X c #EFDBB1",
"4X c #F1DDB2",
"5X c #F4E0B4",
"6X c None",
/* pixels */
"6X6X6X6X6X6X6X6X6X6X6X6X6X6X6X6X6X6X6X6X6X6X6X6X6X6X6X6X6X6X6X6X6X6X6X6X6X6X6X6X6X6X6X6X6X6X6X6X6X6X6X6X6X6X6X6X6X6X6X6X",
"6X6X6X6X6X6X6X6X6X6X6X6X6X6X6X6X6X6X6X6X6X6X6X6X6X6X6X6X6X6X6X% % 6X6X6X6X6X6X6X6X6X6X6X6X6X6X6X6X6X6X6X6X6X6X6X6X6X6X6X",
"6X6X6X6X6X6X6X6X6X6X6X6X6X6X6X6X6X6X6X6X6X6X6X6X6X6X6X6X6X6X6X. i i % 6X6X6X6X6X6X6X6X6X6X6X6X6X6X6X6X6X6X6X6X6X6X6X6X6X",
"6X6X6X6X6X6X6X6X6X6X6X6X6X6X6X6X6X6X6X6X6X6X6X6X6X6X6X6X6X6X6X. $._.*.a 6X6X6X6X6X6X6X6X6X6X6X6X6X6X6X6X6X6X6X6X6X6X6X6X",
"6X6X6X6X6X6X6X6X6X6X6X6X6X6X6X6X6X6X6X6X6X6X6X6X6X6X6X6X6X6X6X. +.'.].).;.+.6X6X6X6X6X6X6X6X6X6X6X6X6X6X6X6X6X6X6X6X6X6X",
"6X6X6X6X6X6X6X6X6X6X6X6X6X6X6X6X6X6X6X6X6X6X6X6X6X6X6X6X6X6X6X% x ).].].'._.>.@.d 6X6X6X6X6X6X6Xd 6X6X6X6X6X6X6X6X6X6X6X",
"6X6X6X6X6X6X6X6X6X6X6X6X6X6X6X6X6X6X6X6X6X6X6X6X6X6X6X6X6X6X6Xd a 1.].].'.].].'.2.%.+.v 6X6X6X6X% % 6X6X6X6X6X6X6X6X6X6X",
"6X6X6X6X6X6X6X6X6X6X6X6X6X6X6X6X6X6X6X6X6X6X6X6X6X6X6X6X6X6X6Xd a ;.].].'.].'.].[.[.`.).,.*.#.v = @.x * 6X6X6X6X6X6X6X6X",
"6X6X6X6X6X6X6X6X6X6X6X6X6X6X6X6X6X6X6X6X6X6X6X6X6X6X6X6X6X6X6X6Xi $._.].].].].].].].].].].].].u.,.2.].$.= 6X6X6X6X6X6X6X",
"6X6X6X6X6X6X6X6X6X6X6X6X6X6X6X6X6X6X6X6X6X6X6X6X6X6X6X6X6X6X6X6Xi @.u.].].].'.].].].].].].].].].].].].].,.i 6X6X6X6X6X6X",
"6X6X6X6X6X6X6X6X6X6X6X6X6X6X6X6X6X6X6X6X6X6X6X6X6X6X6X6X6X6X6X6Xu +.,.].'.].'.].].].].].].].].].].].].].].u.+.- 6X6X6X6X",
"6X6X6X6X6X6X6X6X6X6X6X6X6X6X6X6X6X6X6X6X6X6X6X6X6X6X6X6X6X6X6X6Xy c %.].].].].].].].].].].].].].].].].].].].}.=.= 6X6X6X",
"6X6X6X6X6X6X6X6X6X6X6X6X6X6X6X6X6X6X6X6X6X6X6X6X6X6X6X6X6X6X6X6X* a @.2.].].].].].].].].[.[.[.].].].[.}.|.oXXXOXi.v 6X6X",
"6X6X6X6X6X6X6X6X6X6X6X6X6X6X6X6X6X6X6X6X6X6X6X6X6X6X6X6X6X6X6X6X6X= c *.`.].].`.].`.].].].].}.{.|.oXoXXX+X+XOXOXOX'.a % ",
"6X6X6X6X6X6X6X6X6X6X6X6X6X6X6X6X6X6X6X6X6X6X6X6X6X6X6X6X6X6X6X6X6X# i @.>.`.].].`.].].].].].].].].].}.}.{.{.|.{.{.}.,.# ",
"6X6X6X6X6X6X6X6X6X6X6X6X6X6X6X6X6X6X6X6X6X6X6X6X6X6X6X6X6X6X6X6X6X6X$ +.;.1.`.].].].].].].].`.].].].].].'.].].].'.].<.* ",
"6X6X6X6X6X6X6X6X6X6X6X6X6X6X6X6X6X6X6X6X6X6X6X6X6X6X6X6X6X6X6X6X6X6X. s `._.`.].].].].].].`.].].].].].].].].].].].].;.8 ",
"6X6X6X6X6X6X6X6X6X6X6X6X6X6X6X6X6X6X6X6X6X6X6X6X6X6X6X6X6X6X6X6X6X- = +.`.].].].].].].].].].].].].].]._.].].].[.].1.&.d ",
"6X6X6X6X6X6X6X6X6X6X6X6X6X6X6X6X6X6X6X6X6X6X6X6X6X6X6X6X6X6X6X6X6X6Xa 1.].].].].].[.].].].].].].2.).[.2.>.`.[.).1.#.= 8 ",
"6X6X6X6X6X6X6X6X6X6X6X6X6X6X6X6X6X6X6X6X6X6X6X6X6X6X6X6X6X6X6X6X6X6Xo u %.2.`.].].2.`.`.`.].].[.*.u c *.s s 1.;.i @.. - ",
"6X6X6X6X6X6X6X6X6X6X6X6X6X6X6X6X6X& O < 6X6X6X6X6X6X6X6X6X6X6X6X5 A A 1 & = ;._.`.&.).].:.2.[.].%.; b # ; u %.s . u 6Xg ",
"6X6X6X6X6X6X6X6X6X6X6X6X6X6X6X6X6XB K P E J R 6X6X6X6X6X6X6X6X6X1 k.k.j.C p *.#.1.s ,.].s ,.2.u.>.$ #X%Xj a ,.u   . 6X6X",
"6X6X6X6X6X6X6X6X6X6X6X6X6X6X6X& < > Z C A Z J S V 3 6X6Xg 6X6X; X Z W W O - % a $.a $._.a %.2.@.%.y 6 0.4.% i . . g 6X6X",
"6X6X6X6X6X6X6X6X6X6X6X6X6X6X6X5 J h.k.x.h.E S A B O n s.0.+ 7 G ! [ d.;Xf.4 O u u s s 2.i a `.s ; 6 ] Y.I.U.t.q.f 6X6X6X",
"6X6X6X6X6X6X6X6X6X6X6X6X6X6X6X& : C k.l.l.l.z.z.K d 0.#Xp.q  .G.Z.@X3.q.#XY , 4 + u u ,.s # %.s - L.<X5X5X5X1X,X5.6X6X6X",
"6X6X6X6X6X6X6X6X6X6X6X6X6X6X6XV P h.l.k.l.l.j.J 1 j w.%X@XD X.W.D.r. Xg.f.O./ I C > O $.@.$ p = 7.<X4X1X1X3X5X-X] 6X6X6X",
"6X6X6X6X6X6X6X6X6X6X6X6X6X6X6X3 1 Z l.l.h.C w m 4.g 6.#X$Xz / F.Q.A.y.y.m.F.H h.U B 1 p +.# = . 7.-X5X1X2X<XU.9.6X6X6X6X",
"6X6X6X6X6X6X6X6X6X6X6X6X6X6X6XN K P K C k 4.g.*X:X] m p.$XT F b.W.W.G.Z.b.F N l.j.Z K 4 u ; X   n P.<X1X,XI.m 6X6X6X6X6X",
"6X6X6X6X6X6X6X6X6X6X6X6X6X6X6Xh O o g q.U.:X2X2X*X] - 5.P.w., D ! Q 0 q F t Z z.k.h.k.h.< X : > 5 7.r.=X-X9.6X6X6X6X6X6X",
"6X6X6X6X6X6X6X6X6X6X6X6X6X9.Y m m r.=X<X<X>XB.[ d 6X% * l m : Q X.v.c.g 5.< L z.k.U U h.B   Z x.h.K 3 T 6X6X6X6X6X6X6X6X",
"6X6X6X6X6X6X6X6X6X6Xb 8.U.:X=X&X:X2X:XL.9.g 6X6X6X6X6X& G ^ ( S.W.Z.W.^ m k C k.k.U L P I 4 > N 4 5 6X6X6X6X6X6X6X6X6X6X",
"6X6X6X6X6X6X6X6X6X4.I.<X4X4X1X4X>Xq.j 6X6X6X6X6X6X6X6XG  . .n.E.E.W.W.G.D b N U k.l.k.x.P B > & 6X6X6X6X6X6X6X6X6X6X6X6X",
"6X6X6X6X6X6X6X6X6X7.=X1X1X4X4X4Xg.6X6X6X6X6X6Xb 8.d , /  . .C.E.E.E.E.~.Z.z m 4 U z.l.x.I I V 6X6X6X6X6X6X6X6X6X6X6X6X6X",
"6X6X6X6X6X6X6X6X6Xb Y.*X2X<X-X-X9.6X6X6X6X6Xd Y s.s.l G  . .c.G.~.~.~.~.~.v.m ] > P k.l.z.j.k 6X6X6X6X6X6X6X6X6X6X6X6X6X",
"6X6X6X6X6X6X6X6X6X6X9.*XT.e.9.e.6X6X6X6X6X6X8 m 6.s.d.[ D ^ | c.D.F.F.A.V.m.9 6.l O B I U N 6X6X6X6X6X6X6X6X6X6X6X6X6X6X",
"6X6X6X6X6X6X6X6X6X6X6X7.6X6X6X6X6X6X6X6X6X6X. * m 5.s.@X0.k k 6.8.9.8.5.3.3.l - 6.j 6X6X6X6X6X6X6X6X6X6X6X6X6X6X6X6X6X6X",
"6X6X6X6X6X6X6X6X6X6X6X6X6X6X6X6X6X6X6X6X6X# X X * n 6.p. XB.6.g - w ) ..b.Z.c.2 f 6X6X6X6X6X6X6X6X6X6X6X6X6X6X6X6X6X6X6X",
"6X6X6X6X6X6X6X6X6X6X6X6X6X6X6X6X6X6X6X6X* * . % 3 p b 3.w.B.@Xf.w.4.F ~ o.b.Q 6X6X6X6X6X6X6X6X6X6X6X6X6X6X6X6X6X6X6X6X6X",
"6X6X6X6X6X6X6X6X6X6X6X6X6X6X6X6X6X6X6X% y h % % b b - g T 6.0.s.#X$X%X@Xp.8.3.g 6X6X6X6X6X6X6X6X6X6X6X6X6X6X6X6X6X6X6X6X",
"6X6X6X6X6X6X6X6X6X6X6X6X6X6X6X6X6X% + - j M * % b 3.n d 3 b Y 3.6.0.p.@X%X#Xd.M 6X6X6X6X6X6X6X6X6X6X6X6X6X6X6X6X6X6X6X6X",
"6X6X6X6X6X6X6X6X6X6X6X6X6X6X6X6X% & 8 j Y Y j O h Y [ Y j 8 8 j b M Y Y 4.6.n * 6X6X6X6X6X6X6X6X6X6X6X6X6X6X6X6X6X6X6X6X",
"6X6X6X6X6X6X6X6X6X6Xk * 6X6X* % - h n Y Y +.Y h & h T +.Y Y b g d d d d d y % 3 - 6X6X6X6X6X6X6X6X6X6X6X6X6X6X6X6X6X6X6X",
"6X6X6X6X6X6Xq F } X.v.c.} , % d b Y Y [ Y Y Y Y 8 ; 8 g n Y +.[ M +.n n b j j Y b d 6X6X6X6X6X6X6X6X6X6X6X6X6X6X6X6X6X6X",
"6X- * o 0 Q c.S.W.E.E.E.Q.Z.7 h Y Y Y +.Y T j h 8 & % % - h l n Y [ Y Y Y Y Y Y M b d 6X6X6X6X6X6X6X6X6X6X6X6X6X6X6X6X6X",
"6X* q 7 r v.G.H.J.W.!.^.^.(.A.q j j j g g 6X6X6X6X6X6X6X% % % - h j b M M M #.T M Y b 8 6X6X6X6X6X6X6X6X6X6X6X6X6X6X6X6X",
"6X+ D ^ ~ D 0 F } ..o.O.m.M.V._ . - 6X6X6X6X6X6X6X6X6X6X6X6X. X X O = 3 f h b T M M M f % 6X9 * 6X6X6X6X6X6X6X6X6X6X6X6X",
"6X& ) ' ` q 6X6X6X6X6X6X6X6X6X6X6X6X6X6X6X6X6X6X6X6X6X6X6X6X6X6X6X. o ; % % & 8 p * z } o.V.| 6X6X6X6X6X6X6X6X6X6X6X6X6X",
"6X9 ' _ 0 6X6X6X6X6X6X6X6X6X6X6X6X6X6X6X6X6X6X6X6X6X6X6X6X6X6X6X6X6X6X6X6X6X6X% . ! G.Q.(.K.~ 6X6X6X6X6X6X6X6X6X6X6X6X6X",
"6Xe } ~ & 6X6X6X6X6X6X6X6X6X6X6X6X6X6X6X6X6X6X6X6X6X6X6X6X6X6X6X6X6X6X6X6X6X6X6Xe S.~./.R.` 6X6X6X6X6X6X6X6X6X6X6X6X6X6X",
"6X2 F e % 6X6X6X6X6X6X6X6X6X6X6X6X6X6X6X6X6X6X6X6X6X6X6X6X6X6X6X6X6X6X6X6X6X6X9 | W.~.!.o.6X6X6X6X6X6X6X6X6X6X6X6X6X6X6X",
"6X6X6X& * 6X6X6X6X6X6X6X6X6X6X6X6X6X6X6X6X6X6X6X6X6X6X6X6X6X6X6X6X6X6X6X6X6X6Xq n.E.Q.M.6X6X6X6X6X6X6X6X6X6X6X6X6X6X6X6X",
"6X6X6X6X6X6X6X6X6X6X6X6X6X6X6X6X6X6X6X6X6X6X6X6X6X6X6X6X6X6X6X6X6X6X6X6X6X6X6Xe C.~.Z.D 6X6X6X6X6X6X6X6X6X6X6X6X6X6X6X6X",
"6X6X6X6X6X6X6X6X6X6X6X6X6X6X6X6X6X6X6X6X6X6X6X6X6X6X6X6X6X6X6X6X6X6X6X6X6X6X% G C.D.~ 6X6X6X6X6X6X6X6X6X6X6X6X6X6X6X6X6X",
"6X6X6X6X6X6X6X6X6X6X6X6X6X6X6X6X6X6X6X6X6X6X6X6X6X6X6X6X6X6X6X6X6X6X6X6X3 8 * 0 ^ Q 6X6X6X6X6X6X6X6X6X6X6X6X6X6X6X6X6X6X",
"6X6X6X6X6X6X6X6X6X6X6X6X6X6X6X6X6X6X6X6X6X6X6X6X6X6X6X6X6X6X6X6X6X6X6X6X* q G 7 0 9 6X6X6X6X6X6X6X6X6X6X6X6X6X6X6X6X6X6X",
"6X6X6X6X6X6X6X6X6X6X6X6X6X6X6X6X6X6X6X6X6X6X6X6X6X6X6X6X6X6X6X6X6X6X6X6X6X2 G _ _ q 6X6X6X6X6X6X6X6X6X6X6X6X6X6X6X6X6X6X",
"6X6X6X6X6X6X6X6X6X6X6X6X6X6X6X6X6X6X6X6X6X6X6X6X6X6X6X6X6X6X6X6X6X6X6X6X6X* * ) ' D * 6X6X6X6X6X6X6X6X6X6X6X6X6X6X6X6X6X",
"6X6X6X6X6X6X6X6X6X6X6X6X6X6X6X6X6X6X6X6X6X6X6X6X6X6X6X6X6X6X6X6X6X6X6X6X6X6X* 7 _ ' 0 % 6X6X6X6X6X6X6X6X6X6X6X6X6X6X6X6X",
"6X6X6X6X6X6X6X6X6X6X6X6X6X6X6X6X6X6X6X6X6X6X6X6X6X6X6X6X6X6X6X6X6X6X6X6X6X6X6X& q e 9 6X6X6X6X6X6X6X6X6X6X6X6X6X6X6X6X6X",
"6X6X6X6X6X6X6X6X6X6X6X6X6X6X6X6X6X6X6X6X6X6X6X6X6X6X6X6X6X6X6X6X6X6X6X6X6X6X6X6X6X6X6X6X6X6X6X6X6X6X6X6X6X6X6X6X6X6X6X6X"
};
