/* XPM */
static char *result[] = {
/* columns rows colors chars-per-pixel */
"60 60 204 2 ",
"   c #060504",
".  c #0C0C0C",
"X  c #080807",
"o  c #120D0B",
"O  c #180D09",
"+  c #14120D",
"@  c #1B160D",
"#  c #0D1212",
"$  c #0E1719",
"%  c #141413",
"&  c #1A1613",
"*  c #1B1915",
"=  c #141B1C",
"-  c #1D1C1B",
";  c #240E0A",
":  c #23120D",
">  c #2B110D",
",  c #261E0E",
"<  c #3C150E",
"1  c #33130E",
"2  c #241511",
"3  c #211D1B",
"4  c #271A13",
"5  c #3E1914",
"6  c #391914",
"7  c #2C220E",
"8  c #2B2415",
"9  c #23221E",
"0  c #282316",
"q  c #332A14",
"w  c #352717",
"e  c #3C3115",
"r  c #3B3219",
"t  c #30210D",
"y  c #131E20",
"u  c #152224",
"i  c #192A2C",
"p  c #1A2324",
"a  c #1C2E31",
"s  c #1D3235",
"d  c #1E353A",
"f  c #232322",
"g  c #2D2C2B",
"h  c #272926",
"j  c #302E2B",
"k  c #312420",
"l  c #33312C",
"z  c #39332E",
"x  c #3C3624",
"c  c #213539",
"v  c #21393D",
"b  c #213033",
"n  c #343332",
"m  c #3D3A35",
"M  c #3D3C3C",
"N  c #383736",
"B  c #4B1B14",
"V  c #461B17",
"C  c #531D16",
"Z  c #591E17",
"A  c #5B2118",
"S  c #433616",
"D  c #4A3E1C",
"F  c #463919",
"G  c #4A2A15",
"H  c #642119",
"J  c #6C241B",
"K  c #74261D",
"L  c #7A281E",
"P  c #413F3F",
"I  c #493B36",
"U  c #56312B",
"Y  c #7C2A21",
"T  c #53441C",
"R  c #58471B",
"E  c #614D1C",
"W  c #69551E",
"Q  c #4A4229",
"!  c #5B4D24",
"~  c #554622",
"^  c #5F512A",
"/  c #43413D",
"(  c #4B463A",
")  c #5B5136",
"_  c #504A3E",
"`  c #605126",
"'  c #745D21",
"]  c #6B5C36",
"[  c #614E22",
"{  c #7A6323",
"}  c #796324",
"|  c #243D42",
" . c #403F40",
".. c #26444A",
"X. c #2A494E",
"o. c #294348",
"O. c #2C4D53",
"+. c #2E5157",
"@. c #2F5258",
"#. c #31555C",
"$. c #355C63",
"%. c #39646C",
"&. c #37626A",
"*. c #3C6A73",
"=. c #3F6E78",
"-. c #3F7079",
";. c #444342",
":. c #4C4B49",
">. c #474848",
",. c #514D43",
"<. c #57534A",
"1. c #5A5855",
"2. c #635D4D",
"3. c #716649",
"4. c #676256",
"5. c #726C5B",
"6. c #406F79",
"7. c #41727B",
"8. c #4F757D",
"9. c #686765",
"0. c #696765",
"q. c #716D6B",
"w. c #726D61",
"e. c #75716A",
"r. c #757473",
"t. c #7C7B7A",
"y. c #7A7875",
"u. c #81291F",
"i. c #842B21",
"p. c #8B2D23",
"a. c #912F25",
"s. c #963126",
"d. c #9A3227",
"f. c #9E3328",
"g. c #856D28",
"h. c #8E7328",
"j. c #987B2B",
"k. c #827038",
"l. c #887642",
"z. c #837C68",
"x. c #807F7D",
"c. c #9F822E",
"v. c #A4862E",
"b. c #AC8C30",
"n. c #B39233",
"m. c #BC9A35",
"M. c #C29D37",
"N. c #CBA53A",
"B. c #D4AD3C",
"V. c #DCB33E",
"C. c #D7B03D",
"Z. c #E3B63F",
"A. c #A08840",
"S. c #978D77",
"D. c #90866E",
"F. c #A3987F",
"G. c #C1A757",
"H. c #CFAF4F",
"J. c #EDBE42",
"K. c #E4BA40",
"L. c #DCBF70",
"P. c #EEC043",
"I. c #F2C344",
"U. c #F2C648",
"Y. c #F1C757",
"T. c #EFC656",
"R. c #F6D46F",
"E. c #447781",
"W. c #467B85",
"Q. c #487E89",
"!. c #477D88",
"~. c #49808C",
"^. c #568B95",
"/. c #548892",
"(. c #5D919B",
"). c #4E8691",
"_. c #64969F",
"`. c #618B93",
"'. c #6B9BA4",
"]. c #6798A2",
"[. c #709EA8",
"{. c #72A0AA",
"}. c #868483",
"|. c #8B8A89",
" X c #949393",
".X c #9C9C9B",
"XX c #A69B80",
"oX c #ACA187",
"OX c #B5A98C",
"+X c #BDB194",
"@X c #BBAF94",
"#X c gray67",
"$X c #C5B797",
"%X c #DCCCA6",
"&X c #D2C3A1",
"*X c #CEC1A1",
"=X c #E2D2AA",
"-X c #ECD9AF",
";X c #E9D7AE",
":X c #EFDBB0",
">X c #F1DDB1",
",X c #E0CFA7",
"<X c #F5E1B5",
"1X c None",
/* pixels */
"1X1X1X1X1X1X1X1X1X1X1X1X1X1X1X1X1X1X1X1X1X1X1X1X1X1X1X1X1X1X1X1X1X1X1X1X1X1X1X1X1X1X1X1X1X1X1X1X1X1X1X1X1X1X1X1X1X1X1X1X",
"1X1X1X1X1X1X1X1X1X1X1X1X1X1X1X1X1X1X1X1X1X1X1X1X1X1X1X1X% # 1X1X1X1X1X1X1X1X1X1X1X1X1X1X1X1X1X1X1X1X1X1X1X1X1X1X1X1X1X1X",
"1X1X1X1X1X1X1X1X1X1X1X1X1X1X1X1X1X1X1X1X1X1X1X1X1X1X1X1X= +.X.p 1X1X1X1X1X1X1X1X1X1X1X1X1X1X1X1X1X1X1X1X1X1X1X1X1X1X1X1X",
"1X1X1X1X1X1X1X1X1X1X1X1X1X1X1X1X1X1X1X1X1X1X1X1X1X1X1X1X% #.~.-.O.i 1X1X1X1X1X1X1X1X1X1X1X1X1X1X1X1X1X1X1X1X1X1X1X1X1X1X",
"1X1X1X1X1X1X1X1X1X1X1X1X1X1X1X1X1X1X1X1X1X1X1X1X1X1X1X1X% ..~.~.~.7.@.b 1X1X1X1X1X1X1X1X1X1X1X1X1X1X1X1X1X1X1X1X1X1X1X1X",
"1X1X1X1X1X1X1X1X1X1X1X1X1X1X1X1X1X1X1X1X1X1X1X1X1X1X1X1X# | E.~.~.~.~.W.$.o.p 1X1X1X1X1X1XX + 1X1X1X1X1X1X1X1X1X1X1X1X1X",
"1X1X1X1X1X1X1X1X1X1X1X1X1X1X1X1X1X1X1X1X1X1X1X1X1X1X1X1X# d =.~.~.Q.~.~.~.Q.-.$.X.c h 1X1X# p % 1X1X1X1X1X1X1X1X1X1X1X1X",
"1X1X1X1X1X1X1X1X1X1X1X1X1X1X1X1X1X1X1X1X1X1X1X1X1X1X1X1X# d $.~.~.~.~.~.~.~.~.~.~.W.=.&.O.c &.O.= 1X1X1X1X1X1X1X1X1X1X1X",
"1X1X1X1X1X1X1X1X1X1X1X1X1X1X1X1X1X1X1X1X1X1X1X1X1X1X1X1X- s +.!.~.~.~.~.!.~.~.~.~.~.~.~.~.!.!.~.%.a 1X1X1X1X1X1X1X1X1X1X",
"1X1X1X1X1X1X1X1X1X1X1X1X1X1X1X1X1X1X1X1X1X1X1X1X1X1X1X1X1Xi ..-.~.~.~.~.~.~.~.~.~.~.~.!.~.~.~.~.).E...% 1X1X1X1X1X1X1X1X",
"1X1X1X1X1X1X1X1X1X1X1X1X1X1X1X1X1X1X1X1X1X1X1X1X1X1X1X1X1Xu | %.~.~.~.!.~.!.~.~.~.~.~.~.~.~.~.~.Q.~.Q.#.p 1X1X1X1X1X1X1X",
"1X1X1X1X1X1X1X1X1X1X1X1X1X1X1X1X1X1X1X1X1X1X1X1X1X1X1X1X1X$ v +.W.~.~.~.~.~.~.~.~.~.~.~.~.~.~.~.~.).^.'.8.b o 1X1X1X1X1X",
"1X1X1X1X1X1X1X1X1X1X1X1X1X1X1X1X1X1X1X1X1X1X1X1X1X1X1X1X1X# i ..=.~.~.~.~.!.~.~.~.)./.^.^.^.^.(.].'.{.{.{.`.o.& 1X1X1X1X",
"1X1X1X1X1X1X1X1X1X1X1X1X1X1X1Xo . 1X1X1X1X1X1X1X1X1X1X1X1X1X$ | +.W.~.~.~.~.~.~.~.~.~.~.~.^.(.].].'.'.'.'.'.^.| . 1X1X1X",
"1X1X1X1X1X1X1X1X1X1X1X1X1X1X1XC 1 2 1X1X1X1X1X1X1X1X1X1X1X1X. i ..#.E.~.~.~.~.~.~.~.~.~.~.~.~.~.~.~.).).~.~.).#.. 1X1X1X",
"1X1X1X1X1X1X1X1X1X1X1X1X1X1XO V i.Y V 1X1X1X1X1X1X1X1X1X1X1X1X# X.-.=.!.~.~.~.~.~.~.~.~.~.~.~.~.~.~.~.~.~.Q.).@.1X1X1X1X",
"1X1X1X1X1X1X1X1X1X1X1X1X1XV Y A p.d.i.6 1X1X1X1X1X1X1X1X1X1X1XX | ~.Q.~.~.Q.~.~.~.~.~.~.~.~.~.~.~.~.~.~.~.~.E.X.1X1X1X1X",
"1X1X1X1X1X1X1X1X1X1X1X1XV 6 Z d.d.d.d.i.5 1X1X1X1X1X1X1X1X1X. d %.~.~.~.~.~.~.~.Q.~.~.Q.~.~.~.!.-.!.~.~.!.!.X.s 1X1X1X1X",
"1X1X1X1X1X1X1X1X1X1X1Xo C Y p.d.a.d.d.d.i.5 1X1X1X1X1X1X1X1X1Xu #.W.~.Q.~.Q.Q.~.~.Q.~.~.~.$.@.-.*.+.=.~.$.+.a X 1X1X1X1X",
"1X1X1X1X1X1X1X1X1X1X1X1XX > H i.a.d.d.d.f.i.B 1X1X1X1X1X1X1X> : % s O.E.~.!.$.Q.~.=.!.~.~.d . = i u u $.d u h X 1X1X1X1X",
"1X1X1X1X1X1X1X1X1X1X1X1X1X1X% > B K p.d.d.d.a.H 1 1X1X1X1X5 i.Y H ; = *.%.7.v W.!...-.!.~.| 9 y.g # d *.y X = 1X1X1X1X1X",
"1X1X1X1X1X1X1X1X1X1X1X1X1X& O O ; : 5 A K K J A < > > @ X > i.u.K 1 a s c $.s %.7.a *.%.$.$.# y..XM u ..X X 1X1X1X1X1X1X",
"1X1X1X1X1X1X1X1X1X1X1X1X1X> H Y p.L C 6 1 1 : k / 3 > ; O O I q.q.3 > + d d i X.=.y #.=.i d $ % ( / l h * * 1X1X1X1X1X1X",
"1X1X1X1X1X1X1X1X1X1X1X1X1Xo > Z d.d.d.p.K 1 h 0.}.N t E j.] t.q.#Xy.: + @ = s c =.u i -.a . >.F.,X%X,X@XS.j 1X1X1X1X1X1X",
"1X1X1X1X1X1X1X1X1X1X1X1X1XV K Y d.d.d.d.s.V M r.|.:.D j.Z.k.|.m 1.x.! G H O + $ %.i # o.s ,.&X>X-X-X>X<X$Xz 1X1X1X1X1X1X",
"1X1X1X1X1X1X1X1X1X1X1X1X1X> < J d.d.p.J 5 3 M q..X0.S j.I.m.3.y.e.] b.G p.H V O X.v $ u % w.=X:X-X>X-X%Xz.1X1X1X1X1X1X1X",
"1X1X1X1X1X1X1X1X1X1X1X1X1XB Y i.p.H 6 n 4.<.g 1..Xy.q { N.U.B.n.b.b.E B d.L B B - d X # . 1.@X:X-X&XF._ 1X1X1X1X1X1X1X1X",
"1X1X1X1X1X1X1X1X1X1X1X1X1X2 > > 6 P w.oX%X+Xl M r. Xj D { b.j.} R T q H f.p.H p.B %       l q.@X-X*X4.1X1X1X1X1X1X1X1X1X",
"1X1X1X1X1X1X1X1X1X1X1X1X1X1X- ( D.+X=X=XOX5.3 3 ;.e.;.O S F ' q M ) t K d.a.u.s.p.:   Z H A U I D.e.1X1X1X1X1X1X1X1X1X1X",
"1X1X1X1X1X1X1X1X1X1X<.m l ,.S.&X=X$XD.,.9 1X1X. % 8 r S v.v.b.v.k >.2 L d.s.H H J C O Z Y J C 2 1X1X1X1X1X1X1X1X1X1X1X1X",
"1X1X1X1X1X1X1Xj 1.F.&XOXoX%X,XoX4.l 1X1X1X1X1X1Xq W ' h.Z.Z.N.Z.' z z Z d.d.p.u.p.u.1 O O o 1X1X1X1X1X1X1X1X1X1X1X1X1X1X",
"1X1X1X1X1X1X;.S.%X>X>X>X<XXX( 9 1X1X1X1X1Xf . , W } ' n.I.I.I.Z.K.D z w J d.d.d.p.A C 1 1X1X1X1X1X1X1X1X1X1X1X1X1X1X1X1X",
"1X1X1X1X1X1X<.$X:X-X:X:X-X5.1X1X1X1X1X- P e.M , W ' ' v.J.J.J.J.U.M.S  .w J s.d.s.a.p.< 1X1X1X1X1X1X1X1X1X1X1X1X1X1X1X1X",
"1X1X1X1X1X1XI F.$X-X=X$XOX( 1X1X1X1X1Xf ;.9.t.>.r W ' { M.J.J.J.K.K.g.n :.2 C i.s.s.A O 1X1X1X1X1X1X1X1X1X1X1X1X1X1X1X1X",
"1X1X1X1X1X1X1X<.OXXX4.<.1.1X1X1X1X1X1X- n ;.9.}.9.x F R ] j.A.] 3.2.,.3 ;./ & > V V & 1X1X1X1X1X1X1X1X1X1X1X1X1X1X1X1X1X",
"1X1X1X1X1X1X1X1X,.1X1X1X1X1X1X1X1X1X1X1X- n ;.9.x.y.P g o.M M I ( ) ^ D % / 1X1X1X1X1X1X1X1X1X1X1X1X1X1X1X1X1X1X1X1X1X1X",
"1X1X1X1X1X1X1X1X1X1X1X1X1X1X1X1X1X1X1X1X3 # j / 1.t.}.9.M 9 e T h.M.B.} 1X1X1X1X1X1X1X1X1X1X1X1X1X1X1X1X1X1X1X1X1X1X1X1X",
"1X1X1X1X1X1X1X1X1X1X1X1X1X1X1X1X1X1X1X1X-   # h P >.9.x.|.}.r.1.I D Q 9 - 1X1X1X1X1X1X1X1X1X1X1X1X1X1X1X1X1X1X1X1X1X1X1X",
"1X1X1X1X1X1X1X1X1X1X1X1X1X1X1X1X1X1X1X1X1X  . + 3 n  .:.1.q.}. X.X Xt.0.g 1X1X1X1X1X1X1X1X1X1X1X1X1X1X1X1X1X1X1X1X1X1X1X",
"1X1X1X1X1X1X1X1X1X1X1X1X1X1X1X1X1X1X1X1X1XX X % % & f N  . .>.<.1.9.q.1.3 1X1X1X1X1X1X1X1X1X1X1X1X1X1X1X1X1X1X1X1X1X1X1X",
"1X1X1X1X1X1X1X1X1X1X1X1X1X1X1X1X1X1X1X1X1X% . X - f g k 9 h j n N n N - 1X1X1X1X1X1X1X1X1X1X1X1X1X1X1X1X1X1X1X1X1X1X1X1X",
"1X1X1X1X1X1X1X1X1X1X1X1X1X1X1X1X1X1X1X1X1X+ & X o 3 j | N j g 3 . % . 1X1X1X1X1X1X1X1X1X1X1X1X1X1X1X1X1X1X1X1X1X1X1X1X1X",
"1X1X1X1X1X1X1X1X1X1X1X1X1X1X1X1X1X1X1X1X1X1X% % . % f N  . . .n X 1X1X1X1X1X1X1X1X1X1X1X1X1X1X1X1X1X1X1X1X1X1X1X1X1X1X1X",
"1X1X1X1X1X1X1X1X1X1X1X1X1X1X1X1X1X1X1X1X1X1X. - * . & g P P  .n . 1X1X1X1X1X1X1X1X1X1X1X1X1X1X1X1X1X1X1X1X1X1X1X1X1X1X1X",
"1X1X1X1X1X1X1X1X1X1X1X1X1X1X1X1Xo % 1X1X1X1X. + - % o = n o.( j * 1X1X1X1X1X1X1X1X1X1X1X1X1X1X1X1X1X1X1X1X1X1X1X1X1X1X1X",
"1X1X1X1X1X1X1X1X1X1X1X1X1X1X1X1X* 0 * o 0 q e G R [ R q * N P j 1X1X1X1X1X1X1X1X1X1X1X1X1X1X1X1X1X1X1X1X1X1X1X1X1X1X1X1X",
"1X1X1X1X1X1X1X1X1X1X1X1X1X1X1X1X* r r 7 W h.n.B.K.K.Z.B.h.8 M f 1X1X1X1X1X1X1X1X1X1X1X1X1X1X1X1X1X1X1X1X1X1X1X1X1X1X1X1X",
"1X1X1X1X1X1X1X1X1X1X1X1X1X1X1X. 0 ~ ! q T j.M.H.J.U.U.Y.Y.{ 9 & 1X1X1X1X1X1X1X1X1X1X1X1X1X1X1X1X1X1X1X1X1X1X1X1X1X1X1X1X",
"1X1X1X1X1X1X1X1X1X1X1X1X1X1X1X* r ! ^ r 1X1X1XD T } A.G.L.H.D o 1X1X1X1X1X1X1X1X1X1X1X1X1X1X1X1X1X1X1X1X1X1X1X1X1X1X1X1X",
"1X1X1X1X1X1X1X1X1X1X1X1X1X1X1X* D ^ F & 1X1X1Xo e ' { k.` ` R + 1X1X1X1X1X1X1X1X1X1X1X1X1X1X1X1X1X1X1X1X1X1X1X1X1X1X1X1X",
"1X1X1X1X1X1X1X1X1X1X1X1X1X1X1X@ ~ ^ 8 1X1X1X@ } K.J.R.G.F 1X1X1X1X1X1X1X1X1X1X1X1X1X1X1X1X1X1X1X1X1X1X1X1X1X1X1X1X1X1X1X",
"1X1X1X1X1X1X1X1X1X1X1X1X1X1X1Xo 8 e @ 1X1X1XR B.I.Y.G.R 1X1X1X1X1X1X1X1X1X1X1X1X1X1X1X1X1X1X1X1X1X1X1X1X1X1X1X1X1X1X1X1X",
"1X1X1X1X1X1X1X1X1X1X1X1X1X1X1X1X1X1X1X1X1Xq c.P.I.H.T 1X1X1X1X1X1X1X1X1X1X1X1X1X1X1X1X1X1X1X1X1X1X1X1X1X1X1X1X1X1X1X1X1X",
"1X1X1X1X1X1X1X1X1X1X1X1X1X1X1X1X1X1X1X1X1XT N.I.N.R 1X1X1X1X1X1X1X1X1X1X1X1X1X1X1X1X1X1X1X1X1X1X1X1X1X1X1X1X1X1X1X1X1X1X",
"1X1X1X1X1X1X1X1X1X1X1X1X1X1X1X1X1X1X1X1X4 W C.N.R 1X1X1X1X1X1X1X1X1X1X1X1X1X1X1X1X1X1X1X1X1X1X1X1X1X1X1X1X1X1X1X1X1X1X1X",
"1X1X1X1X1X1X1X1X1X1X1X1X1X1X1X1X1X1X1X1Xq { n.R 1X1X1X1X1X1X1X1X1X1X1X1X1X1X1X1X1X1X1X1X1X1X1X1X1X1X1X1X1X1X1X1X1X1X1X1X",
"1X1X1X1X1X1X1X1X1X1X1X1X1X1X1X1X1X1X1Xo O e S 0 1X1X1X1X1X1X1X1X1X1X1X1X1X1X1X1X1X1X1X1X1X1X1X1X1X1X1X1X1X1X1X1X1X1X1X1X",
"1X1X1X1X1X1X1X1X1X1X1X1X1X1X1X1X1X1X1X* q Q ! ! e 0 * o 1X1X1X1X1X1X1X1X1X1X1X1X1X1X1X1X1X1X1X1X1X1X1X1X1X1X1X1X1X1X1X1X",
"1X1X1X1X1X1X1X1X1X1X1X1X1X1X1X1X1X1X. 4 8 F ~ ^ ^ ! D + 1X1X1X1X1X1X1X1X1X1X1X1X1X1X1X1X1X1X1X1X1X1X1X1X1X1X1X1X1X1X1X1X",
"1X1X1X1X1X1X1X1X1X1X1X1X1X1X1X1X1X1X1X+ . @ @ 8 F T e 1X1X1X1X1X1X1X1X1X1X1X1X1X1X1X1X1X1X1X1X1X1X1X1X1X1X1X1X1X1X1X1X1X"
};
