/* XPM */
static char *result[] = {
/* columns rows colors chars-per-pixel */
"60 60 114 2 ",
"   c #20271F",
".  c #242C1F",
"X  c #262E21",
"o  c #2C2F24",
"O  c #273022",
"+  c #293323",
"@  c #2E3A24",
"#  c #2E3729",
"$  c #2F3A2A",
"%  c #303526",
"&  c #313E26",
"*  c #36362A",
"=  c #3C372C",
"-  c #323B2C",
";  c #393A2D",
":  c #3F3D32",
">  c #403B2F",
",  c #413E31",
"<  c #483F34",
"1  c #324126",
"2  c #394926",
"3  c #364429",
"4  c #394629",
"5  c #3C4B2B",
"6  c #3E5128",
"7  c #334030",
"8  c #3B4435",
"9  c #3B4A35",
"0  c #3F523B",
"q  c #404F2D",
"w  c #44542E",
"e  c #45592D",
"r  c #495B2E",
"t  c #444234",
"y  c #4B4334",
"u  c #434B39",
"i  c #4B4939",
"p  c #524637",
"a  c #534638",
"s  c #57493A",
"d  c #5D4D3C",
"f  c #4B5C31",
"g  c #42543D",
"h  c #43583F",
"j  c #5D503C",
"k  c #65543C",
"l  c #69563F",
"z  c #4B622D",
"x  c #546D2F",
"c  c #57722F",
"v  c #58722F",
"b  c #4F6132",
"n  c #526533",
"m  c #556A34",
"M  c #5A6D36",
"N  c #567130",
"B  c #5C7236",
"V  c #5D7934",
"C  c #5F7238",
"Z  c #627C36",
"A  c #607438",
"S  c #637B38",
"D  c #465740",
"F  c #4B5741",
"G  c #465B42",
"H  c #495C43",
"J  c #4B6245",
"K  c #4E6649",
"L  c #4F684A",
"P  c #526B4C",
"I  c #56714F",
"U  c #58734F",
"Y  c #577050",
"T  c #597451",
"R  c #5E7B53",
"E  c #607F55",
"W  c #658336",
"Q  c #698737",
"!  c #6A8C37",
"~  c #668238",
"^  c #698738",
"/  c #6B8A38",
"(  c #708F38",
")  c #6D9237",
"_  c #6F9538",
"`  c #709637",
"'  c #7A9F37",
"]  c #739538",
"[  c #749A38",
"{  c #789F38",
"}  c #7BA237",
"|  c #7BA239",
" . c #638455",
".. c #668957",
"X. c #698E57",
"o. c #678A58",
"O. c #698E59",
"+. c #6B9257",
"@. c #6C9359",
"#. c #6E9859",
"$. c #709A5A",
"%. c #708E63",
"&. c #729860",
"*. c #779868",
"=. c #7B9F69",
"-. c #7DA06B",
";. c #80A73A",
":. c #84AC3A",
">. c #87B03A",
",. c #88B13A",
"<. c #95B188",
"1. c #9CB68E",
"2. c #A2BC95",
"3. c None",
/* pixels */
"3.3.3.3.3.3.3.3.3.3.3.3.3.3.3.3.3.3.3.3.3.3.3.3.3.3.3.3.3.3.3.3.3.3.3.3.3.3.3.3.3.3.3.3.3.3.3.3.3.3.3.3.3.3.3.3.3.3.3.3.",
"3.3.3.3.3.3.3.3.3.3.3.3.3.3.3.3.3.3.3.3.3.3.3.3.3.3.3.3.3.3.3.3.3.3.3.3.3.3.3.3.3.3.3.3.3.3.3.3.3.3.3.3.3.3.3.3.3.3.3.3.",
"3.3.3.3.3.3.3.3.3.3.3.3.3.3.3.3.3.3.3.3.3.3.3.3.3.3.3.3.3.3.3.3.3.3.3.3.3.3.3.3.3.3.3.3.3.3.3.3.3.3.3.3.3.3.3.3.3.3.3.3.",
"3.3.3.3.3.3.3.3.3.3.3.3.3.z c x e 3.3.3.3.3.3.3.3.3.3.3.3.3.3.3.3.3.3.3.3.3.3.3.3.3.3.z x x e 3.3.3.3.3.3.3.3.3.3.3.3.3.",
"3.3.3.3.3.3.3.3.3.3.3.3.2 v } } c 1 3.3.3.3.3.3.3.3.3.3.3.3.3.3.3.3.3.3.3.3.3.3.3.3.3 v } } c 1 3.3.3.3.3.3.3.3.3.3.3.3.",
"3.3.3.3.3.3.3.3.3.3.1 @ 6 ) >.>.! 5 1 1 3.3.3.3.3.3.3.3.3.3.3.3.3.3.3.3.3.3.3.3.& @ 6 ) ,.,.) 2 1 3 3.3.3.3.3.3.3.3.3.3.",
"3.3.3.3.3.3.3.3.e z r 2 N | ,.,.} v 2 r z 6 3.3.3.3.3.3.3.3.3.3.3.3.3.3.3.3.e z r 2 V } ,.,.} c 4 r z 6 3.3.3.3.3.3.3.3.",
"3.3.3.3.3.3.3.2 c Q V m { >.>.>.>.[ m Z W x 2 3.3.3.3.3.3.3.3.3.3.3.3.3.3.5 c Q V m { :.,.,.:.{ m W W m 2 3.3.3.3.3.3.3.",
"3.3.3.3.3.3.3.e m Z / ] :.>.>.>.,.:.] Q Z m e 3.3.3.3.3.3.3.3.3.3.3.3.3.3.e m Z / ` >.,.>.>.>.>.` ! Z m e 3.3.3.3.3.3.3.",
"3.3.3.3.3.3.n N Z Q ( ;.:.>.>.>.,.:.;./ Z V N n 3.3.3.3.3.3.3.3.3.3.3.3.n N S ^ ] | :.,.>.>.>.>.| ! Z V N n 3.3.3.3.3.3.",
"3.3.3.3.3.e V ! | | ' } | >.>.>.:.| { ` _ _ ! N e 3.3.3.3.3.3.3.3.3.3.e N ) } | { | | >.>.>.,.| { ` ) _ ! V e 3.3.3.3.3.",
"3.3.3.3.1 N ! ` [ ' } } [ | >.>.;.] ) ) ) ) ) ! N & 3.3.3.3.3.3.3.3.& v ! ` { { | | [ | >.>.| ` ) ) ) ) ) ! N & 3.3.3.3.",
"3.3.3.3.3.w ! ! / ] ;.:.` | :.:.| _ ) ) ! / ! ! w 3.3.3.3.3.3.3.3.3.3.w ! ! ! ] | ;.` | :.:.| _ ) ) ! ! ! ! w 3.3.3.3.3.",
"3.3.3.3.. 5 S ~ / ] | | _ _ [ [ ` _ ) ) ! ! Q Z 5 X 3.3.3.3.3.3.3.3.X 5 Z W Q ` ;.| _ ` [ [ ) ) ) ) ! ! W Z 5 X 3.3.3.3.",
"3.3.3.& 5 r m W ) _ ] / ) ) ) _ ) ) W ) ) ) W m r 5 % 3.3.3.3.3.3.& 2 f m ~ ) _ ] / ) ) ) ) ) ) Q ! ) ) W m f 5 & 3.3.3.",
"3.3.& 5 b m r W ! / W Z ) ) ) ) _ ) Z W ! ! Z r m n q & 3.3.3.3.& 5 n m b V ! / W Z ) _ ) ) ) ) Z Q ! ! Z b m b 5 & 3.3.",
"3.3.2 z B n b M V Z Z V ! ! ) ! ! ! Z A S V B f n B f 4 3.3.3.3.5 r A m z N Z S A C ! ! ) ) ) Q Z A Z Z M f n M r 4 3.3.",
"3.1 r V Z C m m M C C m B W / ! W N m C C M n m C C n w % 3.3.3 r V Z A m m m C C m N W ! ! W N m A M m m m A C n w & 3.",
"3.2 c ! W A A C C A C C m m m m n M C A A A C C C C C f 1 3.3.2 v ! W A A A A A C C M m m m n m C A A A A C A A A f 1 3.",
"3.3.r m B W W S A A A A M M M M M M A A S W W A C m n w 3.3.3.3.r x M W W A A A C C C M M M M C A A S ~ ~ A C m n w 3.3.",
"3.3.3 r Z ! Z A C A A A C C C C C A A Z S W / W A m w 4 3.3.3.3.4 r A ! S A A A A A A C C C C A A Z Z ~ ! ~ A m w ; 3.3.",
"3.3.1 r Z S A A A A C A A A A A A A S / ^ S W W A C r 1 3.3.3.3.& r Z ~ A A A A A A A A A A A C Z Q Q S ~ ~ A A r & 3.3.",
"3.. 2 f C A A C C A A A A A A A A A A W ! W C C A C f 4 X 3.3.X 2 f A A A A A A A A A A A A A A A W / W A A A C f 4 X 3.",
"  + 1 e n M M M M A A C A A A A A A C Z / W B B M n e 1 X     O 1 w n M M M M A C C A A C A A A A S / W M M M n r 1 X . ",
"3.+ 4 5 q w e m A A M n A A A A A C m M S S m r w q q 4 + 3.3.+ 3 q 5 w r m A A C n A A A A A A m C Z S m r w 5 5 4 + 3.",
"+ 4 5 5 5 q 5 m A M m f C A A A A A f n A A m 9 q 5 5 5 4 . + 4 5 5 5 q 4 m A A n f A U A A A M f n C A m 5 6 5 q 5 4 + ",
"+ 5 5 q q w w m M n w w n C C A C f w w f M m q w w q q 2 + + 4 q q q w w M M f q w n M A A M n e w f M m w w w 6 9 2 + ",
"+ & 5 w r f f f w q 5 w w n M M m w w 5 q r f f w w q 5 & + + 1 q w w f f f w q q w w m M M n w w 4 q f f f w w w 4 3 O ",
"3.@ 4 w w n f w u q w w w f f f w w w w 5 q q w w w w 2 % 3.3.+ 4 w r n f f q q w w w r f f f f w w 5 5 w w w w w 4 @ 3.",
". + - q f C n f n f f w w w f w w w w w w w w f w w 5 1 + . + + & q f M f f f f r w w w f w w w w w w w w w w w 5 1 + X ",
". @ - q f f f m C M f w w w w f w f f w w f w w w r 5 & + . . @ ; q f f f M C M f f w w w w f w w w f w w w w w 5 1 + O ",
"O % 5 w w q n C C f f w w w w w w w w w w w w w 5 q w 5 & + . @ 4 w f q n C C f f w w w w w w w w f w w w w 9 w w 2 @ O ",
"2 3 1 3 4 w M M b f w 5 w w w w e w 2 w w w e w 5 4 3 & @ @ 3 4 3 3 4 w M M n f w 5 w w r w w w 5 w e w w w 5 4 4 1 @ @ ",
"w 1 @ % 3 w b r w w 5 3 w w w r e 0 3 5 w w 5 w w 4 & O @ 1 5 4 + @ 3 w b f w w 5 3 w w w w w w 1 w e w 5 w w 4 $ + @ 1 ",
"1 + + 1 4 5 2 5 w w 4 3 w w w w r w 1 4 w w 4 5 5 2 3 @ + @ 1 @ @ 1 4 2 4 5 w 6 4 3 w w w w w w 1 2 w 0 5 4 5 4 1 @ + + ",
"+ + & 1 1 1 & 5 9 2 1 3 w w w w w w 1 1 4 w 9 1 & & & @ @ O O O @ 1 1 1 1 6 9 4 3 1 w w w w w w 1 1 3 5 5 & 1 1 1 @ @ + ",
"+ X + 1 1 1 @ & 1 @ @ 1 4 w w w e 4 1 1 & & & @ & 1 1 @ O O O O + $ 1 1 + 1 1 @ 1 1 4 w e w w 4 1 1 @ 1 & @ @ 1 1 @ O O ",
". + @ 1 1 1 @ @ 1 1 1 1 4 w w e 6 3 1 1 1 & & @ 1 1 1 @ O X X O @ 1 1 @ @ @ 1 @ 1 1 3 w g f w 3 1 1 1 1 & @ 1 1 @ @ O X ",
". + @ & @ @ 1 1 1 1 1 1 1 5 w w 5 1 1 1 1 @ 1 @ @ @ $ @ O . . O @ @ @ @ 1 1 1 1 1 1 1 4 w w 2 1 1 1 1 1 @ 1 @ @ @ @ O X ",
". + + + O + @ @ @ @ 1 1 1 1 4 8 1 1 @ 1 1 @ @ & + + @ + O X X O @ @ O @ @ @ @ 1 1 1 1 1 4 4 1 1 @ 1 1 @ @ @ + + @ @ O X ",
"X X O X O @ @ O + 1 1 @ @ 1 1 1 1 @ @ & @ + + + + + O O X X X X O O O @ @ O @ @ @ @ 1 1 1 1 1 1 @ @ @ + + @ + + X O X X ",
"O O O X O O O O + @ @ O @ 1 1 1 & @ + @ @ @ O + + O X O O O o X O O O O O O + @ @ + @ 1 1 @ 1 + + @ @ @ X + + O X X O X ",
"0 h 9 # O O O O @ @ + + + 1 1 1 & + + + @ + + O + . + 9 h g g g 9 + O O O O @ $ + + + @ 1 1 1 O + + @ + + X + X # 9 h g ",
" .Y G $ O O O O + O + O O + @ @ + + + + + + + O + X $ h I R E Y h $ O O O + O O + + O @ @ 1 @ O O + + + O + O X $ h I  .",
"X. .J 3 O O X O O + O X O O @ + + X X + # O X X + . 3 K o.@.@.o.J 3 X O X O O O O X X O + + + O X O O O o X O O 3 J o.@.",
"-.X.I 0 $ - o o + % * X . O O O X   X * # O O O - $ 9 P  .@.=.O.I 0 - - + o O # - X X X O O O . X * - o O O - % 9 P  .+.",
"<.%.T K h u 8 7 $ : : O O . O O X X o , ; # - 8 u g K P E O.<.%.T K g u 8 - $ ; > o X X O O . . o : ; # - 9 g g J P R X.",
"2.*. .T L L K G 9 : : * ; O O O o = * : 8 8 h K P U U  . .O.1.*. .Y P L K H 9 : : * : O O O o - - : : 8 h K L P R  ...o.",
"&.o.T Y L L K G 9 t t y s y + o > p y < t 8 g J P R  .@.@.@.&.o.R Y L L K D 9 t y y s t + o > p y t t 8 g K L R  .+.@.@.",
"+. . .R L L K g t < y y l k p t p p < y t t g J L U E o.@.3.@. . .T P K K g t < y y l k p < p p < y t t g K K Y  .o.@.3.",
"@.O.o.R P Y K g u u u u d l d p p y u u u u g K I P T  .@.3.@.@.o.R P Y K D u u u u d l d p p y t u q u g K Y P T  .@.3.",
"#.@...T Y R L H h 0 0 0 i j d p y i 0 0 0 h h K T P U  .@.3.$.@. .T T R L H D 0 0 0 i d d p y i 0 0 h 0 G K Y P Y  .#.3.",
"3.O. .T R  .T P H h h h g a a y i u g h h G J K Y Y T  .@.3.3.@. .T  . .Y P J h h g g i a p i g 0 h D D H K Y Y R  .O.3.",
"3.@.o. .o.O.R T L J G H D i < y i G H H H J L K P T  .O.@.3.3.@.o. . .O.R T L J J H F i < < i D H H H K P K P T  .O.#.3.",
"3.3.@.+.X.R Y P P K K K K F F F D K K K K L P P P Y R ..@.3.3.3.+.+.O.R Y P L K K K K F F F F K L K K L L Y P I R  .+.3.",
"3.3.3.#.+.R T P P Y Y Y P K K K K L L L L K P P P Y E O.@.3.3.3.3.#.O.R T P P P Y Y K K K K K K K L L L L P P Y E o.#.3.",
"3.3.o. . . . .T Y E  .E Y U P P L P L Y P P P P  ...O.@.@.3.3.3... . ... .T Y R  .E T Y P L L P L Y P P Y P  .X.X.#.#.3.",
"3.3. .R E @.X.E  .o.O. .E  .R Y Y Y P T T R  .R @.$.3.3.3.3.3.3. .R R +.o.E  .o.O. . . .R Y Y Y P T T T R R @.#.3.3.3.3.",
"3.3.3. . .@. . ...O.O.o.o.@.X. . . .T E  . .O.o.@.3.3.3.3.3.3.3.3. ...O... ...+.O.o.o.+.o. . . .T R  .o.O.o.#.3.3.3.3.3.",
"3.3.3.3.3.3.@.X.O.@...E @.#.O.O.O. . .E ..O.@.@.#.3.3.3.3.3.3.3.3.3.3.3.@.O.+.@. .E @.#.O.O.O.o. .R ..@.@.#.#.3.3.3.3.3."
};
