/* XPM */
static char *result[] = {
/* columns rows colors chars-per-pixel */
"60 60 231 2 ",
"   c #050505",
".  c #0B0C0D",
"X  c #080A0A",
"o  c #130D0C",
"O  c #170807",
"+  c #15110C",
"@  c #1C140C",
"#  c #0A0F11",
"$  c #0D1314",
"%  c #0B1618",
"&  c #141313",
"*  c #1A1614",
"=  c #1D1A14",
"-  c #14151A",
";  c #131B1D",
":  c #1C1C1C",
">  c #191618",
",  c #130F11",
"<  c #2B0E0C",
"1  c #250D0B",
"2  c #26150D",
"3  c #37120E",
"4  c #2B1513",
"5  c #231D12",
"6  c #241C1A",
"7  c #261516",
"8  c #3A1412",
"9  c #371816",
"0  c #1F201F",
"q  c #29210F",
"w  c #372A0E",
"e  c #2D2514",
"r  c #23211C",
"t  c #2B251B",
"y  c #2A2516",
"u  c #362B16",
"i  c #3C331B",
"p  c #3F3312",
"a  c #131D22",
"s  c #1E1E22",
"d  c #152225",
"f  c #192324",
"g  c #15252A",
"h  c #1A282D",
"j  c #1B2D32",
"k  c #1C3238",
"l  c #242323",
"z  c #292623",
"x  c #2C2B2B",
"c  c #282928",
"v  c #322C23",
"b  c #362D2B",
"n  c #33312D",
"m  c #3C3427",
"M  c #312F30",
"N  c #22353A",
"B  c #233A3E",
"V  c #243235",
"C  c #343433",
"Z  c #3D3C3C",
"A  c #3A3736",
"S  c #2F3030",
"D  c #4E1A15",
"F  c #481A15",
"G  c #5A1E19",
"H  c #571D17",
"J  c #48201E",
"K  c #5A211C",
"L  c #473918",
"P  c #503E19",
"I  c #67241E",
"U  c #72241D",
"Y  c #5B2622",
"T  c #463A23",
"R  c #423C37",
"E  c #573930",
"W  c #672621",
"Q  c #742A24",
"!  c #7A2B25",
"~  c #732823",
"^  c #753528",
"/  c #591F1D",
"(  c #4F411A",
")  c #5A471C",
"_  c #745E1F",
"`  c #795F1E",
"'  c #624F1C",
"]  c #79601E",
"[  c #4D4323",
"{  c #524622",
"}  c #5B4E25",
"|  c #584D28",
" . c #4B4539",
".. c #554D3C",
"X. c #6B5723",
"o. c #725D22",
"O. c #7A5B26",
"+. c #655735",
"@. c #604F24",
"#. c #786328",
"$. c #756535",
"%. c #1F3740",
"&. c #243C42",
"*. c #2A3D42",
"=. c #3E3D41",
"-. c #2A464C",
";. c #294448",
":. c #314A4E",
">. c #2D4B52",
",. c #2A4750",
"<. c #344E55",
"1. c #36555C",
"2. c #2F5058",
"3. c #355A62",
"4. c #395D64",
"5. c #3E656D",
"6. c #3A636A",
"7. c #3E6A73",
"8. c #3E707A",
"9. c #434242",
"0. c #49484A",
"q. c #565248",
"w. c #555354",
"e. c #5B595C",
"r. c #534D4A",
"t. c #625845",
"y. c #6B6557",
"u. c #756957",
"i. c #6A614F",
"p. c #5F5D62",
"a. c #605E61",
"s. c #426D74",
"d. c #416F79",
"f. c #44737C",
"g. c #49757B",
"h. c #426163",
"j. c #646464",
"k. c #6B6B6A",
"l. c #7C7664",
"z. c #7A7B7C",
"x. c #787676",
"c. c #706F70",
"v. c #8A2F25",
"b. c #872D27",
"n. c #8E3128",
"m. c #953227",
"M. c #993126",
"N. c #953229",
"B. c #99322A",
"V. c #912F27",
"C. c #866C27",
"Z. c #8D732B",
"A. c #96782B",
"S. c #8B7737",
"D. c #937B30",
"F. c #847A65",
"G. c #8A7F6A",
"H. c #80725E",
"J. c #9D8232",
"K. c #A68A37",
"L. c #B89639",
"P. c #AC8D36",
"I. c #C2A33D",
"U. c #CEAB3F",
"Y. c #D7AB3D",
"T. c #C19C37",
"R. c #978648",
"E. c #BEA345",
"W. c #8D836B",
"Q. c #968C75",
"!. c #948C7C",
"~. c #B19540",
"^. c #C9A742",
"/. c #D8AE41",
"(. c #DAB443",
"). c #D1B55A",
"_. c #ECBE44",
"`. c #E6BB47",
"'. c #F1BF43",
"]. c #E7BF53",
"[. c #EDC145",
"{. c #EDC24B",
"}. c #F1C145",
"|. c #E5C152",
" X c #E9C357",
".X c #F2CC59",
"XX c #E6C868",
"oX c #ECCF6B",
"OX c #467681",
"+X c #467A83",
"@X c #4A7C85",
"#X c #477E8A",
"$X c #497F8A",
"%X c #517C88",
"&X c #817F83",
"*X c #47808A",
"=X c #49808B",
"-X c #4D8087",
";X c #528288",
":X c #548A94",
">X c #578B96",
",X c #63959D",
"<X c #648C92",
"1X c #6C9BA5",
"2X c #6797A1",
"3X c #719FA7",
"4X c #72A0A9",
"5X c #8B8B8C",
"6X c #868586",
"7X c #939393",
"8X c #9D9D9F",
"9X c #909090",
"0X c #A69C84",
"qX c #B2A58A",
"wX c #B1A78D",
"eX c #A5A6A6",
"rX c #B2B2B2",
"tX c #C2B596",
"yX c #C7BA99",
"uX c #C9BEA1",
"iX c #E1C981",
"pX c #D4C4A2",
"aX c #DACBAA",
"sX c #C9C2A1",
"dX c #E8D7AF",
"fX c #ECDBB3",
"gX c #E9D7B3",
"hX c #F0DDB5",
"jX c #D4C49E",
"kX c #CCCDCD",
"lX c None",
/* pixels */
"lXlXlXlXlXlXlXlXlXlXlXlXlXlXlXlXlXlXlXlXlXlXlXlXlXlXlXlXlXlXlXlXlXlXlXlXlXlXlXlXlXlXlXlXlXlXlXlXlXlXlXlXlXlXlXlXlXlXlXlX",
"lXlXlXlXlXlXlXlXlXlXlXlXlXlXlXlXlXlXlXlXlXlXlXlXlXlXlXlXlXlXlXlXlXlXlXlXlXlXlXlXlXlXlXlXlXlXlXlXlXlXlXlXlXlXlXlXlXlXlXlX",
"lXlXlXlXlXlXlXlXlXlXlXlXlXlXlXlXlXlXlXlXlXlX:.<.:.-.:.:.<.:.lXlXlXlXlXlXlXlX6 lXlXlXlXlXlXlXlXlXlXlXlXlXlXlXlXlXlXlXlXlX",
"lXlXlXlXlXlXlXlXlXlXlXlXlXlXlXlXlXlXlX@Xg.OXOX#X$X$X@X$X#XOXf.4.,.lXlXlXlXlX& & lXlXlXlXlXlXlXlXlXlXlXlXlXlXlXlXlXlXlXlX",
"lXlXlXlXlXlXlXlXlXlXlXlXlXlXlXlXlX;X$X#X*X=X=X$X$X=X=X=X$X$X$X$XOX5.<.*.lXlX- $ lXlXlXlXlXlXlXlXlXlXlXlXlXlXlXlXlXlXlXlX",
"lXlXlXlXlXlXlXlXlXlXlXlXlXlXlX;X@X$X=X$X=X=X$X$X$X$X$X$X$X$X$X$X=X=X@X5.:.f j N - lXlXlXlXlXlXlXlXlXlXlXlXlXlXlXlXlXlXlX",
"lXlXlXlXlXlXlXlXlXlXlXlXlXlX@X=X=X$X=X*X=X$X$X$X$X=X=X=X=X=X=X=X=X=X=X=X@X4.4.5.g lXlXlXlXlXlXlXlXlXlXlXlXlXlXlXlXlXlXlX",
"lXlXlXlXlXlXlXlXlXlXlXlXlX-X#X*X=X*X*X$X*X$X=X$X$X$X=X$X=X=X$X=X=X=X=X$X=X=X$X=X>.a lXlXlXlXlXlXlXlXlXlXlXlXlXlXlXlXlXlX",
"lXlXlXlXlXlXlXlXlXlXlX;X$X=X-X-X=X=X=X$X$X=X=X$X=X=X=X=X=X=X=X=X-X*X*X*X*X*X$X=Xf.V lXlXlXlXlXlXlXlXlXlXlXlXlXlXlXlXlXlX",
"lXlXlXlXlXlXlXlXlXlX-X$X$X=X*X*X$X$X$X=X=X=X=X=X$X=X$X=X=X=X:X=X#X=X*X-X*X=X$X=X=X1.h lXlXlXlXlXlXlXlXlXlXlXlXlXlXlXlXlX",
"lXlXlXlXlXlXlXlXlX@X$X$X*X*X=X=X$X*X$X=X=X=X=X=X=X=X$X=X=X=X=X:X=X=X*X#X=X*X=X=X=X@X&.lXlXlXlXlXlXlXlXlXlXlXlXlXlXlXlXlX",
"lXlXlXlXlXlXlXlX;X#X*X$X#X-X-X$X*X*X=X=X=X$X=X$X=X=X=X=X=X$X$X=X>X=X=X$X*X*X*X$X=X=X5.V lXlXlXlXlXlXlXlXlXlXlXlXlXlXlXlX",
"lXlXlXlXlXlXlX-X$X*X=X*X=X-X$X@X$X=X=X*X=X=X=X=X=X=X=X=X=X=X=X=X=X>X>X>X:X-X-X-X-X=X:X:.s lXlXlXlXlXlXlXlXlXlXlXlXlXlXlX",
"lXlXlXlXlXlXlX@X=X=X=X$Xs.>.k k &.5.=X=X$X=X=X$X$X=X$X=X=X=X=X=X=X=X:X2X2X,X,X,X,X2X3X;Xj lXlXlXlXlXlXlXlXlXiXlXlXlXlXlX",
"lXlXlXlXlXlX@X$X*X=Xd.-.g $ lXlXlXj 6.$X$X=X=X$X$X=X$X=X=X$X=X=X=X=X=X=X:X2X4X4X3X3X4X3X1.; lXlXlXlXlXlXlXlXiXlXlXlXlXlX",
"lXlXlXlXlX;X$X$X$X5.B lXlXlXlXlXlXlXj 5.=X=X=X=X=X=X=X=X=X=X=X=X=X=X=X=X=X-X>X,X1X3X3X3X<XV lXlXlXlXlXlXlXlXlXXXlXlXlXlX",
"lXlXlXlXlX-X$X$Xs.&.lXlXlXlXlXlXlXlX- &.OX=X*X-X*X*X=X#X=X=X=X=X=X$X=X=X$X$X$X=X>X,X2X1X1Xh.- lXlXlXlXlXlXlXlXoXlXlXlXlX",
"lXlXlXlX-X=X@Xs.lXlXlXlXlXlXlXlXlXlXlX; ,.f.*X=X=X*X=X#X=X=X=X=X=X=X=X=X$X$X$X=X$X*X=X=X:Xg.; lXlXlXlXlXlXlXlXXXlXlXlXlX",
"lXlXlXlX@X=Xg.lXlXlXlXlXlXlXlXlXlXlXlXlXa &.+X#X*X#X*X=X=X=X$X=X=X=X*X*X$X$X$X$X=X$X$X$X$X5.a lXlXlXlXlXlXlXlXXX XlXlXlX",
"lXlXlXlX$X@XlXlXlXlXlXlXlXlXlXlXlXlXlXlXs &.OX#X@X3.#X=X=X@X$X$X$X$X*X*X$X$X$X$X*X#X$X$X=X-.- lXlXlXlXlXlXlXlXXX|.lXlXlX",
"lXlXlX-X$XlXlXlXlXlXlXlXlXlXlXlXlXlXlXc N 3.2.6.7.,.@X=Xf.f.$X#X$X3.7.*X8.f.=X$X$X$X$X$XOXj lXlXlXlXlXlXlXlXlXXX|.lXlXlX",
"lXlXlX%X@XlXlXlXlXlXlXlXlXlXlXlXlXlXlX- s a j 6.2.-.#XOX2.8.=X*Xf.g j 6.7.3.+X*X$X=X#X7.4.a lXlXlXlXlXlXlXlXlXXX|.lXlXlX",
"lXlXlX;XlXlXlXlXlXlXlXlXlXlXlXlXlXlXlXlXlXf ;.-.k >.$X3.&.OX$X=X4.X # g >.&.3.=X#X8.8.&.&.% lXlXlXlXlXlXlXlXlXXX].lXlXlX",
"lXlXlX%XlXlXlXlXlXlXlXlXlXlXlXlXlXlXlX* - d g j j >.OX&.&.OX7.$X>.& e.% # ; g 5.3.&.2.% - lXlXlXlXlXlXlXlXlXlX^.`.lXlXlX",
"lXlXlXlXlXlXlXlXlXlXlXlXlXlXlXlXlX4 2 2 @ O $ k j 2.7.g ;.+X,.6.;.: eXj.. d B 3.j f *.- X lXlXlXlXlXlXlXlXlXlX^.].lXlXlX",
"lXlXlXlXlXlXlXlXlXlXlXlXlXlXlXlX8 D K K D F 1 f g 1.6.% ;.f.&.k ;.# z.rXA j h.2.X % c lXo lXlXlXlXlXlXlXlXlXlXE._.lXlXlX",
"lXlXlXlXlXlXlXlXlXlXlXlXlXlXlXJ ! m.v.v.b.U H 1 $ 3.2.X B d.j # ; X = :.A a 2.d     lXlXlXlXlXlXlXlXlXlXlXlXlX^.].lXlXlX",
"lXlXlXlXlXlXlXlXlXlXlXlXlXlXlX9 W I K K ^ I Q G @ 1.;.% j 1.; ;  .i.Q.y.A : d X + & lXlXlXlXlXlXlXlXlXlXlXlXS.`.{.lXlXlX",
"lXlXlXlXlXlXlXlXlXlXlXlXlXlXlXo C x.k. .S.#.3 K 9 >.k ; d j t l.pXdXfXdXaX!.A r 9.9.lXlXlXlXlXlXlXlXlXlXlXlXK._. XlXlXlX",
"lXlXlXlXlXlXlXlXlXlXlXlXlXlX, l eXkXc.&X+.E.L w 2 k d a a $ ..yXfXfXfXfXgXdXyXr.k.lXlXlXlXlXlXlXlXlXlXlXlXlX^.[.|.lXlXlX",
"lXlXlXlXlXlXlXlXlXlXlXlXlXlXX R 9Xj.z 5X..I.X.@.q a % X # = u.pXfXfXfXfXgXfXaXw.9.lXlXlXlXlXlXlXlXlXlXlXlXS.(._.|.lXlXlX",
"lXlXlXlXlXlXlXlXlXlXlXlXlXlX  b 5X0.w.7X+.^.) o.L # X     r u.sXfXfXfXfXhXfX0XW.j.r lXlXlXlXlXlXlXlXlXlXlXP.'._. XlXlXlX",
"lXlXlXlXlXlXlXlXlXlXlXlXlXo @ } u.9X9Xt.D.^.L Z.o.  X 1 O * i.qXfXdXpXtXqXW.j.5X9.{ $.lXlXlXlXlXlXlXlXlX$.(.'._.lXlXlXlX",
"lXlXlXlXlXlXlXlXlXlXlXlXlXo w P.L.C.#.P._.A.w L.C.  < Q I 3  .F.aXaXtXl.A r.9.z > { ).S.m lXlXlXlXlXlXlXK.[.'.|.lXlXlXlX",
"lXlXlXlXlXlXlXlXlXlXlXlX7 O L J._._.'.'.`.' ) Y.A.  3 m.m.I 8 E Q.uXF.T A C c A c P XXoXR.L lXlXlXlXlX#.(.'.[.E.R lXlXlX",
"lXlXlXlXlXlXlXlXlXlXlX> o O L #.A.T.Y./.L.i o.U.C.  3 n.M.v.b.~ Y E D / 4 M =.=.c P (.).R.T & lXlXlXX.^.}.'.`.X.+ lXlXlX",
"lXlXlXlXlXlXlXlXlXlX6 s w.9.t p ) ` C.C.P 5 [ +.r.= < U M.M.M.M.n.b.n.v.9 C =.=.x e ' u 6 s - . i Z./.}.'.[.L.L i t lXlX",
"lXlXlXlXlXlXlXlXlX9 Y J z.6Xx.w.b w L L @ l *.0.A r 2 F U n.N.M.M.B.B.b.4 x Z x > & z C Z S v } ~._._._.'._.D.[ | L = lX",
"lXlXlXlXlXlXlXlXJ Q W z y.<X5X8X9Xk.0.T & o q L X.Z.K.O.9 H W b.b.N.m.W O , : s x Z Z A c L J.XX.X}.}.'.}.Y.#.| } m * lX",
"lXlXlXlXlXlXlXD ! N.U 4 =.p.x.6X7X8X9X%XC w ] I.`.}.}.(.{ 6 < 3 D H D 9 > , x Z Z Z Z ; w I.}.oX{.'.'.'.[.P.@.| i 5 lXlX",
"lXlXlXlXlXlXG b.N.B.! 1 s C 0.w.p.j.j.w.r ' C.I.`./.Y.^.q.A e * v J x A s c =.=.Z R A & _ _.}..X{.'.'.}.Y.O.[ e + lXlXlX",
"lXlXlXlXlXY n.M.B.n.H 4 O s S C C C C : w o.] ] A.A.Y.~.q.n i  .7X%X0.=.: C R Z =.=.C 5 A._.{..X{.'.'.`.Z.L q + lXlXlXlX",
"lXlXlX* 4 ! B.M.B.~ D ~ 1 z 0.q.r.m 6 . P ] _ ] ` L._.S.r.t 9 c.eXk.9.A : A Z Z Z Z n q A._.[.{.}.'._.P.L 5 + lXlXlXlXlX",
"lXlXlXo G ! G b.b.F ~ B.I 1  .G.tXaX0Xm p o.] ] ` A.I.$.0., R 7X6Xr.9.x s =.Z =.Z Z l e A._.}.[.}.}.^.) = + lXlXlXlXlXlX",
"lXlXlXlXY 8 < ! G K m.M.N.Y 4 ..W.jXhXqXm L _ ` ` ` ' E C - k.0Xk.9.=.: x =.=.=.Z M > 5 Z.`.}.'.}.{.).r lXlXlXlXlXlXlXlX",
"lXlXlXlXlXO Y ~ H v.B.m.m.n.W 4  .W.pXfX0Xu L #.C.` ' v l 0.5X%Xw.9.C : A =.Z R A l , + _ Y.}.'.[.XXlXlXlXlXlXlXlXlXlXlX",
"lXlXlXlXlXlXF 3 I m.m.N.m.M.b.8 +  .W.pXfX!.u ( ] ] P 7 M x.6Xy.9.=.f x =.R R Z c > . @ ) L.'.[.XXlXlXlXlXlXlXlXlXlXlXlX",
"lXlXlXlXlXlXlX1 W Q U V.m.m.b.3 . =  .W.pXhX!.u ( X.w c a.k.a.0.9.x : A Z Z =.M s , lXlXL Z.^.K.lXlXlX> + lXlXlXlXlXlXlX",
"lXlXlXlXlXlX, 4 Q 8 F b.U v.Q < lXlX6 R F.pXfXQ.t 5 t Z 9.9.9.:.C & S Z Z Z A f & & lXlXu o.o.i u z q t y lXlXlXlXlXlXlX",
"lXlXlXlXlXlXlXlX9 o H Q 8 Q G 1 lXlXlXlXm F.pXfXW.5 v A n x Z C > x Z  .Z A c > & lXlXlX+ e e [ | { { } m = lXlXlXlXlXlX",
"lXlXlXlXlXlXlXlXlXlX9 F 8 ^ 9 > lXlXlXlXlXv l.pXdXqXqXyXwXl.x & > S A A C l > $ lXlXlXlX+ 5 [ | } | | | T = lXlXlXlXlXlX",
"lXlXlXlXlXlXlXlXlXlXlXlX9 F 7 lXlXlXlXlXlX+ t u.pXhXhXfXyXu.& & : : 0 f : : + & lXlXlXlX= u [ { { [ L v q = lXlXlXlXlXlX",
"lXlXlXlXlXlXlXlXlXlXlXlXlXlXlXlXlXlXlXlXlX: l v Q.fXfXfXhXwX .> f : : : : & . lXlXlXlXlX= w e e 5 = = lXlXlXlXlXlXlXlXlX",
"lXlXlXlXlXlXlXlXlXlXlXlXlXlXlXlXlXlXlXlXlXlXs z Q.gXfXfXfXfXtXq.: 0 : : - . lXlXlXlXlXlX= 5 = > lXlXlXlXlXlXlXlXlXlXlXlX",
"lXlXlXlXlXlXlXlXlXlXlXlXlXlXlXlXlXlXlXlXlXlX& = F.aXfXdXfXjXwXwXz : : + + lXlXlXlXlXlXlXlXlXlXlXlXlXlXlXlXlXlXlXlXlXlXlX",
"lXlXlXlXlXlXlXlXlXlXlXlXlXlXlXlXlXlXlXlXlXlXlX& v F.jXhXfXaXF.q.r > - & lXlXlXlXlXlXlXlXlXlXlXlXlXlXlXlXlXlXlXlXlXlXlXlX",
"lXlXlXlXlXlXlXlXlXlXlXlXlXlXlXlXlXlXlXlXlXlXlXlXlXR u.tXyX0Xi.+ > > lXlXlXlXlXlXlXlXlXlXlXlXlXlXlXlXlXlXlXlXlXlXlXlXlXlX",
"lXlXlXlXlXlXlXlXlXlXlXlXlXlXlXlXlXlXlXlXlXlXlXlXlXlXb q.F. .= lXlXlXlXlXlXlXlXlXlXlXlXlXlXlXlXlXlXlXlXlXlXlXlXlXlXlXlXlX",
"lXlXlXlXlXlXlXlXlXlXlXlXlXlXlXlXlXlXlXlXlXlXlXlXlXlXlXlXv 6 lXlXlXlXlXlXlXlXlXlXlXlXlXlXlXlXlXlXlXlXlXlXlXlXlXlXlXlXlXlX",
"lXlXlXlXlXlXlXlXlXlXlXlXlXlXlXlXlXlXlXlXlXlXlXlXlXlXlXlXlXlXlXlXlXlXlXlXlXlXlXlXlXlXlXlXlXlXlXlXlXlXlXlXlXlXlXlXlXlXlXlX"
};
