/* XPM */
static char *result[] = {
/* columns rows colors chars-per-pixel */
"60 60 227 2 ",
"   c #0D0D0D",
".  c #060608",
"X  c #130D0C",
"o  c #1C0C0B",
"O  c #120D05",
"+  c #1B140E",
"@  c #17140E",
"#  c #0A0E11",
"$  c #0C1213",
"%  c #0E171A",
"&  c #151313",
"*  c #1A1614",
"=  c #1C1A13",
"-  c #11191B",
";  c #1D1C1C",
":  c #171718",
">  c #150F0F",
",  c #2B0E0B",
"<  c #260D0A",
"1  c #24160B",
"2  c #35120E",
"3  c #221D14",
"4  c #2B1B15",
"5  c #221F1C",
"6  c #291514",
"7  c #341512",
"8  c #391815",
"9  c #1F211D",
"0  c #29220F",
"q  c #37290D",
"w  c #2B2414",
"e  c #23211C",
"r  c #292418",
"t  c #342C14",
"y  c #362918",
"u  c #3B3218",
"i  c #131E23",
"p  c #1B1F22",
"a  c #0D1C21",
"s  c #201E20",
"d  c #15252A",
"f  c #1A2629",
"g  c #1A2D32",
"h  c #1C2F38",
"j  c #1D353A",
"k  c #1C3236",
"l  c #242323",
"z  c #2C2A24",
"x  c #2C2B2B",
"c  c #272727",
"v  c #312D2B",
"b  c #382C23",
"n  c #33312D",
"m  c #3B3528",
"M  c #2C2E33",
"N  c #22363B",
"B  c #233A3E",
"V  c #263539",
"C  c #343435",
"Z  c #393734",
"A  c #3D3C3D",
"S  c #383837",
"D  c #312F30",
"F  c #4B1613",
"G  c #481B18",
"H  c #591D17",
"J  c #4A140F",
"K  c #452218",
"L  c #5C221C",
"P  c #433513",
"I  c #473A19",
"U  c #4E3515",
"Y  c #69241E",
"T  c #74281D",
"R  c #443C26",
"E  c #403D3D",
"W  c #433D35",
"Q  c #552E27",
"!  c #692622",
"~  c #722923",
"^  c #7C2B23",
"/  c #732A27",
"(  c #7E3028",
")  c #3F403F",
"_  c #57481B",
"`  c #4E4017",
"'  c #68541E",
"]  c #775E1D",
"[  c #624F1D",
"{  c #76601F",
"}  c #7A601F",
"|  c #4D4123",
" . c #5B4D25",
".. c #554926",
"X. c #5D5127",
"o. c #48443A",
"O. c #554C3D",
"+. c #5E5336",
"@. c #655323",
"#. c #725D24",
"$. c #655633",
"%. c #684B2A",
"&. c #786224",
"*. c #776736",
"=. c #233D43",
"-. c #293E45",
";. c #3F3D40",
":. c #1F3841",
">. c #423E44",
",. c #2C464B",
"<. c #284549",
"1. c #2C4D54",
"2. c #345459",
"3. c #304F55",
"4. c #365B64",
"5. c #3C636B",
"6. c #3B646B",
"7. c #3E6C74",
"8. c #434342",
"9. c #494849",
"0. c #574C4A",
"q. c #575347",
"w. c #595959",
"e. c #4F4F51",
"r. c #635B4A",
"t. c #6B634E",
"y. c #6A6554",
"u. c #726856",
"i. c #7A715C",
"p. c #605F60",
"a. c #436C74",
"s. c #446B75",
"d. c #45747C",
"f. c #47767B",
"g. c #496C72",
"h. c #636462",
"j. c #6B6A69",
"k. c #736E63",
"l. c #7B7668",
"z. c #787978",
"x. c #6F7070",
"c. c #415D63",
"v. c #832C24",
"b. c #8B2E29",
"n. c #882E27",
"m. c #963226",
"M. c #9A3126",
"N. c #963229",
"B. c #9A3229",
"V. c #8F3029",
"C. c #826A27",
"Z. c #8B732A",
"A. c #95792A",
"S. c #907B35",
"D. c #857B65",
"F. c #817F7F",
"G. c #9A8337",
"H. c #A98B34",
"J. c #BC9D3C",
"K. c #B49438",
"L. c #AC8D32",
"P. c #BDA03E",
"I. c #C39E39",
"U. c #C5A33D",
"Y. c #D1AB3D",
"T. c #DBB13F",
"R. c #9D8C42",
"E. c #AC9545",
"W. c #B4A454",
"Q. c #8B826C",
"!. c #9B9379",
"~. c #8C8676",
"^. c #A2977B",
"/. c #C6A743",
"(. c #D3AE41",
"). c #D9B342",
"_. c #D1B247",
"`. c #E3BB45",
"'. c #EDBF44",
"]. c #E5BC49",
"[. c #F1BE43",
"{. c #E9BF5B",
"}. c #EEC145",
"|. c #EEC24A",
" X c #E5C14F",
".X c #F1C144",
"XX c #E8C357",
"oX c #F1CB57",
"OX c #F0D26A",
"+X c #467A83",
"@X c #4A7C86",
"#X c #477F8B",
"$X c #497F8A",
"%X c #447480",
"&X c #557E85",
"*X c #4C8087",
"=X c #47818A",
"-X c #49808B",
";X c #478187",
":X c #52828A",
">X c #548994",
",X c #578A94",
"<X c #548A95",
"1X c #62949E",
"2X c #7F8381",
"3X c #699AA4",
"4X c #719FAA",
"5X c #72A0A9",
"6X c #8D8C8C",
"7X c #858585",
"8X c #9A9998",
"9X c #8F9090",
"0X c #ACA288",
"qX c #B6A989",
"wX c #B9B092",
"eX c #AEADAC",
"rX c #9C9EA0",
"tX c #C6B997",
"yX c #C3BBA0",
"uX c #D0C29F",
"iX c #D9CBA9",
"pX c #DED1AB",
"aX c #CBC3A6",
"sX c #E9D7AF",
"dX c #ECDBB3",
"fX c #E6D8B4",
"gX c None",
/* pixels */
"gXgXgXgXgXgXgXgXgXgXgXgXgXgXgXgXgXgXgXgXgXgXgXgXgXgXgXgXgXgXgXgXgXgXgXgXgXgXgXgXgXgXgXgXgXgXgXgXgXgXgXgXgXgXgXgXgXgXgXgX",
"gXgXgXgXgXgXgXgXgXgXgXgXgXgXgXgXgXgXgXgXgXgXgXgXgXgXgXgXgX8 > gXy + G 8 * gXgXgXgXgXgXgXgXgXgXgXgXgXgXgXgXgXgXgXgXgXgXgX",
"gXgXgXgXgXgXgXgXgXgXgXgXgXgXgXgXgXgXgXgXgXgXgXgXgXgXgXo G / , 8 ! < L ! o gXgXgXgXgXgXgXgXgXgXgXgXgXgXgXgXgXgXgXgXgXgXgX",
"gXgXgXgXgXgXgXgXgXgXgXgXgXgXgXgXgXgXgXgXgXgXgXgXgX4 Q G , ( ! F ^ J L n.G gXgXgXgXgXgXgXgXgXgXgXgXgXgXgXgXgXgXgXgXgXgXgX",
"gXgXgXgXgXgXgXgXgXgXgXgXgXgXgXgXgXgXgXgXgXgXgXgXG , L v.F v.N.H Y n.V.m.! gXgXgXgXgXgXgXgXgXgXgXgXgXgXgXgXgXgXgXgXgXgXgX",
"gXgXgXgXgXgXgXgXgXgXgXgXgXgXgXgXgXgXgXgXgXgXgX7 / H F b.V.N.B./ G V.M.M.! gXgXgXgXgXgXgXgXgXgXgXgXgXgXgXgXgXgXgXgXgXgXgX",
"gXgXgXgXgXgXgXgXgXgXgXgXgXgXgXgXgXgXgXgXgXgXgXo G b.v.m.M.N.N.b.F ^ M.m.Y gXgXgXgXgXgXgXgXgXgXgXgXgXgXgXgXgXgXgXgXgXgXgX",
"gXgXgXgXgXgXgXgXgXgXgXgXgXgXgXgXgXgXgXgXgXgXgXgX< / N.M.M.B.N.m.H Y M.m.~ gXgXgXgXgXgXgXgXgXgXgXgXgXgXgXgXgXgXgXgXgXgXgX",
"gXgXgXgXgXgXgXgXgXgXgXgXgXgXgXgXgXgXgXgXgXgXgXgXgX7 ~ N.N.V.v.v.! G V.B.T gXgXgXgXgXgXgXgXgXgXgXgXgXgXgXgXgXgXgXgXgXgXgX",
"gXgXgXgXgXgXgXgXgXgXgXgXgXgXgXgXgXgXgXgXgXgXgXgXgX6 2 L G 2 , < , , L ~ ~ gXgXgXgXgXgXgXgXgXgXgXgXgXgXgXgXgXgXgXgXgXgXgX",
"gXgXgXgXgXgXgXgXgXgXgXgXgXgXgXgXgXgXgXgXgXgXgXgXs 5 4 b W o.o.e   : e 8 L gXgXgXgXgXgXgXgXgXgXgXgXgXgXgXgXgXgXgXgXgXgXgX",
"gXgXgXgXgXgXgXgXgXgXgXgXgXgX5 4 & l : * gXl y m 9.r.i.D.!.D.m z S 9.w.8.8 5 gXgXgXgXgXgXgXgXgXgXgXgXgXgXgXgXgXgXgXgXgXgX",
"gXgXgXgXgXgXgXgXgXgXz R O.y.D.~.W 3 r m q.u.D.^.qXtXuXsXwXo.n 9.h.z.2X2X>.X gXgXgXgXgXgXgXgXgXgXgXgXgX&XgXgXgXgXgXgXgXgX",
"gXgXgXgXgXgXgXgXgXn t.!.tXpXdXpX^.Q.^.wXtXiXsXfXfXfXfXaXq.x 8.j.7X6X7Xh.x X gXgXgXgXgXgXgXgXgXgXgXgXgXgX:XgXgXgXgXgXgXgX",
"gXgXgXgXgXgXgXgXgXZ Q.iXdXdXdXdXsXfXdXdXsXuXwX^.Q.u.O.b e ,.h.8XrX6X9.4 X o gXgXgXgXgXgXgXgXgXgXgXgXgXgX&X:XgXgXgXgXgXgX",
"gXgXgXgXgXgXgXgXgXn !.fXfXsXsXdXdXtXi.r.o.m t w q t t O x w.6X8Xh.b P [ P o   gXgXgXgXgXgXgXgXgXgXgXgXgXgX$X:XgXgXgXgXgX",
"gXgXgXgXgXgXgXgXgX9 l.0XpXdXdXdXdXy.> w ` _ ' ' ] { ] q z z.7X8.0 _ } A.C.q . gXgXgXgXgXgXgXgXgXgXgXgXgXgX@X$XgXgXgXgXgX",
"gXgXgXgXgXgXgXgX9 @ y.yXfXiXtXtXwXZ l I &.} { { { } ] ' 3 w.o.t [ Z.U.`.Y.{ O   gXgXgXgXgXgXgXgXgXgXgXgXgX+X$X&XgXgXgXgX",
"gXgXgXgXgXgXgXgX= - y.Q.r.) q.!.o.C S w ' } ] ] { { ] } u & + _ A.Y.}.P.*.t.m   gXgXgXgXgXgXgXgXgXgXgXgXgXg.=X=X&XgXgXgX",
"gXgXgXgXgXgXgXgX= 9 @ - @ O l Z M 9.e.= u ' &.Z.} C.L.A.I & * I U..XY.$.9X7X6Xe.& gXgXgXgXgXgXgXgXgXgXgXgX4.@X-X$XgXgXgX",
"gXgXgXgXgXgXgXgX$ 9 9 ; ; > l ;.>.w.w.c C _ J.).A.L.[./.u C r t J..XL.i.z.x rXrX* 7 gXgXgXgXgXgXgXgXgXgXgX3.f.-X$XgXgXgX",
"gXgXgXgXgXgXgXgX& ; 9 ; s ; p >.9.z.z.z M q.G.].K.)..XA.z 0._ I ' `.L.k.F.v rXrXK ! G gXgXgXgXgXgXgXgXgXgXgXa.=X$X:XgXgX",
"gXgXgXgXgXgXgXgX& ; ; p D D : E 8.z.7X9.> o.q.H.T.'.`._ >.r.J.Z.q G.U.+.6XF.F.0./ b.8 gXgXgXgXgXgXgXgXgXgXgXa.=X$X:XgXgX",
"gXgXgXgXgXgXgXgX  ; s x >.S : S 8.h.6Xx.= e 9.+.J.`.A.4 x | U.Y.' P K.K.$.r.+.K b.~ 7 gXgXgXgXgXgXgXgXgXgXd 4.*X$X$XgXgX",
"gXgXgXgXgXgXgXgX  : l Z A A 5 x o.e.7X9XE y z 9...[ G , o . P H.J._ U K./.G.@.v.v.H 7 gXgXgXgXgXgXgXgXgXgXd 5.-X$X$XgXgX",
"gXgXgXgXgXgXgXgX  & l A >.E x s ) 8.j.rXx.u u * 7 F Y ^ Y < . o @.C.@.u I U / ^ H 7 o gXgXgXgXgXgXgXgXgXgXd a.$X-X$X:XgX",
"gXgXgXgXgXgXgXgXgX$ l S A A S ; D ,.e.6X8Xb < 2 Y b.N.B.N.T < . # + u y G ~ T L 8 o gXgXgXgXgXgXgXgXgXgXgXg %X-X$X-X:XgX",
"gXgXgXgXgXgXgXgXgX> ; C A A E x 3 W 8.j.x.6 J ^ B.m.B.N.N.v.2 . % f * G Y G J , X X gXgXl gXgXgXgXgXgXgX: <.*X-X#X$X:XgX",
"gXgXgXgXgXgXgXgXgX& : D A E A A s x o.9.D F v.N.M.M.b.H G , O . . g 3.V > & ; $ - c p f f gXgXgXgXgXgXgXd 6.*X$X$X#X$XgX",
"gXgXgX@ ; gXgXgXgXgX& c A A A A S ; x A 6 ^ B.N.N.~ H b m & . # i $ j 7.3.d j j h B i ,.M gX- gXgXgXgXf 3.$X$X$X#X#X&XgX",
"gXgXgX= r 3 5 gXgXgX& s C E A ) ) x * x 7 b.B.N.! O.u.D.i.r.e   f f $ =.s.4.g k <.2.j 7.h d k k k B ,.4.@X$X$X$X$X#X:XgX",
"gXgX: 0 t w > & gXgXX : x A A A ) ) l   o ~ B.^ Q tXsXiXtX^.r.; d k % # <.%X6.g =.7.4.%X7.6.d.+X+X@X;X-X=X$X$X=X$X$X:XgX",
"gXgX* t | u 1 t r gXX & l S o.;.A E n $ & 7 ! ! o.iXiXsXdXsX0Xo.c 5.2.g % 1.=X7.j 4.$X-X=X-X-X-X$X-X-X-X-X-X-X-X#X$X$XgX",
"gXgX= | X.I P &.@.I 1 O ; C ;.A A ) x l A z 4 8 0.0XtXsXsXdXpXt.$ =.d.d.j g 7.=Xs.1.%X-X=X-X=X-X$X-X-X-X-X$X#X-X#X#X&XgX",
"gX@ t  . .R I K.K.H.] P = l ;.A A A x c E E x 9.o.!.sXdXsXdXsXt.. a =.7.d.<.3.=X-X%X+X-X-X-X-X-X-X-X#X-X-X-X-X-X$X$X$XgX",
"gX= |  .X.R I (..X[.T.L.' 0 l A A A f x E E M e.q.iXdXdXdXdXwXz g <.1.2.+Xd.3.+X-X-X-X-X=X-X-X$X#X-X-X-X-X#X$X-X$X$X$XgX",
"gXw X. .R r gXXX[.[.'.'.Y.C.1 e A ;.$ ; C A z e.D.dXdXdXdXdX~.X $ <.f.;X;X=Xd.+X=X@X$X*X=X-X-X-X-X$X-X#X-X-X-X$X$X-X:XgX",
"@ m X...0 gXgXoX'.'.[.'.[.T.' & ;.C y I e D l j.l.fXdXdXpXQ.n E ) $ j f.=X=X$X$X=X=X=X$X$X$X-X$X-X$X-X-X-X$X-X-X$X$XgXgX",
"& r | I * gXgXXX.X[.|.oX}.}.K.w A c *._.&.w e 6Xj.0XaX0Xr.l j.eXeXw.# <.=X#X;X=X*X=X$X=X-X$X-X$X-X-X-X-X$X-X=X=X-X@XgXgX",
"gXgX3 = & gXgXgX}.[.}.oXoX|.J.y C e E.OXOXR.u Z 8.o.k.z - - C S S z . a 6.$X=X$X-X*X-X$X-X-X-X-X-X$X$X$X$X$X=X=X-Xd.gXgX",
"gXgXgXgXgXgXgX$.).[.[.'.oXOXE.u l m W.W.G.#.R gX9.h.9 . ,.1.g # # d :.4.d.#X#X#X-X$X$X-X-X-X-X#X-X-X#X#X#X#X@X$Xd.2.gXgX",
"gXgXgXgXgXgX= w K..X[.'.|.OXR.= > t X.gXgXgXgXgXgXe.l . =.a.g $ j 5.+X-X$X#X#X-X-X-X-X-X-X#X-X-X#X-X#X-X#X#X$X$X2.gXgXgX",
"gXgXgXgXgXgX= 0 C.}.}.[.[.|.Z.& gXgXgXgXgXgXgXgXgXgX& . % 2.=.j ,.4.7.=X$X#X-X-X-X-X-X$X+X#X#X-X#X-X-X-X-X=X-Xa.V gXgXgX",
"gXgXgXgXgXgXgX= [ ).}.[.[.'.A.gXgXgXgXgXgXgXgXgXgXgXp $ # ,.f.@X#X+X+X-X#X#X$X-X$X-X-X-X-X>X<X-X-X-X-X-X-X-X+X,.gXgXgXgX",
"gXgXgXgXgXgXgX3 _ K.[.[.[.'.Z.gXgXgXgXgXgXgXgXgXgXgXgXB N k d.=X=X=X-X-X=X=X*X-X#X-X<X>X<X-X-X-X-X-X-X-X@X@X2.gXgXgXgXgX",
"gXgXgXgXgXgXgXr | Z.].[.[.}.S.gXgXgXgXgXgXgXgXgXgXgXp c ,.5.d.#X$X-X-X#X=X=X=X:X,X3X<X*X#X#X-X-X-X-X-X-X$Xs.-.gXgXgXgXgX",
"gXgXgXgXgXgXgX3 ..@.I..X'..XG.gXgXgXgXgXgXgXgXgXgXgX> . f s.-X-X#X#X-X$X@X-X,X3X1X>X$X$X$X-X-X-X-X-X-X-Xs.-.gXgXgXgXgXgX",
"gXgXgXgXgXgXgX3 ..X.&.)..X'.I...gXgXgXgXgXgXgXgXgXgXgX- -.4.$X$X#X$X$X-X>X3X4X3X*X@X=X$X=X-X=X-X-X-X-Xs.,.gXgXgXgXgXgXgX",
"gXgXgXgXgXgXgX3 ..X.u A.}.}.`.Z.gXgXgXgXgXgXgXgXgXgXgXgXB f.$X$X#X#X$X1X4X4X3X$X$X$X=X$X-X=X=X-X-X@X5.gXgXgXgXgXgXgXgXgX",
"gXgXgXgXgXgXgX3 | ..m I _.}..XP.gXgXgXgXgXgXgXgXgXgXgXgXp 2.-X-X$X>X3X4X4X4X>X@X-X-X$X$X-X$X-X@Xa.3.gXgXgXgXgXgXgXgXgXgX",
"gXgXgXgXgXgXgX  * 3 + = W.|.}.].S.gXgXgXgXgXgXgXgXgXgXgXgXf 6.-X>X3X4X4X4X1X@X=X$X$X$X$X$X;Xf.3.k gXgXgXgXgXgXgXgXgXgXgX",
"gXgXgXgXgXgXgXgXgXgXgXgXgXXX'.}._.*.gXgXgXgXgXgXgXgXgXgXgXgX=.f.1X4X4X4X4X,X=X-X$X$X$X$Xd.3.V gXgXgXgXgXgXgXgXgXgXgXgXgX",
"gXgXgXgXgXgXgXgXgXgXgXgXgXgXXX}.'.E.gXgXgXgXgXgXgXgXgXgXgXgX% g ,.c.g.f.&Xf.f.@X$X$X$X-X2.i gXgXgXgXgXgXgXgXgXgXgXgXgXgX",
"gXgXgXgXgXgXgXgXgXgXgXgXgXgXgXXX'.`.G.gXgXgXgXgXgXgXgXgXgXgXgXgX> % & % i f g k N =.<.,.,.f : gXgXgXgXgXgXgXgXgXgXgXgXgX",
"gXgXgXgXgXgXgXgXgXgXgXgXgXgXgXgXXX[.).G.gXgXgXgXgXgXgXgXgXgXgXgXgXgXgXgXgXgXgXgXgXgXgX# # # > c gXgXgXgXgXgXgXgXgXgXgXgX",
"gXgXgXgXgXgXgXgXgXgXgXgXgXgXgXgXgX{.}.Y.G.gXgXgXgXgXgXgXgXgXgXgXgXgXgXgXgXgXgXgXgXgXgXgXgXgXgXgXgXgXgXgXgXgXgXgXgXgXgXgX",
"gXgXgXgXgXgXgXgXgXgXgXgXgXgXgXgXgXgX{.]._.W.gXgXgXgXgXgXgXgXgXgXgXgXgXgXgXgXgXgXgXgXgXgXgXgXgXgXgXgXgXgXgXgXgXgXgXgXgXgX",
"gXgXgXgXgXgXgXgXgXgXgXgXgXgXgXgXgXgXgXgX X].XXgXgXgXgXgXgXgXgXgXgXgXgXgXgXgXgXgXgXgXgXgXgXgXgXgXgXgXgXgXgXgXgXgXgXgXgXgX",
"gXgXgXgXgXgXgXgXgXgXgXgXgXgXgXgXgXgXgXgXgXoXXXXXgXgXgXgXgXgXgXgXgXgXgXgXgXgXgXgXgXgXgXgXgXgXgXgXgXgXgXgXgXgXgXgXgXgXgXgX",
"gXgXgXgXgXgXgXgXgXgXgXgXgXgXgXgXgXgXgXgXgXgXgXXXXXgXgXgXgXgXgXgXgXgXgXgXgXgXgXgXgXgXgXgXgXgXgXgXgXgXgXgXgXgXgXgXgXgXgXgX"
};
